<svg width="75" height="75" viewBox="0 0 75 75" fill="none" xmlns="http://www.w3.org/2000/svg">
<g clip-path="url(#clip0_19311_379)">
<path d="M47.5176 75C62.7054 75 75.0176 62.6878 75.0176 47.5C75.0176 32.3122 62.7054 20 47.5176 20C32.3297 20 20.0176 32.3122 20.0176 47.5C20.0176 62.6878 32.3297 75 47.5176 75Z" fill="#EBEBEB"/>
<path d="M24.1582 61.0373H51.6161C52.6349 61.0367 53.6408 60.8082 54.5619 60.368C55.483 59.9278 56.2963 59.2869 56.9435 58.4912L66.689 46.5081C67.5975 45.3935 68.0627 43.9765 67.9936 42.5338C67.9246 41.091 67.3262 39.7261 66.3155 38.7055C65.7421 38.1243 65.0533 37.6727 64.2947 37.3804C63.536 37.0881 62.7247 36.9619 61.9142 37.01C61.1038 37.0581 60.3127 37.2795 59.593 37.6596C58.8734 38.0396 58.2416 38.5696 57.7394 39.2147L50.9664 47.9043C50.5504 48.4361 50.021 48.866 49.4177 49.1618C48.8144 49.4576 48.1528 49.6117 47.4824 49.6127H36.6323" stroke="#282828" stroke-width="2" stroke-miterlimit="10" stroke-linecap="round"/>
<path d="M15.3418 44.2805C15.3418 44.2805 20.686 37.6746 31.5843 39.3519C31.5843 39.3519 34.3741 39.755 36.368 41.4495C36.4041 41.4802 36.45 41.4975 36.4974 41.4975H47.4689C48.5458 41.4975 49.5787 41.9301 50.3402 42.7002C51.1018 43.4704 51.5295 44.5149 51.5295 45.6041C51.5295 46.6932 51.1018 47.7378 50.3402 48.5079C49.5787 49.278 48.5458 49.7107 47.4689 49.7107H36.6351" stroke="#282828" stroke-width="2" stroke-miterlimit="10" stroke-linecap="round"/>
<path d="M6.7228 45.851L10.6488 43.7665C11.1049 43.5243 11.6037 43.3754 12.1167 43.3282C12.6297 43.281 13.147 43.3364 13.6388 43.4913C14.1306 43.6462 14.5873 43.8976 14.9831 44.2311C15.3788 44.5646 15.7058 44.9736 15.9452 45.4348L23.854 60.6695C24.3376 61.6011 24.4356 62.6887 24.1262 63.6932C23.8169 64.6977 23.1255 65.5369 22.2044 66.0259L18.2784 68.1105C18.0877 68.2117 17.8651 68.2322 17.6594 68.1674C17.4538 68.1026 17.2819 67.9579 17.1818 67.765L6.37751 46.9528C6.27739 46.7599 6.25716 46.5347 6.32121 46.3267C6.38526 46.1187 6.52835 45.9451 6.71905 45.8438L6.7228 45.851Z" stroke="#282828" stroke-width="2" stroke-miterlimit="10"/>
<path d="M41.762 20.0034C41.687 19.9786 41.6766 19.875 41.7447 19.8352C43.1049 19.0408 44.1789 17.8331 44.8085 16.3853C45.4662 14.8729 45.6016 13.1846 45.1934 11.5867C44.7852 9.9888 43.8566 8.57231 42.5541 7.56071C41.2516 6.54911 39.6492 6 38 6C36.3508 6 34.7487 6.54911 33.4461 7.56071C32.1436 8.57231 31.2148 9.9888 30.8066 11.5867C30.3984 13.1846 30.534 14.8729 31.1917 16.3853C31.8214 17.8331 32.8953 19.0408 34.2555 19.8352C34.3236 19.875 34.3132 19.9786 34.2383 20.0034C31.8763 20.7831 29.8131 22.2784 28.3364 24.2843C26.8179 26.3469 25.9992 28.8412 26 31.4024V31.9472C26 31.9965 26.04 32.0365 26.0894 32.0365H49.9106C49.96 32.0365 50 31.9965 50 31.9472V31.4024C50.0008 28.8412 49.1821 26.3469 47.6636 24.2843C46.1869 22.2784 44.124 20.7831 41.762 20.0034Z" stroke="#B51717" stroke-width="2.4" stroke-miterlimit="10"/>
</g>
<defs>
<clipPath id="clip0_19311_379">
<rect width="75" height="75" fill="white"/>
</clipPath>
</defs>
</svg>
