<svg width="75" height="75" viewBox="0 0 75 75" fill="none" xmlns="http://www.w3.org/2000/svg">
<g clip-path="url(#clip0_19311_365)">
<path d="M47.5059 75C62.6937 75 75.0059 62.6878 75.0059 47.5C75.0059 32.3122 62.6937 20 47.5059 20C32.318 20 20.0059 32.3122 20.0059 47.5C20.0059 62.6878 32.318 75 47.5059 75Z" fill="#EBEBEB"/>
<path d="M54.3699 22.2239L62.555 17.4983" stroke="#B51717" stroke-width="2.4" stroke-linecap="round" stroke-linejoin="round"/>
<path d="M51.4729 16.6215L57.842 9.33672" stroke="#B51717" stroke-width="2.4" stroke-linecap="round" stroke-linejoin="round"/>
<path d="M57.7798 27.5432L67.266 25.6573" stroke="#B51717" stroke-width="2.4" stroke-linecap="round" stroke-linejoin="round"/>
<path d="M14.4713 32.2735L38.5133 18.6061L49.9901 38.7947L25.9481 52.462C24.6212 53.2164 23.1582 53.7013 21.6434 53.8888C20.1285 54.0763 18.5915 53.9627 17.1206 53.5546C15.6498 53.1465 14.274 52.4519 13.0723 51.5106C11.8706 50.5694 10.8666 49.4001 10.1181 48.0698C8.60197 45.3975 8.20889 42.2326 9.02518 39.2706C9.84147 36.3086 11.8004 33.7919 14.4713 32.2735Z" stroke="#282828" stroke-width="2" stroke-miterlimit="10"/>
<path d="M28.5174 50.9552L17.0605 30.8018" stroke="#282828" stroke-width="2" stroke-miterlimit="10"/>
<path d="M31.3105 49.3697L38.4116 45.3329L44.6989 56.3927C45.1528 57.1912 45.271 58.1373 45.0273 59.0229C44.7837 59.9085 44.1982 60.661 43.3997 61.1149L42.2849 61.7487C41.4865 62.2026 40.5403 62.3207 39.6547 62.0771C38.7691 61.8334 38.0166 61.248 37.5627 60.4495L31.2754 49.3896L31.3105 49.3697Z" stroke="#282828" stroke-width="2" stroke-miterlimit="10"/>
<path d="M38.5147 18.6059L49.9915 38.7944C53.959 36.539 59.1259 41.1742 59.1259 41.1742L41.1622 9.57475C41.1622 9.57475 42.4822 16.3504 38.5147 18.6059Z" stroke="#282828" stroke-width="2" stroke-linecap="round" stroke-linejoin="round"/>
</g>
<defs>
<clipPath id="clip0_19311_365">
<rect width="75" height="75" fill="white"/>
</clipPath>
</defs>
</svg>
