<svg width="75" height="75" viewBox="0 0 75 75" fill="none" xmlns="http://www.w3.org/2000/svg">
<path d="M47.5 74.9951C62.6878 74.9951 75 62.6829 75 47.4951C75 32.3073 62.6878 19.9951 47.5 19.9951C32.3122 19.9951 20 32.3073 20 47.4951C20 62.6829 32.3122 74.9951 47.5 74.9951Z" fill="#EBEBEB"/>
<path d="M10.4102 23.3395C12.9581 17.9272 17.3636 13.6091 22.8259 11.1702C28.2882 8.73139 34.4442 8.33379 40.1748 10.0498C45.9054 11.7657 50.83 15.4813 54.0529 20.5209C57.2758 25.5604 58.5832 31.5893 57.7372 37.5112L47.9293 30.7743L55.276 24.7574" stroke="#282828" stroke-width="2" stroke-linecap="round" stroke-linejoin="round"/>
<path d="M55.2933 45.3502C52.769 50.3818 48.6192 54.4133 43.5166 56.7908C38.414 59.1684 32.6579 59.7526 27.1816 58.4488C21.7054 57.145 16.83 54.0297 13.3462 49.6079C9.86244 45.186 7.97446 39.7171 7.98836 34.0878C7.98737 32.9796 8.06104 31.8727 8.20879 30.7744L18.1268 37.5113L11.1327 43.4474" stroke="#282828" stroke-width="2" stroke-linecap="round" stroke-linejoin="round"/>
<path d="M32.5672 44.176C28.0939 43.9427 25.266 41.7442 25.1484 37.7361H29.2984C29.4306 39.4822 30.7088 40.486 32.5672 40.7051V35.5165L31.2891 35.2196C27.8222 34.3996 25.692 32.7313 25.692 29.826C25.692 26.4824 28.5347 24.1708 32.5672 23.8668V21.626H34.2199V23.8668C38.3699 24.1142 41.0361 26.4682 41.0949 29.7765H37.0036C36.864 28.4051 35.8505 27.5286 34.2199 27.3236V32.2223L35.2114 32.4556C38.7371 33.2332 41.3668 34.9581 41.3815 38.2522C41.3815 41.6877 38.7519 43.9074 34.2199 44.176V46.4027H32.5672V44.176ZM32.5672 31.8265V27.3377C30.9659 27.571 30.0844 28.4334 30.0697 29.5574C30.055 30.6813 31.1496 31.3953 32.5672 31.8265ZM37.0624 38.2522C37.0624 37.0505 36.0341 36.4072 34.2199 35.9124V40.691C35.968 40.4719 37.0624 39.5387 37.0624 38.2522Z" fill="#B51717"/>
<path d="M9.2018 32.6215L16.5443 37.6089L10.8643 43.0504C9.98357 40.6198 9.55483 37.8559 9.35535 35.5317C9.25948 34.4146 9.21768 33.4138 9.2018 32.6215Z" fill="#282828" stroke="#282828" stroke-width="2"/>
<path d="M56.639 35.6661L49.587 30.7189L55.241 26.1689L56.639 35.6661Z" fill="#282828" stroke="#282828" stroke-width="2"/>
</svg>
