<svg width="75" height="75" viewBox="0 0 75 75" fill="none" xmlns="http://www.w3.org/2000/svg">
<g clip-path="url(#clip0_19311_399)">
<path d="M47.5 75C62.6878 75 75 62.6878 75 47.5C75 32.3122 62.6878 20 47.5 20C32.3122 20 20 32.3122 20 47.5C20 62.6878 32.3122 75 47.5 75Z" fill="#EBEBEB"/>
<path d="M52.0766 40.6541C51.7974 41.4998 51.4609 42.3252 51.0696 43.1245C50.9106 43.4553 50.8572 43.8275 50.9166 44.1899C50.9761 44.5524 51.1457 44.8875 51.402 45.1494L52.6307 46.3947C52.8292 46.5941 52.9864 46.8308 53.0939 47.0914C53.2014 47.352 53.2567 47.6313 53.2567 47.9134C53.2567 48.1955 53.2014 48.4748 53.0939 48.7354C52.9864 48.996 52.8292 49.2327 52.6307 49.4321L48.1194 53.9679C47.9211 54.1675 47.6852 54.3258 47.4261 54.4338C47.1669 54.5419 46.8894 54.5975 46.6089 54.5975C46.3283 54.5975 46.0503 54.5419 45.7912 54.4338C45.532 54.3258 45.2966 54.1675 45.0983 53.9679L43.8598 52.7225C43.5977 52.4675 43.2642 52.2988 42.9044 52.2391C42.5445 52.1794 42.1754 52.2315 41.8457 52.3885C41.0487 52.7776 40.2276 53.1157 39.3882 53.4009C39.034 53.5181 38.7259 53.7445 38.5071 54.048C38.2883 54.3516 38.1702 54.7168 38.1698 55.0917V56.8432C38.1711 57.1259 38.1172 57.4062 38.0105 57.6678C37.9038 57.9293 37.7467 58.1671 37.5483 58.3675C37.3499 58.5679 37.1142 58.7269 36.8545 58.8354C36.5948 58.9439 36.3165 58.9998 36.0353 58.9998H29.6506C29.3694 58.9998 29.0911 58.9439 28.8314 58.8354C28.5717 58.7269 28.336 58.5679 28.1376 58.3675C27.9392 58.1671 27.7821 57.9293 27.6754 57.6678C27.5687 57.4062 27.5143 57.1259 27.5156 56.8432V55.0917C27.5152 54.7168 27.3976 54.3516 27.1788 54.048C26.96 53.7445 26.6514 53.5181 26.2972 53.4009C25.4587 53.1133 24.6382 52.7752 23.8401 52.3885C23.5059 52.2172 23.1266 52.1563 22.7559 52.2145C22.3853 52.2726 22.0424 52.4469 21.776 52.7124L20.5472 53.9578C20.1455 54.3584 19.6026 54.5832 19.0367 54.5832C18.4709 54.5832 17.928 54.3584 17.5262 53.9578L13.0149 49.4219C12.8163 49.2226 12.6591 48.9859 12.5517 48.7253C12.4442 48.4647 12.3889 48.1854 12.3889 47.9033C12.3889 47.6212 12.4442 47.3419 12.5517 47.0813C12.6591 46.8207 12.8163 46.5839 13.0149 46.3846L14.2436 45.1393C14.4999 44.8774 14.6694 44.5423 14.7289 44.1798C14.7884 43.8173 14.735 43.4452 14.576 43.1144C14.1846 42.315 13.8482 41.4896 13.569 40.644C13.451 40.2861 13.2239 39.9743 12.9205 39.7527C12.617 39.5312 12.2521 39.4109 11.8771 39.4089H10.135C9.56877 39.4089 9.02581 39.1827 8.62544 38.7801C8.22508 38.3776 8 37.8317 8 37.2625V30.8536C8 30.2844 8.22508 29.7384 8.62544 29.3359C9.02581 28.9334 9.56877 28.7072 10.135 28.7072H11.8771C12.2509 28.7059 12.6151 28.5871 12.9185 28.3674C13.2218 28.1478 13.4493 27.8382 13.569 27.4822C13.8464 26.6359 14.1829 25.8104 14.576 25.0118C14.7321 24.6803 14.7839 24.3089 14.7245 23.9471C14.6651 23.5853 14.4973 23.2503 14.2436 22.9869L13.0149 21.7517C12.6164 21.3478 12.3929 20.8019 12.3929 20.233C12.3929 19.6641 12.6164 19.1183 13.0149 18.7144L17.5262 14.1887C17.7245 13.9891 17.9603 13.8308 18.2195 13.7227C18.4787 13.6147 18.7561 13.5591 19.0367 13.5591C19.3173 13.5591 19.5952 13.6147 19.8544 13.7227C20.1136 13.8308 20.349 13.9891 20.5472 14.1887L21.776 15.4239C22.0428 15.6884 22.385 15.8628 22.755 15.9226C23.125 15.9825 23.5042 15.9249 23.8401 15.758C24.6364 15.3671 25.4571 15.0289 26.2972 14.7455C26.6514 14.6284 26.96 14.4019 27.1788 14.0984C27.3976 13.7948 27.5152 13.4296 27.5156 13.0547V11.2323C27.5156 10.6631 27.7407 10.1171 28.1411 9.71458C28.5414 9.31205 29.0844 9.08594 29.6506 9.08594H36.0353C36.6015 9.08594 37.1445 9.31205 37.5448 9.71458C37.9452 10.1171 38.1698 10.6631 38.1698 11.2323V12.9838C38.1702 13.3587 38.2883 13.7239 38.5071 14.0275C38.7259 14.3311 39.034 14.5575 39.3882 14.6747C40.6314 15.1039 41.8317 15.6496 42.9732 16.3047L42.3591 16.9223L39.459 19.8382C36.1273 18.2699 32.352 17.9327 28.7975 18.8859C25.243 19.8391 22.1364 22.0216 20.0241 25.0497C17.9117 28.0779 16.9287 31.7578 17.2479 35.4425C17.5671 39.1273 19.1683 42.5808 21.7696 45.1962C24.3709 47.8116 27.806 49.4213 31.4709 49.7422C35.1358 50.0632 38.796 49.0749 41.8079 46.9511C44.8197 44.8273 46.9904 41.7039 47.9384 38.1302C48.8865 34.5564 48.5512 30.761 46.9914 27.4113L49.8915 24.4954L50.5056 23.888C51.1653 25.0315 51.7089 26.239 52.1272 27.4923C52.2469 27.8484 52.4744 28.1579 52.7777 28.3776C53.0811 28.5972 53.4448 28.716 53.8187 28.7174H55.5608C56.127 28.7174 56.6699 28.9435 57.0703 29.346C57.4706 29.7485 57.6957 30.2945 57.6957 30.8638V37.2725C57.6957 37.8418 57.4706 38.3878 57.0703 38.7903C56.6699 39.1928 56.127 39.419 55.5608 39.419H53.8187C53.435 39.4103 53.0589 39.5255 52.7453 39.7479C52.4317 39.9702 52.1972 40.2879 52.0766 40.6541Z" stroke="#282828" stroke-width="2" stroke-miterlimit="10"/>
<path d="M39.4065 19.8368C36.3446 18.3973 32.9012 17.9953 29.5927 18.6912C26.2841 19.3871 23.2894 21.1433 21.0582 23.6962C18.827 26.2491 17.4795 29.4609 17.2185 32.8492C16.9575 36.2375 17.797 39.6195 19.6106 42.4873C21.4243 45.3551 24.1147 47.5539 27.2772 48.7536C30.4398 49.9533 33.9038 50.0891 37.1496 49.1406C40.3955 48.1922 43.2476 46.2106 45.2779 43.4935C47.3082 40.7764 48.4068 37.4703 48.4091 34.0719C48.4136 31.7694 47.9116 29.4944 46.9389 27.41" stroke="#282828" stroke-width="2" stroke-miterlimit="10"/>
<path d="M34.3065 39.868C34.3609 39.9227 34.3324 40.016 34.2567 40.031L25.7648 41.7092C25.4278 41.7758 25.1308 41.4794 25.1967 41.1422L26.8665 32.6016C26.8813 32.5256 26.9752 32.4971 27.0299 32.552L34.3065 39.868Z" stroke="#B51717" stroke-width="2" stroke-miterlimit="10"/>
<path d="M54.6499 19.5351C54.6874 19.5729 54.6874 19.6339 54.6498 19.6716L50.4581 23.8759L49.8438 24.4935L46.9437 27.4094L34.5052 39.9252C34.4674 39.9632 34.4059 39.9632 34.3681 39.9252L26.9721 32.4892C26.9346 32.4515 26.9346 32.3906 26.9721 32.3529L39.4214 19.8363L42.3115 16.9204L42.9222 16.3064C42.9245 16.3041 42.9275 16.3028 42.9308 16.3028V16.3028C42.934 16.3028 42.9371 16.3015 42.9393 16.2992L47.1168 12.0992C47.1546 12.0612 47.2161 12.0612 47.2539 12.0992L54.6499 19.5351Z" stroke="#B51717" stroke-width="2" stroke-miterlimit="10"/>
<path d="M56.9622 17.3879L54.7667 19.6052L47.2344 12.032L49.4298 9.82488C50.0981 9.15469 51.0034 8.77832 51.9473 8.77832C52.8912 8.77832 53.7966 9.15469 54.4648 9.82488L56.9622 12.3257C57.6288 12.9976 58.0031 13.9078 58.0031 14.8568C58.0031 15.8058 57.6288 16.716 56.9622 17.3879Z" stroke="#B51717" stroke-width="2" stroke-miterlimit="10"/>
<path d="M46.9421 19.8359L34.3848 32.4612" stroke="#B51717" stroke-width="2" stroke-miterlimit="10" stroke-linecap="round"/>
</g>
<defs>
<clipPath id="clip0_19311_399">
<rect width="75" height="75" fill="white"/>
</clipPath>
</defs>
</svg>
