<svg width="1920" height="696" viewBox="0 0 1920 696" fill="none" xmlns="http://www.w3.org/2000/svg">
<rect width="1920" height="696" fill="white"/>
<path d="M811.789 313.719C811.789 316.309 813.465 318.746 816.781 319.766L815.539 321.805C813.16 321.055 811.473 319.543 810.547 317.633C809.609 319.859 807.828 321.629 805.273 322.484L803.961 320.422C807.371 319.309 809.164 316.555 809.164 313.742V313.484H804.688V311.375H816.195V313.484H811.789V313.719ZM806.844 327.008C806.844 324.477 809.586 323 814.016 323C818.41 323 821.105 324.477 821.117 327.008C821.105 329.562 818.41 331.062 814.016 331.062C809.586 331.062 806.844 329.562 806.844 327.008ZM809.445 327.008C809.445 328.32 811.109 329.012 814.016 329.023C816.91 329.012 818.539 328.32 818.539 327.008C818.539 325.719 816.91 325.039 814.016 325.039C811.109 325.039 809.445 325.719 809.445 327.008ZM818.305 322.531V309.898H820.906V314.984H823.859V317.117H820.906V322.531H818.305ZM841.531 309.898V317.961H844.789V320.164H841.531V331.086H838.93V309.898H841.531ZM825.688 326.117V311.633H828.266V316.93H833.258V311.633H835.859V326.117H825.688ZM828.266 323.984H833.258V318.969H828.266V323.984ZM862.625 311.188V313.086C862.613 315.066 862.613 317.234 862.062 320.234H864.992V322.344H856.578V331.109H853.953V322.344H845.68V320.234H859.414C860 317.352 860.023 315.184 860.023 313.297H847.953V311.188H862.625ZM884.094 309.898V331.086H881.516V309.898H884.094ZM867.641 325.766V311.961H870.219V323.539C873.184 323.492 876.348 323.234 879.617 322.578L879.945 324.758C876.219 325.531 872.762 325.777 869.469 325.766H867.641ZM905.445 309.898V331.086H902.938V309.898H905.445ZM887.375 319.062C887.375 314.398 889.18 311.504 891.945 311.516C894.512 311.504 896.258 313.906 896.562 317.867H898.602V310.273H901.086V330.055H898.602V319.977H896.586C896.34 324.113 894.57 326.645 891.945 326.633C889.18 326.645 887.375 323.738 887.375 319.062ZM889.789 319.062C889.777 322.379 890.598 324.16 891.945 324.148C893.352 324.16 894.184 322.379 894.195 319.062C894.184 315.758 893.352 313.965 891.945 313.977C890.598 313.965 889.777 315.758 889.789 319.062ZM930.312 309.898V314.82H933.266V316.977H930.312V321.828H927.711V309.898H930.312ZM914.492 320.891V311.258H923.914V313.367H917.07V318.781C921.055 318.77 923.27 318.629 925.789 318.125L926.07 320.188C923.293 320.797 920.832 320.891 916.203 320.891H914.492ZM916.625 330.805V322.789H930.312V330.805H916.625ZM919.203 328.742H927.734V324.875H919.203V328.742ZM953.656 320.844V322.93H934.344V320.844H953.656ZM936.336 314.867C936.336 312.184 939.348 310.566 943.977 310.578C948.594 310.566 951.605 312.184 951.617 314.867C951.605 317.562 948.594 319.203 943.977 319.203C939.348 319.203 936.336 317.562 936.336 314.867ZM936.734 330.664V324.5H939.336V328.555H951.477V330.664H936.734ZM939.055 314.867C939.031 316.309 940.895 317.082 943.977 317.07C947.07 317.082 948.922 316.309 948.922 314.867C948.922 313.473 947.07 312.664 943.977 312.664C940.895 312.664 939.031 313.473 939.055 314.867ZM968.281 313.273C968.281 315.934 970.004 318.453 973.273 319.484L971.867 321.523C969.582 320.75 967.941 319.203 967.016 317.234C966.102 319.484 964.391 321.254 961.953 322.109L960.547 320.07C963.957 318.887 965.668 316.062 965.68 313.039V311.023H968.281V313.273ZM963.43 327.031C963.43 324.523 966.184 323.035 970.602 323.047C974.984 323.035 977.691 324.523 977.703 327.031C977.691 329.598 974.984 331.062 970.602 331.062C966.184 331.062 963.43 329.598 963.43 327.031ZM966.031 327.031C966.031 328.344 967.695 329 970.602 329C973.496 329 975.125 328.344 975.125 327.031C975.125 325.789 973.496 325.086 970.602 325.086C967.695 325.086 966.031 325.789 966.031 327.031ZM974.891 322.578V309.898H977.492V315.055H980.445V317.211H977.492V322.578H974.891ZM1000.84 319.93V322.016H992.445V324.055H998.492V330.828H983.797V324.055H989.867V322.016H981.523V319.93H1000.84ZM983.258 312.617V310.531H999.055V312.617H996.148V316.25H998.938V318.359H983.375V316.25H986.164V312.617H983.258ZM986.375 328.719H995.961V326.07H986.375V328.719ZM988.766 316.25H993.523V312.617H988.766V316.25ZM1019.89 309.898V331.109H1017.27V309.898H1019.89ZM1002.95 318.922C1002.93 314.352 1005.27 311.445 1008.48 311.445C1011.65 311.445 1014 314.352 1014.01 318.922C1014 323.527 1011.65 326.422 1008.48 326.422C1005.27 326.422 1002.93 323.527 1002.95 318.922ZM1005.45 318.922C1005.45 322.18 1006.68 324.066 1008.48 324.078C1010.26 324.066 1011.48 322.18 1011.48 318.922C1011.48 315.688 1010.26 313.789 1008.48 313.789C1006.68 313.789 1005.45 315.688 1005.45 318.922ZM1033.51 322.297V324.57H1036.3V322.297H1038.71V329.023C1041.21 327.969 1042.34 325.848 1042.34 323.82V322.133H1044.95V323.82C1044.93 326.012 1046.08 328.156 1048.7 329.047L1047.36 330.992C1045.48 330.312 1044.29 329.035 1043.62 327.43C1042.92 328.988 1041.71 330.289 1039.95 330.992L1038.71 329.152V330.828H1031.07V322.297H1033.51ZM1028.98 315.688C1028.98 312.793 1031.34 310.754 1034.59 310.766C1037.32 310.754 1039.47 312.289 1040.01 314.586H1043.84V309.898H1046.45V321.125H1043.84V316.742H1040.02C1039.51 319.098 1037.34 320.656 1034.59 320.656C1031.34 320.656 1028.98 318.629 1028.98 315.688ZM1031.47 315.688C1031.47 317.398 1032.76 318.523 1034.59 318.523C1036.37 318.523 1037.64 317.398 1037.66 315.688C1037.64 314.012 1036.37 312.91 1034.59 312.922C1032.76 312.91 1031.47 314.012 1031.47 315.688ZM1033.51 328.836H1036.3V326.516H1033.51V328.836ZM1054.34 322.602V324.617H1063.67V322.602H1066.27V330.828H1051.77V322.602H1054.34ZM1049.45 321.406V319.273H1068.76V321.406H1049.45ZM1050.43 316.109C1054.86 315.559 1057.75 313.285 1057.77 310.93V310.133H1060.44V310.93C1060.44 313.215 1063.34 315.594 1067.73 316.109L1066.81 318.172C1063.26 317.691 1060.46 316.109 1059.1 313.965C1057.73 316.121 1054.92 317.691 1051.39 318.172L1050.43 316.109ZM1054.34 328.766H1063.67V326.609H1054.34V328.766ZM1087.86 309.898V331.086H1085.28V309.898H1087.86ZM1071.41 325.766V311.961H1073.98V323.539C1076.95 323.492 1080.11 323.234 1083.38 322.578L1083.71 324.758C1079.98 325.531 1076.53 325.777 1073.23 325.766H1071.41ZM1107.52 309.898V317.938H1110.78V320.07H1107.52V331.109H1104.92V309.898H1107.52ZM1091.8 325.93V311.914H1101.71V314.023H1094.4V323.75C1097.69 323.738 1100.3 323.574 1103.21 323.07L1103.52 325.273C1100.22 325.836 1097.38 325.93 1093.55 325.93H1091.8ZM1114.25 329.188C1113.24 329.188 1112.41 328.367 1112.42 327.359C1112.41 326.375 1113.24 325.566 1114.25 325.555C1115.22 325.566 1116.05 326.375 1116.05 327.359C1116.05 328.367 1115.22 329.188 1114.25 329.188Z" fill="black"/>
<rect x="875.5" y="352.5" width="169" height="55" rx="4.5" fill="white" stroke="#9C9C9C"/>
<path d="M912.922 381.121V384.969H916.75V381.121H918.586V384.969H922.863V386.473H906.848V384.969H911.105V381.121H912.922ZM907.375 379.285C910.725 378.738 913.771 376.268 913.781 373.582V372.254H915.734V373.582C915.734 376.277 918.791 378.758 922.16 379.285L921.418 380.828C918.537 380.281 915.92 378.592 914.768 376.258C913.596 378.592 910.979 380.301 908.137 380.828L907.375 379.285ZM934.406 372.605V374.129H932.727V378.943C933.576 378.885 934.406 378.797 935.207 378.699L935.324 380.086C931.75 380.672 927.59 380.73 924.641 380.73L924.426 379.207C925.08 379.207 925.803 379.207 926.555 379.197V374.129H924.895V372.605H934.406ZM926.848 385.398C926.848 383.357 929.094 382.205 932.805 382.215C936.506 382.205 938.762 383.357 938.762 385.398C938.762 387.459 936.506 388.631 932.805 388.621C929.094 388.631 926.848 387.459 926.848 385.398ZM928.332 379.158C929.182 379.139 930.07 379.109 930.949 379.061V374.129H928.332V379.158ZM928.684 385.398C928.693 386.541 930.207 387.186 932.805 387.195C935.393 387.186 936.906 386.541 936.906 385.398C936.906 384.285 935.393 383.65 932.805 383.641C930.207 383.65 928.693 384.285 928.684 385.398ZM936.789 381.844V371.18H938.645V381.844H936.789ZM961.34 371.16V388.66H959.582V371.16H961.34ZM946.203 383.602C949.924 381.395 951.701 378.455 952.023 374.852H947.062V373.328H953.859C953.859 374.227 953.791 375.096 953.654 375.945H956.008V371.609H957.766V387.801H956.008V381.844H953.02V380.32H956.008V377.469H953.312C952.463 380.408 950.598 382.967 947.297 384.93L946.203 383.602ZM979.582 379.852V381.375H963.586V379.852H970.637V377.293H972.473V379.852H979.582ZM964.504 376.785C967.854 376.355 970.607 374.383 970.617 372.176V371.434H972.492V372.176C972.482 374.412 975.227 376.355 978.605 376.785L977.883 378.25C975.109 377.801 972.658 376.453 971.545 374.52C970.432 376.453 967.98 377.801 965.188 378.25L964.504 376.785ZM965.363 384.383V382.918H977.59V388.66H975.715V384.383H965.363ZM994.504 371.16V378.25H997.316V379.793H994.504V388.66H992.668V371.16H994.504ZM980.773 375.418V373.895H985.09V371.395H986.945V373.895H991.145V375.418H980.773ZM981.672 380.77C981.672 378.387 983.508 376.707 986.027 376.707C988.537 376.707 990.373 378.387 990.383 380.77C990.373 383.172 988.537 384.842 986.027 384.852C983.508 384.842 981.672 383.172 981.672 380.77ZM983.449 380.77C983.439 382.293 984.533 383.309 986.027 383.289C987.512 383.309 988.596 382.293 988.605 380.77C988.596 379.275 987.512 378.24 986.027 378.23C984.533 378.24 983.439 379.275 983.449 380.77ZM1012.71 371.16V388.66H1010.83V371.16H1012.71ZM998.332 383.973C1002.98 381.756 1005.26 378.602 1005.62 374.52H999.172V373.035H1007.49C1007.49 378.162 1005.31 382.596 999.309 385.477L998.332 383.973Z" fill="black"/>
<path d="M174.125 85.8594C174.113 88.5312 175.977 90.9688 179.164 91.9766L178.109 93.7109C175.719 92.9492 173.973 91.3672 173.047 89.375C172.133 91.6719 170.293 93.4883 167.773 94.3672L166.625 92.5859C169.906 91.5078 171.887 88.8008 171.898 85.8828V85.2969H167.281V83.4922H178.648V85.2969H174.125V85.8594ZM169.461 99.0078C169.461 96.5469 172.145 95.1055 176.516 95.1172C180.84 95.1055 183.477 96.5469 183.477 99.0078C183.477 101.504 180.84 102.957 176.516 102.945C172.145 102.957 169.461 101.504 169.461 99.0078ZM171.688 99.0078C171.676 100.414 173.48 101.199 176.516 101.188C179.527 101.199 181.309 100.414 181.297 99.0078C181.309 97.6367 179.527 96.8633 176.516 96.875C173.48 96.8633 171.676 97.6367 171.688 99.0078ZM181.062 94.6016V81.9922H183.289V87.1953H186.336V89.0234H183.289V94.6016H181.062ZM203.891 81.9922V90.125H207.266V92H203.891V102.992H201.664V81.9922H203.891ZM188.328 98V83.75H190.531V89.1406H196.086V83.75H198.289V98H188.328ZM190.531 96.1719H196.086V90.8984H190.531V96.1719ZM224.984 83.3047V85.1562C224.984 87.1484 224.984 89.3164 224.398 92.3047H227.422V94.1328H218.914V103.016H216.664V94.1328H208.273V92.3047H222.148C222.77 89.3047 222.77 87.1133 222.781 85.1562V85.1328H210.617V83.3047H224.984ZM246.453 81.9922V102.992H244.227V81.9922H246.453ZM230.305 97.6484V84.0312H232.508V95.7266C235.578 95.7148 238.801 95.4453 242.164 94.7656L242.469 96.6406C238.754 97.4023 235.379 97.6602 232.062 97.6484H230.305Z" fill="black"/>
<line x1="1754" y1="111.5" x2="166" y2="111.5" stroke="#333333"/>
</svg>
