<svg width="1920" height="800" viewBox="0 0 1920 800" fill="none" xmlns="http://www.w3.org/2000/svg">
<rect width="1920" height="800" fill="white"/>
<path d="M292.703 370.328V371.719H287.25V374.312H285.531V371.719H279.797V370.328H292.703ZM281.359 377.109V373.016H283.094V375.703H291.281V377.109H281.359ZM281.438 369.016V363.906H291.047V369.016H281.438ZM283.125 367.656H289.328V365.266H283.125V367.656ZM298.219 364.25C300.461 364.242 302.094 365.656 302.109 367.656C302.094 369.664 300.461 371.07 298.219 371.078C296 371.07 294.336 369.664 294.344 367.656C294.336 365.656 296 364.242 298.219 364.25ZM293.703 373.031C296.25 373.031 299.773 373 302.828 372.562L302.969 373.828C299.805 374.43 296.414 374.453 293.922 374.453L293.703 373.031ZM296.062 367.656C296.055 368.836 296.984 369.562 298.219 369.562C299.469 369.562 300.398 368.836 300.406 367.656C300.398 366.484 299.477 365.75 298.219 365.75C296.984 365.75 296.055 366.484 296.062 367.656ZM303.672 377.406V363.266H305.406V377.406H303.672ZM319.594 363.266V377.391H317.922V370.25H316.359V376.672H314.734V363.531H316.359V368.828H317.922V363.266H319.594ZM308.078 373.875V364.891H309.828V372.344C311.047 372.32 312.375 372.211 313.859 371.922L314.031 373.438C312.125 373.773 310.508 373.875 309.016 373.875H308.078ZM333.125 372.281V377.391H331.391V373.656H323.5V372.281H333.125ZM321.484 367.469C321.484 365.469 323.086 364.031 325.219 364.047C326.383 364.039 327.398 364.477 328.062 365.219H331.391V363.266H333.125V371.609H331.391V369.734H328.078C327.406 370.484 326.391 370.938 325.219 370.938C323.086 370.938 321.484 369.5 321.484 367.469ZM323.141 367.469C323.141 368.695 324.008 369.461 325.219 369.469C326.375 369.461 327.258 368.695 327.266 367.469C327.258 366.289 326.375 365.508 325.219 365.516C324.008 365.508 323.141 366.289 323.141 367.469ZM328.812 368.328H331.391V366.641H328.82C328.883 366.906 328.922 367.18 328.922 367.469C328.922 367.766 328.883 368.055 328.812 368.328Z" fill="black"/>
<path d="M282.43 390.102V400H281.186V391.387H281.131L278.725 392.986V391.742L281.186 390.102H282.43ZM285.916 400.082C285.438 400.075 285.027 399.679 285.041 399.193C285.027 398.715 285.438 398.318 285.916 398.318C286.401 398.318 286.798 398.715 286.791 399.193C286.798 399.679 286.401 400.075 285.916 400.082ZM285.041 393.697C285.027 393.219 285.438 392.822 285.916 392.822C286.401 392.822 286.798 393.219 286.791 393.697C286.798 394.183 286.401 394.579 285.916 394.586C285.438 394.579 285.027 394.183 285.041 393.697ZM292.123 390.102V400H290.879V391.387H290.824L288.418 392.986V391.742L290.879 390.102H292.123ZM305.439 395.174V396.062H300.49V398.551H299.424V396.062H294.311V395.174H305.439ZM295.732 400.848V397.348H296.812V399.945H304.195V400.848H295.732ZM295.76 393.779V389.555H303.99V393.779H295.76ZM296.812 392.918H302.924V390.402H296.812V392.918ZM310.402 389.842C312.31 389.849 313.663 391.011 313.67 392.699C313.663 394.395 312.31 395.55 310.402 395.557C308.481 395.55 307.114 394.395 307.121 392.699C307.114 391.011 308.481 389.849 310.402 389.842ZM306.492 397.539C308.734 397.546 311.831 397.525 314.518 397.129L314.6 397.922C311.817 398.441 308.83 398.455 306.643 398.455L306.492 397.539ZM308.174 392.699C308.167 393.834 309.104 394.613 310.402 394.613C311.688 394.613 312.624 393.834 312.617 392.699C312.624 391.571 311.688 390.785 310.402 390.785C309.104 390.785 308.167 391.571 308.174 392.699ZM315.324 401.135V388.953H316.391V401.135H315.324Z" fill="black"/>
<path d="M291.578 463.266V477.391H289.844V463.266H291.578ZM279.875 473.469C281 473.461 282.273 473.461 283.609 473.422V472.125C282.023 471.875 280.984 470.906 280.984 469.562C280.984 467.969 282.398 466.914 284.453 466.906C286.531 466.914 287.969 467.969 287.969 469.562C287.969 470.898 286.93 471.859 285.344 472.117V473.359C286.586 473.305 287.836 473.203 289.016 473.047L289.141 474.344C286.039 474.867 282.664 474.906 280.125 474.906L279.875 473.469ZM280.172 466.266V464.891H283.609V463.312H285.344V464.891H288.766V466.266H280.172ZM282.641 469.562C282.625 470.375 283.383 470.852 284.453 470.844C285.555 470.852 286.305 470.375 286.297 469.562C286.305 468.742 285.555 468.242 284.453 468.234C283.383 468.242 282.625 468.742 282.641 469.562ZM305.484 463.281V473.969H303.734V472.734H300.969V471.516H303.734V463.281H305.484ZM293.578 469.625C296.18 469.609 299.688 469.586 302.688 469.203L302.781 470.453C301.617 470.648 300.414 470.773 299.219 470.859V473.578H297.484V470.953C296.164 471.008 294.906 471.016 293.797 471.016L293.578 469.625ZM294.656 466.297C294.656 464.805 296.094 463.789 298.188 463.797C300.242 463.789 301.688 464.805 301.703 466.297C301.688 467.812 300.242 468.773 298.188 468.781C296.094 468.773 294.656 467.812 294.656 466.297ZM295.453 477.109V472.938H297.188V475.703H305.812V477.109H295.453ZM296.297 466.297C296.297 467.062 297.055 467.508 298.188 467.516C299.266 467.508 300.039 467.062 300.047 466.297C300.039 465.531 299.266 465.07 298.188 465.078C297.055 465.07 296.297 465.531 296.297 466.297ZM319.297 463.266V471.656H317.562V468.203H315.156V466.781H317.562V463.266H319.297ZM307.422 470.25C309.695 469.469 310.891 467.57 310.891 465.703V465.594H307.953V464.188H315.578V465.594H312.656V465.688C312.656 467.406 313.797 469.141 315.984 469.875L315.109 471.25C313.539 470.719 312.43 469.641 311.805 468.312C311.188 469.812 310.008 471.031 308.328 471.625L307.422 470.25ZM309.719 474.703C309.703 473.008 311.539 472.016 314.516 472.016C317.508 472.016 319.336 473.008 319.344 474.703C319.336 476.398 317.508 477.383 314.516 477.391C311.539 477.383 309.703 476.398 309.719 474.703ZM311.438 474.703C311.43 475.578 312.555 476.055 314.516 476.047C316.492 476.055 317.609 475.578 317.609 474.703C317.609 473.82 316.492 473.344 314.516 473.344C312.555 473.344 311.43 473.82 311.438 474.703ZM334.203 474.266V475.688H321.297V474.266H326.859V471.516H322.719V464.203H324.453V466.516H331V464.203H332.734V471.516H328.578V474.266H334.203ZM324.453 470.109H331V467.906H324.453V470.109Z" fill="black"/>
<path d="M288.459 488.953V501.107H287.393V488.953H288.459ZM278.561 497.867C279.6 497.86 280.789 497.854 282.02 497.812V496.486C280.557 496.336 279.613 495.502 279.627 494.285C279.613 492.911 280.782 492.022 282.539 492.029C284.296 492.022 285.485 492.911 285.479 494.285C285.485 495.488 284.542 496.322 283.1 496.486V497.771C284.275 497.717 285.465 497.635 286.586 497.484L286.668 498.305C283.954 498.742 280.98 498.783 278.725 498.783L278.561 497.867ZM278.82 491.332V490.457H282.02V488.967H283.1V490.457H286.271V491.332H278.82ZM280.625 494.285C280.618 495.126 281.411 495.68 282.539 495.666C283.674 495.68 284.46 495.126 284.453 494.285C284.46 493.438 283.674 492.863 282.539 492.863C281.411 492.863 280.618 493.438 280.625 494.285ZM300.613 488.967V498.195H299.533V496.938H297.018V496.158H299.533V488.967H300.613ZM290.523 494.6C292.786 494.586 295.835 494.565 298.439 494.244L298.508 495.023C297.428 495.194 296.286 495.304 295.172 495.372V497.771H294.092V495.427C292.861 495.475 291.692 495.475 290.674 495.475L290.523 494.6ZM291.508 491.578C291.501 490.3 292.718 489.459 294.516 489.459C296.3 489.459 297.517 490.3 297.523 491.578C297.517 492.877 296.3 493.684 294.516 493.684C292.718 493.684 291.501 492.877 291.508 491.578ZM292.273 500.848V497.293H293.354V499.945H300.914V500.848H292.273ZM292.533 491.578C292.52 492.371 293.326 492.884 294.516 492.891C295.671 492.884 296.491 492.371 296.498 491.578C296.491 490.799 295.671 490.266 294.516 490.279C293.326 490.266 292.52 490.799 292.533 491.578ZM312.768 488.953V496.199H311.688V493.014H309.24V492.125H311.688V488.953H312.768ZM302.746 495.229C304.551 494.579 305.836 492.932 305.836 491.195V490.744H303.088V489.842H309.637V490.744H306.916V491.182C306.916 492.768 308.133 494.278 309.91 494.887L309.35 495.748C307.989 495.256 306.93 494.23 306.403 492.979C305.884 494.401 304.756 495.536 303.307 496.09L302.746 495.229ZM304.66 498.838C304.653 497.409 306.205 496.575 308.734 496.582C311.257 496.575 312.809 497.409 312.809 498.838C312.809 500.273 311.257 501.094 308.734 501.107C306.205 501.094 304.653 500.273 304.66 498.838ZM305.727 498.838C305.72 499.72 306.868 500.253 308.734 500.246C310.594 500.253 311.742 499.72 311.742 498.838C311.742 497.949 310.594 497.416 308.734 497.416C306.868 497.416 305.72 497.949 305.727 498.838ZM325.92 498.66V499.549H314.791V498.66H319.795V496.035H316.104V489.814H317.184V492.016H323.5V489.814H324.553V496.035H320.848V498.66H325.92ZM317.184 495.16H323.5V492.891H317.184V495.16ZM332.988 490.088C332.995 491.804 335.224 493.28 337.418 493.588L336.98 494.463C335.094 494.148 333.221 493.103 332.441 491.612C331.662 493.116 329.796 494.148 327.902 494.463L327.465 493.588C329.659 493.28 331.881 491.831 331.881 490.088V489.391H332.988V490.088ZM326.891 496.705V495.803H337.965V496.705H332.934V501.107H331.881V496.705H326.891ZM349.066 488.953V496.199H347.986V493.014H345.539V492.125H347.986V488.953H349.066ZM339.045 495.229C340.85 494.579 342.135 492.932 342.135 491.195V490.744H339.387V489.842H345.936V490.744H343.215V491.182C343.215 492.768 344.432 494.278 346.209 494.887L345.648 495.748C344.288 495.256 343.229 494.23 342.702 492.979C342.183 494.401 341.055 495.536 339.605 496.09L339.045 495.229ZM340.959 498.838C340.952 497.409 342.504 496.575 345.033 496.582C347.556 496.575 349.107 497.409 349.107 498.838C349.107 500.273 347.556 501.094 345.033 501.107C342.504 501.094 340.952 500.273 340.959 498.838ZM342.025 498.838C342.019 499.72 343.167 500.253 345.033 500.246C346.893 500.253 348.041 499.72 348.041 498.838C348.041 497.949 346.893 497.416 345.033 497.416C343.167 497.416 342.019 497.949 342.025 498.838ZM279.969 512.115V515.082H282.607V512.115H283.605V520.072H278.943V512.115H279.969ZM279.969 519.184H282.607V515.957H279.969V519.184ZM285.15 522.492V511.213H286.176V515.779H287.871V510.953H288.91V523.107H287.871V516.668H286.176V522.492H285.15ZM296.648 515.205V516.996H301.666V517.871H290.592V516.996H295.596V515.205H296.648ZM291.262 514.986C293.408 514.692 295.582 513.339 295.582 511.719V511.145H296.662V511.719C296.662 513.339 298.85 514.692 300.996 514.986L300.559 515.848C298.72 515.526 296.888 514.549 296.129 513.147C295.363 514.562 293.538 515.526 291.672 515.848L291.262 514.986ZM291.932 520.988C291.925 519.642 293.49 518.89 296.129 518.883C298.74 518.89 300.299 519.642 300.312 520.988C300.299 522.342 298.74 523.08 296.129 523.08C293.49 523.08 291.925 522.342 291.932 520.988ZM293.025 520.988C293.012 521.788 294.16 522.253 296.129 522.246C298.077 522.253 299.226 521.788 299.232 520.988C299.226 520.182 298.077 519.73 296.129 519.73C294.16 519.73 293.012 520.182 293.025 520.988ZM307.039 514.686C307.046 516.75 308.543 518.849 310.334 519.621L309.732 520.469C308.311 519.826 307.087 518.425 306.52 516.743C305.952 518.527 304.722 520.072 303.334 520.77L302.691 519.922C304.435 519.088 305.952 516.791 305.959 514.686V513.1H303.088V512.211H309.938V513.1H307.039V514.686ZM311.633 523.107V510.953H312.713V523.107H311.633ZM325.045 511.896V512.539C325.038 513.339 325.038 514.549 324.73 516.135L323.65 516.053C323.944 514.604 323.972 513.571 323.985 512.799H318.988V511.896H325.045ZM318.236 517.27C319.022 517.27 319.911 517.263 320.848 517.235V514.59H321.914V517.201C323.261 517.146 324.655 517.051 325.92 516.873L325.988 517.666C323.438 518.104 320.513 518.151 318.346 518.158L318.236 517.27ZM320.109 522.848V519.279H321.189V521.945H328.23V522.848H320.109ZM326.74 520.1V510.953H327.834V514.918H329.611V515.834H327.834V520.1H326.74ZM340.439 510.953V523.135H339.373V510.953H340.439ZM331.088 512.977V512.088H336.748V516.408H332.209V519.279C334.226 519.286 336.023 519.19 338.197 518.842L338.307 519.744C336.071 520.093 334.226 520.182 332.127 520.182H331.115V515.533H335.668V512.977H331.088ZM288.459 532.953V545.107H287.393V532.953H288.459ZM278.561 541.867C279.6 541.86 280.789 541.854 282.02 541.812V540.486C280.557 540.336 279.613 539.502 279.627 538.285C279.613 536.911 280.782 536.022 282.539 536.029C284.296 536.022 285.485 536.911 285.479 538.285C285.485 539.488 284.542 540.322 283.1 540.486V541.771C284.275 541.717 285.465 541.635 286.586 541.484L286.668 542.305C283.954 542.742 280.98 542.783 278.725 542.783L278.561 541.867ZM278.82 535.332V534.457H282.02V532.967H283.1V534.457H286.271V535.332H278.82ZM280.625 538.285C280.618 539.126 281.411 539.68 282.539 539.666C283.674 539.68 284.46 539.126 284.453 538.285C284.46 537.438 283.674 536.863 282.539 536.863C281.411 536.863 280.618 537.438 280.625 538.285ZM300.613 532.967V542.195H299.533V540.938H297.018V540.158H299.533V532.967H300.613ZM290.523 538.6C292.786 538.586 295.835 538.565 298.439 538.244L298.508 539.023C297.428 539.194 296.286 539.304 295.172 539.372V541.771H294.092V539.427C292.861 539.475 291.692 539.475 290.674 539.475L290.523 538.6ZM291.508 535.578C291.501 534.3 292.718 533.459 294.516 533.459C296.3 533.459 297.517 534.3 297.523 535.578C297.517 536.877 296.3 537.684 294.516 537.684C292.718 537.684 291.501 536.877 291.508 535.578ZM292.273 544.848V541.293H293.354V543.945H300.914V544.848H292.273ZM292.533 535.578C292.52 536.371 293.326 536.884 294.516 536.891C295.671 536.884 296.491 536.371 296.498 535.578C296.491 534.799 295.671 534.266 294.516 534.279C293.326 534.266 292.52 534.799 292.533 535.578ZM308.857 533.568V534.443H304.332V535.756H308.625V536.59H304.332V537.998C306.752 537.998 308.071 537.95 309.691 537.684L309.801 538.545C308.105 538.825 306.725 538.873 304.182 538.873H303.266V533.568H308.857ZM304.441 540.76V539.898H312.193V542.756H305.521V544.109H312.645V544.971H304.469V541.936H311.127V540.76H304.441ZM311.127 539.311V532.953H312.193V535.619H314.025V536.508H312.193V539.311H311.127ZM322.16 538.818V539.693H319.412V541.662C320.581 541.607 321.771 541.512 322.885 541.348L322.967 542.141C320.185 542.646 317.197 542.646 315.01 542.66L314.859 541.758C315.878 541.751 317.081 541.744 318.346 541.703V539.693H315.789V534.061H322.105V534.936H316.869V536.426H321.846V537.273H316.869V538.818H322.16ZM323.691 545.135V532.953H324.758V545.135H323.691Z" fill="black"/>
<path d="M288.5 607.992V609.182C288.486 610.72 288.486 612.436 288.008 615.02L286.477 614.855C286.962 612.449 286.962 610.692 286.969 609.209H279.586V607.992H288.5ZM278.41 617.617V616.373H282.566V612.08H284.07V616.373H289.676V617.617H278.41ZM301.078 606.871V614.117H299.629V611.041H298.33V614.062H296.895V607.104H298.33V609.797H299.629V606.871H301.078ZM290.441 613.092C292.854 612.169 294.105 610.768 294.352 608.963H291.002V607.732H295.896C295.903 610.795 294.358 612.928 291.166 614.227L290.441 613.092ZM292.561 615.854V614.623H301.078V619.217H299.561V615.854H292.561ZM313.178 606.857V616.113H311.729V606.857H313.178ZM302.527 613.297C304.175 612.497 304.947 610.856 304.947 609.387V607.705H306.424V609.387C306.424 610.829 307.135 612.265 308.707 612.969L307.859 614.145C306.82 613.659 306.109 612.825 305.699 611.82C305.262 612.955 304.489 613.919 303.361 614.445L302.527 613.297ZM304.906 618.971V615.006H306.424V617.74H313.52V618.971H304.906ZM307.6 611.041V609.797H309.254V607.076H310.703V615.744H309.254V611.041H307.6ZM325.072 606.857V619.23H323.568V612.559H321.244V611.328H323.568V606.857H325.072ZM315.27 616.387V607.924H321.053V609.168H316.801V611.383H320.561V612.586H316.801V615.129C318.681 615.122 320.089 615.054 321.682 614.801L321.832 616.031C320.034 616.305 318.448 616.373 316.24 616.387H315.27ZM283.748 640.176C280.681 640.176 278.853 637.803 278.861 633.637C278.853 629.488 280.698 627.098 283.748 627.098C286.798 627.098 288.635 629.488 288.635 633.637C288.635 637.812 286.807 640.176 283.748 640.176ZM281.164 633.637C281.164 636.695 282.148 638.251 283.748 638.26C285.339 638.251 286.332 636.695 286.332 633.637C286.323 630.604 285.339 629.005 283.748 628.996C282.157 629.005 281.173 630.604 281.164 633.637ZM295.068 640.176C292.528 640.176 290.656 638.655 290.586 636.555H292.818C292.889 637.583 293.864 638.321 295.068 638.33C296.492 638.321 297.521 637.293 297.512 635.887C297.521 634.428 296.466 633.399 294.998 633.391C294.005 633.382 293.284 633.733 292.889 634.48H290.762L291.535 627.273H299.059V629.189H293.416L293.029 632.564H293.152C293.645 632.011 294.567 631.606 295.613 631.598C297.978 631.606 299.735 633.364 299.727 635.816C299.735 638.356 297.819 640.176 295.068 640.176ZM306.828 627.273V640H304.525V629.506H304.455L301.484 631.404V629.312L304.631 627.273H306.828ZM315.723 632.723V634.568H309.992V632.723H315.723ZM322.596 640.176C319.528 640.176 317.7 637.803 317.709 633.637C317.7 629.488 319.546 627.098 322.596 627.098C325.646 627.098 327.482 629.488 327.482 633.637C327.482 637.812 325.654 640.176 322.596 640.176ZM320.012 633.637C320.012 636.695 320.996 638.251 322.596 638.26C324.187 638.251 325.18 636.695 325.18 633.637C325.171 630.604 324.187 629.005 322.596 628.996C321.005 629.005 320.021 630.604 320.012 633.637ZM334.092 640.176C331.024 640.176 329.196 637.803 329.205 633.637C329.196 629.488 331.042 627.098 334.092 627.098C337.142 627.098 338.979 629.488 338.979 633.637C338.979 637.812 337.15 640.176 334.092 640.176ZM331.508 633.637C331.508 636.695 332.492 638.251 334.092 638.26C335.683 638.251 336.676 636.695 336.676 633.637C336.667 630.604 335.683 629.005 334.092 628.996C332.501 629.005 331.517 630.604 331.508 633.637ZM345.588 640.176C342.521 640.176 340.692 637.803 340.701 633.637C340.692 629.488 342.538 627.098 345.588 627.098C348.638 627.098 350.475 629.488 350.475 633.637C350.475 637.812 348.646 640.176 345.588 640.176ZM343.004 633.637C343.004 636.695 343.988 638.251 345.588 638.26C347.179 638.251 348.172 636.695 348.172 633.637C348.163 630.604 347.179 629.005 345.588 628.996C343.997 629.005 343.013 630.604 343.004 633.637ZM358.191 632.723V634.568H352.461V632.723H358.191ZM365.064 640.176C361.997 640.176 360.169 637.803 360.178 633.637C360.169 629.488 362.015 627.098 365.064 627.098C368.114 627.098 369.951 629.488 369.951 633.637C369.951 637.812 368.123 640.176 365.064 640.176ZM362.48 633.637C362.48 636.695 363.465 638.251 365.064 638.26C366.655 638.251 367.648 636.695 367.648 633.637C367.64 630.604 366.655 629.005 365.064 628.996C363.474 629.005 362.489 630.604 362.48 633.637ZM376.561 640.176C373.493 640.176 371.665 637.803 371.674 633.637C371.665 629.488 373.511 627.098 376.561 627.098C379.61 627.098 381.447 629.488 381.447 633.637C381.447 637.812 379.619 640.176 376.561 640.176ZM373.977 633.637C373.977 636.695 374.961 638.251 376.561 638.26C378.151 638.251 379.145 636.695 379.145 633.637C379.136 630.604 378.151 629.005 376.561 628.996C374.97 629.005 373.985 630.604 373.977 633.637ZM388.057 640.176C384.989 640.176 383.161 637.803 383.17 633.637C383.161 629.488 385.007 627.098 388.057 627.098C391.106 627.098 392.943 629.488 392.943 633.637C392.943 637.812 391.115 640.176 388.057 640.176ZM385.473 633.637C385.473 636.695 386.457 638.251 388.057 638.26C389.647 638.251 390.641 636.695 390.641 633.637C390.632 630.604 389.647 629.005 388.057 628.996C386.466 629.005 385.481 630.604 385.473 633.637ZM399.553 640.176C396.485 640.176 394.657 637.803 394.666 633.637C394.657 629.488 396.503 627.098 399.553 627.098C402.603 627.098 404.439 629.488 404.439 633.637C404.439 637.812 402.611 640.176 399.553 640.176ZM396.969 633.637C396.969 636.695 397.953 638.251 399.553 638.26C401.144 638.251 402.137 636.695 402.137 633.637C402.128 630.604 401.144 629.005 399.553 628.996C397.962 629.005 396.978 630.604 396.969 633.637Z" fill="black"/>
<path d="M285.314 654.883V655.771H284.07V659.661C284.631 659.62 285.185 659.572 285.711 659.504L285.766 660.324C283.394 660.687 280.632 660.728 278.656 660.721L278.52 659.818C279.005 659.818 279.531 659.818 280.092 659.812V655.771H278.861V654.883H285.314ZM280.461 663.893C280.454 662.505 281.992 661.712 284.535 661.719C287.078 661.712 288.609 662.505 288.609 663.893C288.609 665.28 287.078 666.08 284.535 666.08C281.992 666.08 280.454 665.28 280.461 663.893ZM281.131 659.791C281.753 659.777 282.396 659.757 283.031 659.723V655.771H281.131V659.791ZM281.527 663.893C281.521 664.74 282.662 665.232 284.535 665.232C286.401 665.232 287.543 664.74 287.543 663.893C287.543 663.059 286.401 662.553 284.535 662.553C282.662 662.553 281.521 663.059 281.527 663.893ZM285.438 659.203V658.314H287.488V657.029H285.438V656.141H287.488V653.953H288.568V661.459H287.488V659.203H285.438ZM294.037 654.404C295.855 654.411 297.175 655.519 297.182 657.098C297.175 658.684 295.855 659.777 294.037 659.777C292.198 659.777 290.872 658.684 290.879 657.098C290.872 655.519 292.198 654.411 294.037 654.404ZM291.932 657.098C291.918 658.164 292.813 658.902 294.037 658.902C295.24 658.902 296.143 658.164 296.143 657.098C296.143 656.045 295.24 655.3 294.037 655.307C292.813 655.3 291.918 656.045 291.932 657.098ZM292.725 661.65V660.789H300.627V663.715H293.805V665.082H301.064V665.943H292.752V662.908H299.561V661.65H292.725ZM299.561 660.201V653.953H300.627V660.201H299.561ZM309.883 665.137C307.688 665.137 306.417 663.291 306.424 660.051C306.417 656.838 307.702 654.965 309.883 654.965C312.057 654.965 313.342 656.838 313.342 660.051C313.342 663.291 312.077 665.137 309.883 665.137ZM307.613 660.051C307.62 662.614 308.447 664.043 309.883 664.043C311.312 664.043 312.146 662.614 312.139 660.051C312.146 657.487 311.305 656.038 309.883 656.031C308.461 656.038 307.62 657.487 307.613 660.051ZM318.277 654.965C319.979 654.985 321.873 656.011 321.873 659.654C321.873 663.175 320.431 665.137 318.113 665.137C316.37 665.137 315.146 664.07 314.9 662.498H316.117C316.336 663.387 317.013 664.043 318.113 664.043C319.727 664.043 320.711 662.648 320.725 660.242H320.588C320.021 661.062 319.111 661.555 318.059 661.555C316.288 661.555 314.818 660.194 314.818 658.287C314.818 656.441 316.172 654.944 318.277 654.965ZM316.021 658.273C316.015 659.497 316.944 660.475 318.236 660.475C319.528 660.475 320.533 659.408 320.533 658.246C320.533 657.111 319.583 656.045 318.277 656.045C316.985 656.045 316.008 657.05 316.021 658.273ZM324.416 665.082C323.938 665.075 323.527 664.679 323.541 664.193C323.527 663.715 323.938 663.318 324.416 663.318C324.901 663.318 325.298 663.715 325.291 664.193C325.298 664.679 324.901 665.075 324.416 665.082ZM323.541 658.697C323.527 658.219 323.938 657.822 324.416 657.822C324.901 657.822 325.298 658.219 325.291 658.697C325.298 659.183 324.901 659.579 324.416 659.586C323.938 659.579 323.527 659.183 323.541 658.697ZM330.363 665.137C328.169 665.137 326.897 663.291 326.904 660.051C326.897 656.838 328.183 654.965 330.363 654.965C332.537 654.965 333.822 656.838 333.822 660.051C333.822 663.291 332.558 665.137 330.363 665.137ZM328.094 660.051C328.101 662.614 328.928 664.043 330.363 664.043C331.792 664.043 332.626 662.614 332.619 660.051C332.626 657.487 331.785 656.038 330.363 656.031C328.941 656.038 328.101 657.487 328.094 660.051ZM338.703 665.137C336.509 665.137 335.237 663.291 335.244 660.051C335.237 656.838 336.522 654.965 338.703 654.965C340.877 654.965 342.162 656.838 342.162 660.051C342.162 663.291 340.897 665.137 338.703 665.137ZM336.434 660.051C336.44 662.614 337.268 664.043 338.703 664.043C340.132 664.043 340.966 662.614 340.959 660.051C340.966 657.487 340.125 656.038 338.703 656.031C337.281 656.038 336.44 657.487 336.434 660.051ZM347.713 660.939C348.157 660.427 348.697 660.167 349.299 660.16C350.338 660.167 351.281 660.946 352.279 660.953C352.895 660.946 353.428 660.659 353.838 660.092V661.227C353.387 661.739 352.854 662.006 352.252 662.006C351.213 662.006 350.263 661.22 349.258 661.213C348.656 661.22 348.13 661.507 347.713 662.074V660.939ZM363.107 655.102V665H361.863V656.387H361.809L359.402 657.986V656.742L361.863 655.102H363.107ZM369.055 665.137C366.97 665.137 365.534 663.981 365.541 662.375C365.534 661.097 366.423 660.037 367.551 659.859V659.805C366.566 659.579 365.917 658.67 365.924 657.59C365.917 656.079 367.243 654.965 369.055 654.965C370.859 654.965 372.186 656.079 372.199 657.59C372.186 658.67 371.529 659.579 370.559 659.805V659.859C371.68 660.037 372.568 661.097 372.582 662.375C372.568 663.981 371.119 665.137 369.055 665.137ZM366.771 662.307C366.751 663.346 367.633 664.05 369.055 664.057C370.47 664.05 371.352 663.346 371.352 662.307C371.352 661.213 370.388 660.406 369.055 660.406C367.729 660.406 366.751 661.213 366.771 662.307ZM367.113 657.686C367.12 658.684 367.92 659.36 369.055 659.367C370.183 659.36 370.996 658.684 370.996 657.686C370.996 656.694 370.21 656.024 369.055 656.031C367.879 656.024 367.12 656.694 367.113 657.686ZM375.084 665.082C374.605 665.075 374.195 664.679 374.209 664.193C374.195 663.715 374.605 663.318 375.084 663.318C375.569 663.318 375.966 663.715 375.959 664.193C375.966 664.679 375.569 665.075 375.084 665.082ZM374.209 658.697C374.195 658.219 374.605 657.822 375.084 657.822C375.569 657.822 375.966 658.219 375.959 658.697C375.966 659.183 375.569 659.579 375.084 659.586C374.605 659.579 374.195 659.183 374.209 658.697ZM381.031 665.137C378.837 665.137 377.565 663.291 377.572 660.051C377.565 656.838 378.851 654.965 381.031 654.965C383.205 654.965 384.49 656.838 384.49 660.051C384.49 663.291 383.226 665.137 381.031 665.137ZM378.762 660.051C378.769 662.614 379.596 664.043 381.031 664.043C382.46 664.043 383.294 662.614 383.287 660.051C383.294 657.487 382.453 656.038 381.031 656.031C379.609 656.038 378.769 657.487 378.762 660.051ZM389.371 665.137C387.177 665.137 385.905 663.291 385.912 660.051C385.905 656.838 387.19 654.965 389.371 654.965C391.545 654.965 392.83 656.838 392.83 660.051C392.83 663.291 391.565 665.137 389.371 665.137ZM387.102 660.051C387.108 662.614 387.936 664.043 389.371 664.043C390.8 664.043 391.634 662.614 391.627 660.051C391.634 657.487 390.793 656.038 389.371 656.031C387.949 656.038 387.108 657.487 387.102 660.051ZM288.568 671.953V679.076H287.488V675.904H285.027V675.002H287.488V671.953H288.568ZM278.547 678.105C280.338 677.47 281.637 675.843 281.637 674.113V673.635H278.889V672.746H285.438V673.635H282.717V674.113C282.717 675.679 283.934 677.196 285.711 677.832L285.15 678.68C283.783 678.181 282.724 677.162 282.197 675.904C281.671 677.312 280.55 678.427 279.107 678.953L278.547 678.105ZM280.625 683.943V679.678H288.568V683.943H280.625ZM281.691 683.068H287.516V680.539H281.691V683.068ZM300.627 671.967V678.871H299.561V671.967H300.627ZM290.688 677.709C292.526 677.066 293.805 675.419 293.805 673.635V672.445H294.898V673.635C294.885 675.351 296.197 676.868 297.988 677.504L297.441 678.324C296.033 677.839 294.905 676.813 294.358 675.487C293.818 676.896 292.684 678.017 291.234 678.557L290.688 677.709ZM292.725 683.943V679.568H300.627V683.943H292.725ZM293.777 683.068H299.574V680.443H293.777V683.068ZM307.012 675.221C307.005 677.442 308.516 679.671 310.307 680.484L309.65 681.332C308.263 680.662 307.066 679.22 306.485 677.49C305.925 679.322 304.729 680.86 303.307 681.578L302.623 680.676C304.435 679.849 305.932 677.524 305.945 675.221V673.006H307.012V675.221ZM311.633 684.135V671.953H312.713V684.135H311.633ZM324.293 671.953V675.658H326.125V676.561H324.293V680.854H323.213V671.953H324.293ZM314.805 678.584C317.724 677.675 319.617 675.945 319.843 673.799H315.311V672.896H321.012C321.012 676.027 318.776 678.352 315.27 679.445L314.805 678.584ZM316.678 683.848V679.951H317.744V682.945H324.854V683.848H316.678ZM334.342 673.102V683H333.098V674.387H333.043L330.637 675.986V674.742L333.098 673.102H334.342ZM336.98 683L336.967 682.098L340.344 678.543C341.513 677.299 342.073 676.629 342.08 675.713C342.073 674.694 341.226 674.038 340.111 674.031C338.929 674.038 338.19 674.783 338.184 675.891H337.021C337.008 674.141 338.361 672.965 340.152 672.965C341.95 672.965 343.222 674.175 343.229 675.713C343.222 676.82 342.709 677.682 340.959 679.486L338.689 681.824V681.906H343.406V683H336.98ZM346.045 683.082C345.566 683.075 345.156 682.679 345.17 682.193C345.156 681.715 345.566 681.318 346.045 681.318C346.53 681.318 346.927 681.715 346.92 682.193C346.927 682.679 346.53 683.075 346.045 683.082ZM345.17 676.697C345.156 676.219 345.566 675.822 346.045 675.822C346.53 675.822 346.927 676.219 346.92 676.697C346.927 677.183 346.53 677.579 346.045 677.586C345.566 677.579 345.156 677.183 345.17 676.697ZM351.992 683.137C349.798 683.137 348.526 681.291 348.533 678.051C348.526 674.838 349.812 672.965 351.992 672.965C354.166 672.965 355.451 674.838 355.451 678.051C355.451 681.291 354.187 683.137 351.992 683.137ZM349.723 678.051C349.729 680.614 350.557 682.043 351.992 682.043C353.421 682.043 354.255 680.614 354.248 678.051C354.255 675.487 353.414 674.038 351.992 674.031C350.57 674.038 349.729 675.487 349.723 678.051ZM360.332 683.137C358.138 683.137 356.866 681.291 356.873 678.051C356.866 674.838 358.151 672.965 360.332 672.965C362.506 672.965 363.791 674.838 363.791 678.051C363.791 681.291 362.526 683.137 360.332 683.137ZM358.062 678.051C358.069 680.614 358.896 682.043 360.332 682.043C361.761 682.043 362.595 680.614 362.588 678.051C362.595 675.487 361.754 674.038 360.332 674.031C358.91 674.038 358.069 675.487 358.062 678.051ZM369.342 678.939C369.786 678.427 370.326 678.167 370.928 678.16C371.967 678.167 372.91 678.946 373.908 678.953C374.523 678.946 375.057 678.659 375.467 678.092V679.227C375.016 679.739 374.482 680.006 373.881 680.006C372.842 680.006 371.892 679.22 370.887 679.213C370.285 679.22 369.759 679.507 369.342 680.074V678.939ZM384.736 673.102V683H383.492V674.387H383.438L381.031 675.986V674.742L383.492 673.102H384.736ZM390.793 683.137C388.824 683.137 387.409 682.084 387.348 680.512H388.592C388.66 681.455 389.597 682.043 390.779 682.043C392.085 682.043 393.028 681.339 393.035 680.307C393.028 679.227 392.167 678.468 390.629 678.461H389.822V677.381H390.629C391.832 677.381 392.673 676.704 392.666 675.686C392.673 674.694 391.948 674.038 390.82 674.031C389.761 674.038 388.797 674.619 388.742 675.59H387.553C387.614 674.018 389.077 672.965 390.834 672.965C392.721 672.965 393.869 674.202 393.855 675.617C393.869 676.745 393.213 677.565 392.174 677.859V677.928C393.466 678.126 394.245 679.049 394.238 680.307C394.245 681.934 392.769 683.137 390.793 683.137ZM396.863 683.082C396.385 683.075 395.975 682.679 395.988 682.193C395.975 681.715 396.385 681.318 396.863 681.318C397.349 681.318 397.745 681.715 397.738 682.193C397.745 682.679 397.349 683.075 396.863 683.082ZM395.988 676.697C395.975 676.219 396.385 675.822 396.863 675.822C397.349 675.822 397.745 676.219 397.738 676.697C397.745 677.183 397.349 677.579 396.863 677.586C396.385 677.579 395.975 677.183 395.988 676.697ZM402.811 683.137C400.616 683.137 399.345 681.291 399.352 678.051C399.345 674.838 400.63 672.965 402.811 672.965C404.984 672.965 406.27 674.838 406.27 678.051C406.27 681.291 405.005 683.137 402.811 683.137ZM400.541 678.051C400.548 680.614 401.375 682.043 402.811 682.043C404.239 682.043 405.073 680.614 405.066 678.051C405.073 675.487 404.232 674.038 402.811 674.031C401.389 674.038 400.548 675.487 400.541 678.051ZM411.15 683.137C408.956 683.137 407.685 681.291 407.691 678.051C407.685 674.838 408.97 672.965 411.15 672.965C413.324 672.965 414.609 674.838 414.609 678.051C414.609 681.291 413.345 683.137 411.15 683.137ZM408.881 678.051C408.888 680.614 409.715 682.043 411.15 682.043C412.579 682.043 413.413 680.614 413.406 678.051C413.413 675.487 412.572 674.038 411.15 674.031C409.729 674.038 408.888 675.487 408.881 678.051Z" fill="black"/>
<path d="M284.631 691.676C284.624 693.303 286.791 694.684 288.91 694.998L288.514 695.846C286.62 695.524 284.768 694.513 284.029 693.05C283.291 694.513 281.438 695.524 279.572 695.846L279.148 694.998C281.261 694.684 283.421 693.303 283.428 691.676V691.594H279.531V690.719H288.514V691.594H284.631V691.676ZM278.492 697.773V696.885H289.566V697.773H284.535V702.107H283.482V697.773H278.492ZM300.094 689.953V692.592H301.926V693.494H300.094V696.146H299.027V689.953H300.094ZM291.111 695.504V690.65H296.73V695.504H291.111ZM292.164 694.643H295.691V691.525H292.164V694.643ZM292.342 697.582V696.721H300.094V699.688H293.422V701.082H300.545V701.943H292.369V698.867H299.027V697.582H292.342ZM304.688 700.084L303.621 703.803H302.609L303.361 700.084H304.688ZM315.283 697.637C317.888 697.637 319.542 698.457 319.549 699.865C319.542 701.26 317.888 702.08 315.283 702.08C312.679 702.08 311.024 701.26 311.031 699.865C311.024 698.457 312.679 697.637 315.283 697.637ZM309.801 696.502V695.627H314.381V693.275H315.434V695.627H320.861V696.502H309.801ZM311.113 691.457V690.582H319.453V691.607C319.446 692.592 319.446 693.576 319.111 694.834L318.059 694.711C318.387 693.46 318.387 692.558 318.387 691.607V691.457H311.113ZM312.098 699.865C312.091 700.713 313.349 701.232 315.283 701.232C317.225 701.232 318.469 700.713 318.482 699.865C318.469 698.997 317.225 698.464 315.283 698.457C313.349 698.464 312.091 698.997 312.098 699.865ZM332.318 691.307V692.182H322.461V691.307H326.891V689.885H327.943V691.307H332.318ZM321.887 698.607V697.719H333.016V698.607H330.076V702.135H329.01V698.607H325.865V702.135H324.785V698.607H321.887ZM323.459 694.889C323.445 693.597 324.936 692.879 327.424 692.879C329.892 692.879 331.382 693.597 331.389 694.889C331.382 696.174 329.892 696.898 327.424 696.898C324.936 696.898 323.445 696.174 323.459 694.889ZM324.566 694.889C324.553 695.634 325.612 696.071 327.424 696.064C329.215 696.071 330.268 695.634 330.281 694.889C330.268 694.137 329.215 693.713 327.424 693.699C325.612 693.713 324.553 694.137 324.566 694.889ZM337.432 690.404C339.25 690.411 340.569 691.519 340.576 693.098C340.569 694.684 339.25 695.777 337.432 695.777C335.593 695.777 334.267 694.684 334.273 693.098C334.267 691.519 335.593 690.411 337.432 690.404ZM335.326 693.098C335.312 694.164 336.208 694.902 337.432 694.902C338.635 694.902 339.537 694.164 339.537 693.098C339.537 692.045 338.635 691.3 337.432 691.307C336.208 691.3 335.312 692.045 335.326 693.098ZM336.119 697.65V696.789H344.021V699.715H337.199V701.082H344.459V701.943H336.146V698.908H342.955V697.65H336.119ZM342.955 696.201V689.953H344.021V696.201H342.955ZM360.031 691.307V692.182H350.174V691.307H354.604V689.885H355.656V691.307H360.031ZM349.6 698.607V697.719H360.729V698.607H357.789V702.135H356.723V698.607H353.578V702.135H352.498V698.607H349.6ZM351.172 694.889C351.158 693.597 352.648 692.879 355.137 692.879C357.604 692.879 359.095 693.597 359.102 694.889C359.095 696.174 357.604 696.898 355.137 696.898C352.648 696.898 351.158 696.174 351.172 694.889ZM352.279 694.889C352.266 695.634 353.325 696.071 355.137 696.064C356.928 696.071 357.98 695.634 357.994 694.889C357.98 694.137 356.928 693.713 355.137 693.699C353.325 693.713 352.266 694.137 352.279 694.889ZM372.814 697.021V697.91H367.742V702.107H366.689V697.91H361.686V697.021H372.814ZM363.121 695.367V690.637H371.365V695.367H363.121ZM364.174 694.52H370.299V691.512H364.174V694.52Z" fill="#E80303"/>
<path d="M292.688 249.141V250.547H287.078V255.375H285.359V250.547H279.812V249.141H292.688ZM280.484 246.828C283.258 246.477 285.117 244.984 285.242 243.438H281V242.062H291.5V243.438H287.258C287.375 244.984 289.219 246.477 292.016 246.828L291.391 248.188C288.984 247.844 287.109 246.742 286.25 245.219C285.383 246.742 283.523 247.844 281.141 248.188L280.484 246.828ZM306.531 248.328V249.719H301.078V252.312H299.359V249.719H293.625V248.328H306.531ZM295.188 255.109V251.016H296.922V253.703H305.109V255.109H295.188ZM295.266 247.016V241.906H304.875V247.016H295.266ZM296.953 245.656H303.156V243.266H296.953V245.656ZM319.594 241.266V255.391H317.922V248.25H316.359V254.672H314.734V241.531H316.359V246.828H317.922V241.266H319.594ZM308.078 251.875V242.891H309.828V250.344C311.047 250.32 312.375 250.211 313.859 249.922L314.031 251.438C312.125 251.773 310.508 251.875 309.016 251.875H308.078ZM333.125 250.281V255.391H331.391V251.656H323.5V250.281H333.125ZM321.484 245.469C321.484 243.469 323.086 242.031 325.219 242.047C326.383 242.039 327.398 242.477 328.062 243.219H331.391V241.266H333.125V249.609H331.391V247.734H328.078C327.406 248.484 326.391 248.938 325.219 248.938C323.086 248.938 321.484 247.5 321.484 245.469ZM323.141 245.469C323.141 246.695 324.008 247.461 325.219 247.469C326.375 247.461 327.258 246.695 327.266 245.469C327.258 244.289 326.375 243.508 325.219 243.516C324.008 243.508 323.141 244.289 323.141 245.469ZM328.812 246.328H331.391V244.641H328.82C328.883 244.906 328.922 245.18 328.922 245.469C328.922 245.766 328.883 246.055 328.812 246.328Z" fill="black"/>
<path d="M284.631 268.676C284.624 270.303 286.791 271.684 288.91 271.998L288.514 272.846C286.62 272.524 284.768 271.513 284.029 270.05C283.291 271.513 281.438 272.524 279.572 272.846L279.148 271.998C281.261 271.684 283.421 270.303 283.428 268.676V268.594H279.531V267.719H288.514V268.594H284.631V268.676ZM278.492 274.773V273.885H289.566V274.773H284.535V279.107H283.482V274.773H278.492ZM301.707 273.174V274.062H296.758V276.551H295.691V274.062H290.578V273.174H301.707ZM292 278.848V275.348H293.08V277.945H300.463V278.848H292ZM292.027 271.779V267.555H300.258V271.779H292.027ZM293.08 270.918H299.191V268.402H293.08V270.918ZM313.82 276.646V277.549H302.691V276.646H307.709V273.693H308.789V276.646H313.82ZM303.238 273.256C305.296 272.907 307.682 271.205 307.682 269.264V268.963H303.607V268.061H312.863V268.963H308.789V269.264C308.796 271.205 311.188 272.873 313.287 273.215L312.85 274.062C310.99 273.693 309.028 272.511 308.249 270.829C307.47 272.531 305.515 273.741 303.689 274.117L303.238 273.256ZM324.758 266.953V279.107H323.691V266.953H324.758ZM314.859 275.867C315.898 275.86 317.088 275.854 318.318 275.812V274.486C316.855 274.336 315.912 273.502 315.926 272.285C315.912 270.911 317.081 270.022 318.838 270.029C320.595 270.022 321.784 270.911 321.777 272.285C321.784 273.488 320.841 274.322 319.398 274.486V275.771C320.574 275.717 321.764 275.635 322.885 275.484L322.967 276.305C320.253 276.742 317.279 276.783 315.023 276.783L314.859 275.867ZM315.119 269.332V268.457H318.318V266.967H319.398V268.457H322.57V269.332H315.119ZM316.924 272.285C316.917 273.126 317.71 273.68 318.838 273.666C319.973 273.68 320.759 273.126 320.752 272.285C320.759 271.438 319.973 270.863 318.838 270.863C317.71 270.863 316.917 271.438 316.924 272.285ZM283.072 291.25C283.079 292.48 284.282 293.52 286.012 293.902L285.574 294.764C284.173 294.415 283.093 293.677 282.56 292.692C282.04 293.759 280.946 294.572 279.504 294.928L279.039 294.066C280.796 293.677 282.006 292.549 282.006 291.25V291.195H279.299V290.348H282.006V288.994H283.072V290.348H285.779V291.195H283.072V291.25ZM278.465 295.789C280.796 295.782 283.879 295.769 286.572 295.42L286.641 296.199C285.479 296.391 284.275 296.507 283.1 296.582V300.752H282.033V296.637C280.803 296.685 279.634 296.691 278.615 296.691L278.465 295.789ZM287.461 301.121V288.967H288.514V301.121H287.461ZM301.721 298.633V299.521H290.592V298.633H295.568V295.652H296.621V298.633H301.721ZM291.029 294.9C293.155 294.538 295.521 292.761 295.527 290.717V289.787H296.648V290.717C296.655 292.747 299.055 294.538 301.174 294.9L300.695 295.789C298.843 295.406 296.888 294.155 296.102 292.405C295.302 294.148 293.367 295.406 291.508 295.789L291.029 294.9ZM306.67 289.637L303.471 301.49H302.404L305.59 289.637H306.67ZM317.129 290.184V291.537C317.122 293.096 317.122 294.661 316.691 296.924L315.639 296.801C316.069 294.654 316.069 293.055 316.076 291.537V291.072H308.529V290.184H317.129ZM307.367 299.385V298.496H310.115V294.49H311.182V298.496H313.15V294.49H314.203V298.496H318.441V299.385H307.367ZM328.955 288.953V293.219H330.773V294.121H328.955V298.469H327.875V288.953H328.955ZM319.412 296.186C320.376 296.186 321.518 296.172 322.707 296.131V295.201C321.292 295.071 320.376 294.395 320.383 293.369C320.376 292.2 321.518 291.489 323.227 291.496C324.949 291.489 326.07 292.2 326.084 293.369C326.07 294.388 325.182 295.064 323.773 295.201V296.083C324.908 296.015 326.063 295.912 327.123 295.748L327.219 296.514C324.614 297.006 321.661 297.04 319.535 297.061L319.412 296.186ZM319.713 290.963V290.156H322.707V288.926H323.773V290.156H326.754V290.963H319.713ZM321.23 300.848V297.826H322.311V299.945H329.393V300.848H321.23ZM321.408 293.369C321.401 294.032 322.105 294.463 323.227 294.463C324.348 294.463 325.059 294.032 325.059 293.369C325.059 292.679 324.348 292.255 323.227 292.262C322.105 292.255 321.401 292.679 321.408 293.369ZM335.545 289.637L332.346 301.49H331.279L334.465 289.637H335.545ZM345.744 288.967V292.645H347.576V293.547H345.744V297.895H344.678V288.967H345.744ZM336.762 295.844V289.842H337.814V291.893H341.355V289.842H342.422V295.844H336.762ZM337.814 294.969H341.355V292.74H337.814V294.969ZM338.143 300.848V297.02H339.195V299.945H346.305V300.848H338.143ZM359.416 294.832V295.721H354.398V297.156H358.062V300.943H349.695V297.156H353.346V295.721H348.342V294.832H359.416ZM349.381 290.238V289.35H358.363V290.238H356.49V292.795H358.322V293.684H349.422V292.795H351.254V290.238H349.381ZM350.762 300.068H357.01V298.004H350.762V300.068ZM352.32 292.795H355.424V290.238H352.32V292.795ZM374.332 288.953V301.107H373.279V294.818H371.529V300.479H370.518V289.227H371.529V293.902H373.279V288.953H374.332ZM364.57 297.963V290.443H365.637V297.006C366.84 296.999 368.139 296.91 369.615 296.609L369.752 297.566C368.057 297.874 366.662 297.963 365.322 297.963H364.57ZM386.131 296.787V301.107H385.051V297.648H377.955V296.787H386.131ZM376.246 292.549C376.239 290.854 377.586 289.644 379.404 289.65C380.457 289.644 381.353 290.061 381.913 290.744H385.051V288.953H386.131V296.117H385.051V294.367H381.92C381.359 295.058 380.464 295.468 379.404 295.461C377.586 295.475 376.239 294.278 376.246 292.549ZM377.271 292.549C377.271 293.731 378.16 294.559 379.404 294.559C380.601 294.559 381.51 293.731 381.51 292.549C381.51 291.407 380.601 290.566 379.404 290.566C378.16 290.566 377.271 291.407 377.271 292.549ZM382.405 293.479H385.051V291.633H382.398C382.494 291.92 382.549 292.221 382.549 292.549C382.549 292.877 382.494 293.191 382.405 293.479Z" fill="black"/>
<line x1="278" y1="575.5" x2="426" y2="575.5" stroke="black"/>
<line x1="278" y1="431.5" x2="426" y2="431.5" stroke="#E0E0E0"/>
<line x1="278" y1="331.5" x2="426" y2="331.5" stroke="#E0E0E0"/>
<path d="M501.438 241.082V258.738H499.27V241.082H501.438ZM486.809 253.836C488.215 253.826 489.807 253.826 491.477 253.777V252.156C489.494 251.844 488.195 250.633 488.195 248.953C488.195 246.961 489.963 245.643 492.531 245.633C495.129 245.643 496.926 246.961 496.926 248.953C496.926 250.623 495.627 251.824 493.645 252.146V253.699C495.197 253.631 496.76 253.504 498.234 253.309L498.391 254.93C494.514 255.584 490.295 255.633 487.121 255.633L486.809 253.836ZM487.18 244.832V243.113H491.477V241.141H493.645V243.113H497.922V244.832H487.18ZM490.266 248.953C490.246 249.969 491.193 250.564 492.531 250.555C493.908 250.564 494.846 249.969 494.836 248.953C494.846 247.928 493.908 247.303 492.531 247.293C491.193 247.303 490.246 247.928 490.266 248.953ZM518.82 241.102V254.461H516.633V252.918H513.176V251.395H516.633V241.102H518.82ZM503.938 249.031C507.189 249.012 511.574 248.982 515.324 248.504L515.441 250.066C513.986 250.311 512.482 250.467 510.988 250.574V253.973H508.82V250.691C507.17 250.76 505.598 250.77 504.211 250.77L503.938 249.031ZM505.285 244.871C505.285 243.006 507.082 241.736 509.699 241.746C512.268 241.736 514.074 243.006 514.094 244.871C514.074 246.766 512.268 247.967 509.699 247.977C507.082 247.967 505.285 246.766 505.285 244.871ZM506.281 258.387V253.172H508.449V256.629H519.23V258.387H506.281ZM507.336 244.871C507.336 245.828 508.283 246.385 509.699 246.395C511.047 246.385 512.014 245.828 512.023 244.871C512.014 243.914 511.047 243.338 509.699 243.348C508.283 243.338 507.336 243.914 507.336 244.871ZM536.086 241.082V251.57H533.918V247.254H530.91V245.477H533.918V241.082H536.086ZM521.242 249.812C524.084 248.836 525.578 246.463 525.578 244.129V243.992H521.906V242.234H531.438V243.992H527.785V244.109C527.785 246.258 529.211 248.426 531.945 249.344L530.852 251.062C528.889 250.398 527.502 249.051 526.721 247.391C525.949 249.266 524.475 250.789 522.375 251.531L521.242 249.812ZM524.113 255.379C524.094 253.26 526.389 252.02 530.109 252.02C533.85 252.02 536.135 253.26 536.145 255.379C536.135 257.498 533.85 258.729 530.109 258.738C526.389 258.729 524.094 257.498 524.113 255.379ZM526.262 255.379C526.252 256.473 527.658 257.068 530.109 257.059C532.58 257.068 533.977 256.473 533.977 255.379C533.977 254.275 532.58 253.68 530.109 253.68C527.658 253.68 526.252 254.275 526.262 255.379ZM554.719 254.832V256.609H538.586V254.832H545.539V251.395H540.363V242.254H542.531V245.145H550.715V242.254H552.883V251.395H547.688V254.832H554.719ZM542.531 249.637H550.715V246.883H542.531V249.637ZM565.07 242.547C565.061 244.764 567.551 247.02 571.32 247.508L570.461 249.266C567.463 248.816 565.08 247.342 563.928 245.35C562.775 247.342 560.402 248.816 557.434 249.266L556.574 247.508C560.305 247.02 562.785 244.783 562.785 242.547V241.648H565.07V242.547ZM555.871 252.586V250.789H571.965V252.586H564.953V258.738H562.805V252.586H555.871ZM587.941 241.082V251.57H585.773V247.254H582.766V245.477H585.773V241.082H587.941ZM573.098 249.812C575.939 248.836 577.434 246.463 577.434 244.129V243.992H573.762V242.234H583.293V243.992H579.641V244.109C579.641 246.258 581.066 248.426 583.801 249.344L582.707 251.062C580.744 250.398 579.357 249.051 578.576 247.391C577.805 249.266 576.33 250.789 574.23 251.531L573.098 249.812ZM575.969 255.379C575.949 253.26 578.244 252.02 581.965 252.02C585.705 252.02 587.99 253.26 588 255.379C587.99 257.498 585.705 258.729 581.965 258.738C578.244 258.729 575.949 257.498 575.969 255.379ZM578.117 255.379C578.107 256.473 579.514 257.068 581.965 257.059C584.436 257.068 585.832 256.473 585.832 255.379C585.832 254.275 584.436 253.68 581.965 253.68C579.514 253.68 578.107 254.275 578.117 255.379Z" fill="black"/>
<line x1="486" y1="274.5" x2="1642" y2="274.5" stroke="black"/>
<path d="M851.991 438.744V454.529H850.321V438.744H851.991ZM839.827 450.75V440.062H841.497V444.105H845.733V440.062H847.386V450.75H839.827ZM841.497 449.379H845.733V445.424H841.497V449.379ZM862.819 439.588V446.074H855.331V439.588H862.819ZM856.966 444.773H861.167V440.941H856.966V444.773ZM857.212 448.869V447.568H867.548V451.488H858.882V453H868.058V454.336H857.247V450.275H865.913V448.869H857.212ZM865.896 446.812V438.744H867.548V446.812H865.896ZM883.192 438.762V450.398H881.522V444.457H878.077V447.779H870.817V439.799H872.487V442.471H876.425V439.799H878.077V443.104H881.522V438.762H883.192ZM872.487 446.426H876.425V443.754H872.487V446.426ZM872.909 454.16V449.256H874.597V452.807H883.544V454.16H872.909ZM899.259 440.959V442.312H886.304V440.959H891.964V438.973H893.616V440.959H899.259ZM885.618 452.719V451.365H891.964V449.282C889.204 449.106 887.525 448.017 887.534 446.268C887.525 444.369 889.538 443.253 892.79 443.262C895.998 443.253 898.037 444.369 898.028 446.268C898.037 448.017 896.341 449.106 893.616 449.282V451.365H900.032V452.719H885.618ZM889.239 446.268C889.222 447.366 890.54 447.964 892.79 447.973C895.005 447.964 896.332 447.366 896.323 446.268C896.332 445.178 895.005 444.58 892.79 444.58C890.54 444.58 889.222 445.178 889.239 446.268ZM915.571 445.969V447.252H901.157V445.969H915.571ZM902.862 449.555V448.359H913.796V451.822H904.55V453.123H914.288V454.301H902.88V450.715H912.144V449.555H902.862ZM902.968 440.326V439.148H913.761V442.559H904.655V443.754H914.024V444.932H903.003V441.451H912.091V440.326H902.968ZM934.187 438.744V447.199H932.517V438.744H934.187ZM921.442 443.121C921.451 440.959 923.227 439.456 925.644 439.465C928.052 439.456 929.827 440.959 929.827 443.121C929.827 445.274 928.052 446.777 925.644 446.76C923.227 446.777 921.451 445.274 921.442 443.121ZM923.077 443.121C923.068 444.483 924.149 445.389 925.644 445.389C927.12 445.389 928.192 444.483 928.192 443.121C928.192 441.776 927.12 440.862 925.644 440.871C924.149 440.862 923.068 441.776 923.077 443.121ZM923.886 454.301V447.955H925.521V449.73H932.534V447.955H934.187V454.301H923.886ZM925.521 452.93H932.534V451.049H925.521V452.93ZM944.188 439.693V444.281H938.985V446.461C941.728 446.461 943.222 446.399 944.997 446.074L945.155 447.428C943.23 447.753 941.613 447.806 938.476 447.814H937.333V443.016H942.519V441.029H937.315V439.693H944.188ZM939.126 450.592V449.238H949.813V454.512H948.144V450.592H939.126ZM945.19 445.67V444.334H948.144V442.383H945.19V441.047H948.144V438.762H949.813V448.447H948.144V445.67H945.19ZM960.026 441.346V442.699H952.204V441.346H955.298V439.201H956.95V441.346H960.026ZM952.714 447.27C952.705 445.151 954.146 443.648 956.124 443.648C958.119 443.648 959.543 445.151 959.552 447.27C959.543 449.423 958.119 450.935 956.124 450.926C954.146 450.935 952.705 449.423 952.714 447.27ZM954.19 447.27C954.182 448.605 954.99 449.502 956.124 449.502C957.258 449.502 958.075 448.605 958.075 447.27C958.075 445.96 957.258 445.046 956.124 445.037C954.99 445.046 954.182 445.96 954.19 447.27ZM960.747 453.756V439.096H962.329V445.301H964.14V438.744H965.722V454.494H964.14V446.672H962.329V453.756H960.747ZM982.157 447.621V448.975H975.759V454.477H974.124V448.975H967.796V447.621H982.157ZM968.604 445.107C971.54 444.703 973.983 442.954 974.036 441.012H969.132V439.676H980.804V441.012H975.935C975.961 442.954 978.387 444.703 981.366 445.107L980.751 446.426C978.167 446.021 975.935 444.747 974.977 442.954C974.01 444.747 971.786 446.021 969.237 446.426L968.604 445.107ZM988.151 443.051C988.151 445.564 989.206 448.245 991.315 449.537L990.384 450.82C988.907 449.933 987.914 448.359 987.369 446.54C986.798 448.535 985.708 450.24 984.179 451.172L983.142 449.924C985.365 448.588 986.543 445.802 986.534 443.121V440.186H988.151V443.051ZM989.61 445.67V444.281H992.054V439.043H993.636V453.721H992.054V445.67H989.61ZM995.306 454.494V438.744H996.905V454.494H995.306ZM1013.32 451.137V452.525H998.909V451.137H1002.35V447.023C1001.06 446.312 1000.27 445.187 1000.28 443.771C1000.27 441.293 1002.71 439.667 1006.08 439.658C1009.46 439.667 1011.9 441.293 1011.9 443.771C1011.9 445.16 1011.14 446.276 1009.88 446.988V451.137H1013.32ZM1001.9 443.771C1001.9 445.459 1003.61 446.558 1006.08 446.566C1008.53 446.558 1010.27 445.459 1010.28 443.771C1010.27 442.075 1008.53 440.994 1006.08 440.994C1003.61 440.994 1001.9 442.075 1001.9 443.771ZM1004.01 451.137H1008.19V447.639C1007.55 447.788 1006.84 447.867 1006.08 447.867C1005.34 447.867 1004.64 447.788 1004.01 447.639V451.137ZM1016.26 453.123C1015.57 453.114 1015 452.561 1015.01 451.875C1015 451.189 1015.57 450.627 1016.26 450.627C1016.94 450.627 1017.5 451.189 1017.51 451.875C1017.5 452.561 1016.94 453.114 1016.26 453.123Z" fill="#161616"/>
<path d="M848.582 466.912V479.162H847.283V466.912H848.582ZM838.52 475.826C839.531 475.819 840.68 475.812 841.883 475.785V474.555C840.454 474.363 839.524 473.522 839.531 472.326C839.524 470.945 840.728 470.036 842.498 470.029C844.289 470.036 845.513 470.945 845.52 472.326C845.513 473.509 844.59 474.343 843.168 474.548V475.737C844.303 475.683 845.451 475.601 846.531 475.457L846.627 476.428C843.906 476.879 840.939 476.913 838.697 476.906L838.52 475.826ZM838.779 469.414V468.375H841.883V466.939H843.182V468.375H846.258V469.414H838.779ZM840.762 472.326C840.748 473.105 841.473 473.591 842.498 473.584C843.558 473.591 844.275 473.105 844.275 472.326C844.275 471.54 843.558 471.041 842.498 471.041C841.473 471.041 840.748 471.54 840.762 472.326ZM860.736 466.926V476.209H859.438V475.033H856.977V474.117H859.438V466.926H860.736ZM850.496 472.518C852.759 472.497 855.814 472.477 858.426 472.148L858.508 473.078C857.462 473.256 856.361 473.365 855.281 473.44V475.826H853.982V473.509C852.793 473.557 851.651 473.557 850.66 473.557L850.496 472.518ZM851.453 469.551C851.446 468.252 852.684 467.391 854.502 467.391C856.293 467.391 857.537 468.252 857.537 469.551C857.537 470.856 856.293 471.684 854.502 471.684C852.69 471.684 851.446 470.856 851.453 469.551ZM852.191 478.902V475.307H853.477V477.85H861.037V478.902H852.191ZM852.684 469.551C852.677 470.275 853.415 470.727 854.502 470.727C855.548 470.727 856.3 470.275 856.307 469.551C856.3 468.819 855.548 468.348 854.502 468.361C853.415 468.348 852.677 468.819 852.684 469.551ZM872.795 466.912V473.83H871.51V466.912H872.795ZM863.402 473.01V467.623H864.701V471.916C866.677 471.902 868.406 471.766 870.252 471.369L870.43 472.449C868.406 472.859 866.561 473.003 864.414 473.01H863.402ZM864.77 478.998V474.391H872.795V478.998H864.77ZM866.041 477.959H871.523V475.416H866.041V477.959ZM878.742 467.787C880.677 467.78 882.071 468.977 882.078 470.699C882.071 472.422 880.677 473.618 878.742 473.625C876.814 473.618 875.399 472.422 875.406 470.699C875.399 468.977 876.814 467.78 878.742 467.787ZM874.818 475.471C877.047 475.471 880.137 475.45 882.816 475.061L882.912 476.004C880.144 476.537 877.17 476.551 874.982 476.551L874.818 475.471ZM876.691 470.699C876.678 471.786 877.553 472.49 878.742 472.49C879.932 472.49 880.807 471.786 880.807 470.699C880.807 469.626 879.932 468.908 878.742 468.908C877.553 468.908 876.678 469.626 876.691 470.699ZM883.582 479.189V466.912H884.881V479.189H883.582ZM900.754 466.912V479.162H899.51V472.805H897.992V478.574H896.775V467.24H897.992V471.752H899.51V466.912H900.754ZM890.227 475.662C892.947 474.117 894.089 472.032 894.294 469.537H890.746V468.471H895.559C895.552 471.69 894.485 474.589 890.979 476.564L890.227 475.662ZM912.525 466.926V475.826H911.227V466.926H912.525ZM902.613 470.781C902.62 469.011 904.028 467.753 905.881 467.746C907.727 467.753 909.135 469.011 909.135 470.781C909.135 472.579 907.727 473.83 905.881 473.83C904.028 473.83 902.62 472.579 902.613 470.781ZM903.885 470.781C903.878 471.937 904.739 472.695 905.881 472.695C907.002 472.695 907.863 471.937 907.863 470.781C907.863 469.653 907.002 468.881 905.881 468.881C904.739 468.881 903.878 469.653 903.885 470.781ZM904.514 478.902V474.924H905.826V477.85H912.895V478.902H904.514ZM924.68 466.912V474.199H923.381V471.096H921.098V470.029H923.381V466.912H924.68ZM914.467 473.092C916.367 472.429 917.536 470.774 917.529 469.086V468.812H914.877V467.76H921.48V468.812H918.855V469.072C918.849 470.624 919.956 472.135 921.809 472.764L921.139 473.789C919.765 473.317 918.753 472.333 918.22 471.123C917.687 472.49 916.613 473.591 915.15 474.131L914.467 473.092ZM916.436 476.852C916.429 475.396 918.001 474.548 920.578 474.541C923.142 474.548 924.714 475.396 924.721 476.852C924.714 478.308 923.142 479.155 920.578 479.162C918.001 479.155 916.429 478.308 916.436 476.852ZM917.721 476.852C917.714 477.679 918.78 478.15 920.578 478.137C922.362 478.15 923.429 477.679 923.436 476.852C923.429 476.018 922.362 475.546 920.578 475.553C918.78 475.546 917.714 476.018 917.721 476.852ZM937.777 476.564V477.645H926.566V476.564H931.502V474.049H927.852V467.746H929.15V469.852H935.166V467.746H936.451V474.049H932.787V476.564H937.777ZM929.15 472.996H935.166V470.904H929.15V472.996ZM953.295 476.564V477.645H942.084V476.564H947.02V474.049H943.369V467.746H944.668V469.852H950.684V467.746H951.969V474.049H948.305V476.564H953.295ZM944.668 472.996H950.684V470.904H944.668V472.996ZM964.793 468.635V469.688H954.717V468.635H959.119V467.09H960.404V468.635H964.793ZM954.184 477.781V476.729H959.119V475.108C956.973 474.972 955.667 474.124 955.674 472.764C955.667 471.287 957.232 470.419 959.762 470.426C962.257 470.419 963.843 471.287 963.836 472.764C963.843 474.124 962.523 474.972 960.404 475.108V476.729H965.395V477.781H954.184ZM957 472.764C956.986 473.618 958.012 474.083 959.762 474.09C961.484 474.083 962.517 473.618 962.51 472.764C962.517 471.916 961.484 471.451 959.762 471.451C958.012 471.451 956.986 471.916 957 472.764ZM977.48 472.531V473.529H966.27V472.531H977.48ZM967.596 475.32V474.391H976.1V477.084H968.908V478.096H976.482V479.012H967.609V476.223H974.814V475.32H967.596ZM967.678 468.143V467.227H976.072V469.879H968.99V470.809H976.277V471.725H967.705V469.018H974.773V468.143H967.678ZM985.82 467.473C987.666 467.466 988.999 468.498 989.006 470.016C988.999 471.52 987.666 472.559 985.82 472.545C983.981 472.559 982.655 471.52 982.662 470.016C982.655 468.498 983.981 467.466 985.82 467.473ZM981.787 473.502C984.05 473.502 987.174 473.454 989.854 473.051L989.949 474.021C988.828 474.233 987.673 474.363 986.545 474.438V478.779H985.246V474.514C984.057 474.568 982.936 474.575 981.965 474.582L981.787 473.502ZM983.92 470.016C983.906 470.904 984.706 471.492 985.82 471.479C986.962 471.492 987.762 470.904 987.762 470.016C987.762 469.12 986.962 468.519 985.82 468.525C984.706 468.519 983.906 469.12 983.92 470.016ZM990.701 479.162V466.926H991.986V479.162H990.701ZM999.957 468.936V469.988H993.873V468.936H996.279V467.268H997.564V468.936H999.957ZM994.27 473.543C994.263 471.896 995.384 470.727 996.922 470.727C998.474 470.727 999.581 471.896 999.588 473.543C999.581 475.218 998.474 476.394 996.922 476.387C995.384 476.394 994.263 475.218 994.27 473.543ZM995.418 473.543C995.411 474.582 996.04 475.279 996.922 475.279C997.804 475.279 998.439 474.582 998.439 473.543C998.439 472.524 997.804 471.813 996.922 471.807C996.04 471.813 995.411 472.524 995.418 473.543ZM1000.52 478.588V467.186H1001.75V472.012H1003.16V466.912H1004.39V479.162H1003.16V473.078H1001.75V478.588H1000.52ZM1019.56 466.912V479.189H1018.26V466.912H1019.56ZM1010.1 476.25V467.938H1011.4V471.082H1014.7V467.938H1015.98V476.25H1010.1ZM1011.4 475.184H1014.7V472.107H1011.4V475.184ZM1027.98 467.568V472.613H1022.16V467.568H1027.98ZM1023.43 471.602H1026.7V468.621H1023.43V471.602ZM1023.62 474.787V473.775H1031.66V476.824H1024.92V478H1032.06V479.039H1023.65V475.881H1030.39V474.787H1023.62ZM1030.38 473.188V466.912H1031.66V473.188H1030.38ZM1043.83 466.926V475.977H1042.53V471.355H1039.85V473.939H1034.21V467.732H1035.5V469.811H1038.57V467.732H1039.85V470.303H1042.53V466.926H1043.83ZM1035.5 472.887H1038.57V470.809H1035.5V472.887ZM1035.83 478.902V475.088H1037.14V477.85H1044.1V478.902H1035.83ZM1056.33 468.635V469.688H1046.25V468.635H1050.65V467.09H1051.94V468.635H1056.33ZM1045.72 477.781V476.729H1050.65V475.108C1048.51 474.972 1047.2 474.124 1047.21 472.764C1047.2 471.287 1048.77 470.419 1051.29 470.426C1053.79 470.419 1055.38 471.287 1055.37 472.764C1055.38 474.124 1054.06 474.972 1051.94 475.108V476.729H1056.93V477.781H1045.72ZM1048.53 472.764C1048.52 473.618 1049.54 474.083 1051.29 474.09C1053.02 474.083 1054.05 473.618 1054.04 472.764C1054.05 471.916 1053.02 471.451 1051.29 471.451C1049.54 471.451 1048.52 471.916 1048.53 472.764ZM1069.01 472.531V473.529H1057.8V472.531H1069.01ZM1059.13 475.32V474.391H1067.63V477.084H1060.44V478.096H1068.02V479.012H1059.14V476.223H1066.35V475.32H1059.13ZM1059.21 468.143V467.227H1067.61V469.879H1060.52V470.809H1067.81V471.725H1059.24V469.018H1066.31V468.143H1059.21ZM1082.88 466.912V471.656H1084.85V472.723H1082.88V479.189H1081.58V466.912H1082.88ZM1073.85 476.141V468.088H1079.58V469.141H1075.15V475.061C1077.21 475.054 1078.75 474.965 1080.5 474.65L1080.66 475.744C1078.74 476.086 1077.11 476.147 1074.84 476.141H1073.85ZM1089.93 470.029C1089.92 472.265 1091.27 474.521 1093.17 475.361L1092.39 476.387C1090.98 475.717 1089.87 474.343 1089.3 472.668C1088.73 474.466 1087.6 475.942 1086.13 476.66L1085.34 475.566C1087.27 474.712 1088.62 472.367 1088.62 470.029V467.938H1089.93V470.029ZM1094.28 479.189V466.912H1095.58V479.189H1094.28ZM1110.58 466.926V470.863H1112.35V471.943H1110.58V476.086H1109.28V466.926H1110.58ZM1100.96 469.4V468.348H1103.97V466.912H1105.27V468.348H1108.27V469.4H1100.96ZM1101.63 472.299C1101.63 470.897 1102.84 469.981 1104.62 469.988C1106.37 469.981 1107.58 470.897 1107.58 472.299C1107.58 473.687 1106.37 474.589 1104.62 474.596C1102.84 474.589 1101.63 473.687 1101.63 472.299ZM1102.81 478.902V475.361H1104.11V477.85H1111.1V478.902H1102.81ZM1102.89 472.299C1102.88 473.099 1103.58 473.591 1104.62 473.584C1105.65 473.591 1106.35 473.099 1106.37 472.299C1106.35 471.492 1105.65 470.993 1104.62 470.986C1103.58 470.993 1102.88 471.492 1102.89 472.299ZM1123.26 466.926V475.977H1121.96V471.355H1119.29V473.939H1113.64V467.732H1114.94V469.811H1118V467.732H1119.29V470.303H1121.96V466.926H1123.26ZM1114.94 472.887H1118V470.809H1114.94V472.887ZM1115.27 478.902V475.088H1116.58V477.85H1123.54V478.902H1115.27ZM1138.21 466.926V470.562H1139.96V471.629H1138.21V475.17H1136.91V466.926H1138.21ZM1128.49 473.803C1129.44 473.803 1130.54 473.803 1131.69 473.775V472.948C1130.29 472.791 1129.4 472.135 1129.42 471.15C1129.4 470.029 1130.57 469.332 1132.33 469.346C1134.08 469.332 1135.23 470.029 1135.24 471.15C1135.23 472.128 1134.37 472.784 1132.98 472.948V473.728C1134.08 473.673 1135.19 473.584 1136.21 473.434L1136.32 474.363C1133.69 474.821 1130.78 474.842 1128.62 474.842L1128.49 473.803ZM1128.8 468.936V467.965H1131.69V466.816H1132.98V467.965H1135.87V468.936H1128.8ZM1130.02 476.756V475.744H1138.21V479.162H1136.91V476.756H1130.02ZM1130.65 471.15C1130.65 471.725 1131.28 472.101 1132.33 472.094C1133.36 472.101 1134 471.725 1134 471.15C1134 470.562 1133.36 470.221 1132.33 470.234C1131.28 470.221 1130.65 470.562 1130.65 471.15ZM1150.83 466.926V475.826H1149.53V466.926H1150.83ZM1140.91 470.781C1140.92 469.011 1142.33 467.753 1144.18 467.746C1146.03 467.753 1147.44 469.011 1147.44 470.781C1147.44 472.579 1146.03 473.83 1144.18 473.83C1142.33 473.83 1140.92 472.579 1140.91 470.781ZM1142.19 470.781C1142.18 471.937 1143.04 472.695 1144.18 472.695C1145.3 472.695 1146.16 471.937 1146.16 470.781C1146.16 469.653 1145.3 468.881 1144.18 468.881C1143.04 468.881 1142.18 469.653 1142.19 470.781ZM1142.81 478.902V474.924H1144.13V477.85H1151.2V478.902H1142.81ZM1165.81 466.912V469.988H1167.59V471.082H1165.81V474.049H1164.51V466.912H1165.81ZM1156.2 469.154V468.115H1159.21V466.803H1160.51V468.115H1163.5V469.154H1156.2ZM1156.87 471.807C1156.86 470.501 1158.07 469.653 1159.85 469.66C1161.61 469.653 1162.82 470.501 1162.82 471.807C1162.82 473.112 1161.61 473.967 1159.85 473.953C1158.07 473.967 1156.86 473.112 1156.87 471.807ZM1157.98 479.012V474.555H1159.26V475.744H1164.51V474.555H1165.81V479.012H1157.98ZM1158.13 471.807C1158.11 472.538 1158.81 472.989 1159.85 472.996C1160.89 472.989 1161.59 472.538 1161.6 471.807C1161.59 471.089 1160.89 470.624 1159.85 470.631C1158.81 470.624 1158.11 471.089 1158.13 471.807ZM1159.26 477.973H1164.51V476.756H1159.26V477.973ZM1178.46 466.912V479.162H1177.16V466.912H1178.46ZM1169.04 476.045V468.102H1170.32V474.924C1172.11 474.917 1173.99 474.76 1175.96 474.363L1176.13 475.457C1173.97 475.901 1172 476.052 1170.06 476.045H1169.04ZM1189.93 466.912V471.656H1191.9V472.723H1189.93V479.189H1188.63V466.912H1189.93ZM1180.9 476.141V468.088H1186.63V469.141H1182.2V475.061C1184.26 475.054 1185.8 474.965 1187.55 474.65L1187.71 475.744C1185.79 476.086 1184.17 476.147 1181.89 476.141H1180.9ZM1193.88 478.096C1193.35 478.089 1192.9 477.658 1192.91 477.125C1192.9 476.592 1193.35 476.154 1193.88 476.154C1194.41 476.154 1194.84 476.592 1194.85 477.125C1194.84 477.658 1194.41 478.089 1193.88 478.096ZM848.596 486.912V499.189H847.297V486.912H848.596ZM839.135 496.25V487.938H840.434V491.082H843.729V487.938H845.014V496.25H839.135ZM840.434 495.184H843.729V492.107H840.434V495.184ZM857.018 487.951V493.707H851.193V487.951H857.018ZM852.465 492.668H855.732V489.004H852.465V492.668ZM852.697 498.793V494.855H854.01V497.727H861.078V498.793H852.697ZM859.41 495.703V486.926H860.709V495.703H859.41ZM872.863 486.926V495.977H871.564V491.355H868.885V493.939H863.238V487.732H864.537V489.811H867.6V487.732H868.885V490.303H871.564V486.926H872.863ZM864.537 492.887H867.6V490.809H864.537V492.887ZM864.865 498.902V495.088H866.178V497.85H873.137V498.902H864.865ZM885.359 488.635V489.688H875.283V488.635H879.686V487.09H880.971V488.635H885.359ZM874.75 497.781V496.729H879.686V495.108C877.539 494.972 876.233 494.124 876.24 492.764C876.233 491.287 877.799 490.419 880.328 490.426C882.823 490.419 884.409 491.287 884.402 492.764C884.409 494.124 883.09 494.972 880.971 495.108V496.729H885.961V497.781H874.75ZM877.566 492.764C877.553 493.618 878.578 494.083 880.328 494.09C882.051 494.083 883.083 493.618 883.076 492.764C883.083 491.916 882.051 491.451 880.328 491.451C878.578 491.451 877.553 491.916 877.566 492.764ZM896.393 486.912V491.793H898.293V492.873H896.393V499.148H895.094V486.912H896.393ZM886.863 495.881C889.933 494.35 891.601 492.135 891.867 489.277H887.479V488.197H893.193C893.18 491.738 891.621 494.903 887.588 496.893L886.863 495.881ZM912.307 492.381V493.447H908.602V496.564H913.578V497.631H902.367V496.564H907.303V493.447H903.707V487.924H905.02V492.381H912.307ZM925.623 492.285V493.256H920.688V494.281H924.229V497.043H917.092V498.055H924.57V499.039H915.82V496.141H922.943V495.225H915.807V494.281H919.402V493.256H914.48V492.285H925.623ZM915.027 490.822C917.372 490.692 919.026 489.975 919.293 488.936H915.588V487.938H919.402V486.857H920.688V487.938H924.516V488.936H920.79C921.05 489.975 922.704 490.692 925.076 490.822L924.68 491.807C922.547 491.649 920.811 491.027 920.045 489.954C919.279 491.027 917.543 491.649 915.396 491.807L915.027 490.822ZM933.867 492.094V493.16H931.283V495.43C932.418 495.382 933.56 495.307 934.633 495.184L934.729 496.141C932.028 496.544 929.13 496.585 926.799 496.592L926.635 495.512C927.667 495.512 928.809 495.505 929.984 495.478V493.16H927.523V488.047H933.812V489.1H928.809V492.094H933.867ZM935.398 499.189V486.912H936.697V499.189H935.398ZM943.178 490.521C943.171 492.572 944.518 494.691 946.404 495.498L945.693 496.51C944.251 495.874 943.103 494.521 942.535 492.887C941.968 494.637 940.819 496.127 939.391 496.824L938.639 495.799C940.484 494.931 941.852 492.634 941.865 490.521V489.223H939.062V488.143H945.967V489.223H943.178V490.521ZM947.512 499.162V486.912H948.811V499.162H947.512ZM957.588 487.568C959.44 487.575 960.801 488.751 960.801 490.412C960.801 492.08 959.44 493.249 957.588 493.256C955.742 493.249 954.361 492.08 954.375 490.412C954.361 488.751 955.742 487.575 957.588 487.568ZM955.414 498.834V494.281H956.686V497.768C957.403 497.733 958.23 497.631 959.01 497.371L959.201 498.396C958.06 498.786 956.959 498.834 956.043 498.834H955.414ZM955.633 490.412C955.626 491.458 956.48 492.189 957.588 492.189C958.702 492.189 959.543 491.458 959.543 490.412C959.543 489.373 958.702 488.648 957.588 488.648C956.48 488.648 955.626 489.373 955.633 490.412ZM958.777 495.32V494.322H961.252V493.324H962.523V494.322H964.957V495.32H958.777ZM959.557 497.426C959.543 496.359 960.486 495.683 961.867 495.676C963.221 495.683 964.178 496.359 964.178 497.426C964.178 498.479 963.221 499.142 961.867 499.135C960.486 499.142 959.543 498.479 959.557 497.426ZM960.705 497.426C960.705 497.925 961.19 498.232 961.867 498.232C962.53 498.232 963.009 497.925 963.016 497.426C963.009 496.927 962.53 496.605 961.867 496.605C961.19 496.605 960.705 496.927 960.705 497.426ZM962.51 493.01V486.912H963.809V489.592H965.586V490.672H963.809V493.01H962.51ZM976.209 492.559V493.598H972.504V496.592H977.494V497.658H966.283V496.592H971.219V493.598H967.678V487.855H976.1V488.908H968.977V492.559H976.209ZM989.58 493.598V494.65H978.369V493.598H983.332V492.436H979.805V489.318H986.873V488.225H979.777V487.199H988.172V490.275H981.09V491.424H988.418V492.436H984.617V493.598H989.58ZM979.627 496.551V495.512H988.24V499.066H986.928V496.551H979.627ZM1005.07 493.816V494.869H1000.09V499.148H998.822V494.869H993.9V493.816H1005.07ZM994.529 491.861C996.812 491.547 998.713 490.187 998.754 488.676H994.939V487.637H1004.02V488.676H1000.23C1000.25 490.187 1002.14 491.547 1004.46 491.861L1003.98 492.887C1001.97 492.572 1000.23 491.581 999.485 490.187C998.733 491.581 997.004 492.572 995.021 492.887L994.529 491.861ZM1009.99 487.787C1011.93 487.78 1013.32 488.977 1013.33 490.699C1013.32 492.422 1011.93 493.618 1009.99 493.625C1008.06 493.618 1006.65 492.422 1006.66 490.699C1006.65 488.977 1008.06 487.78 1009.99 487.787ZM1006.07 495.471C1008.3 495.471 1011.39 495.45 1014.07 495.061L1014.16 496.004C1011.39 496.537 1008.42 496.551 1006.23 496.551L1006.07 495.471ZM1007.94 490.699C1007.93 491.786 1008.8 492.49 1009.99 492.49C1011.18 492.49 1012.06 491.786 1012.06 490.699C1012.06 489.626 1011.18 488.908 1009.99 488.908C1008.8 488.908 1007.93 489.626 1007.94 490.699ZM1014.83 499.189V486.912H1016.13V499.189H1014.83ZM1024.16 488.936V489.988H1018.07V488.936H1020.48V487.268H1021.76V488.936H1024.16ZM1018.47 493.543C1018.46 491.896 1019.58 490.727 1021.12 490.727C1022.67 490.727 1023.78 491.896 1023.79 493.543C1023.78 495.218 1022.67 496.394 1021.12 496.387C1019.58 496.394 1018.46 495.218 1018.47 493.543ZM1019.62 493.543C1019.61 494.582 1020.24 495.279 1021.12 495.279C1022 495.279 1022.64 494.582 1022.64 493.543C1022.64 492.524 1022 491.813 1021.12 491.807C1020.24 491.813 1019.61 492.524 1019.62 493.543ZM1024.72 498.588V487.186H1025.95V492.012H1027.36V486.912H1028.59V499.162H1027.36V493.078H1025.95V498.588H1024.72ZM1041.37 493.816V494.869H1036.39V499.148H1035.12V494.869H1030.2V493.816H1041.37ZM1030.83 491.861C1033.11 491.547 1035.01 490.187 1035.05 488.676H1031.24V487.637H1040.32V488.676H1036.53C1036.55 490.187 1038.44 491.547 1040.75 491.861L1040.28 492.887C1038.27 492.572 1036.53 491.581 1035.78 490.187C1035.03 491.581 1033.3 492.572 1031.32 492.887L1030.83 491.861ZM1046.03 490.262C1046.03 492.217 1046.85 494.302 1048.49 495.307L1047.77 496.305C1046.62 495.614 1045.85 494.391 1045.42 492.976C1044.98 494.527 1044.13 495.854 1042.94 496.578L1042.13 495.607C1043.86 494.568 1044.78 492.401 1044.77 490.316V488.033H1046.03V490.262ZM1047.17 492.299V491.219H1049.07V487.145H1050.3V498.561H1049.07V492.299H1047.17ZM1051.6 499.162V486.912H1052.84V499.162H1051.6ZM1065.61 496.551V497.631H1054.4V496.551H1057.08V493.352C1056.07 492.798 1055.46 491.923 1055.46 490.822C1055.46 488.895 1057.35 487.63 1059.98 487.623C1062.61 487.63 1064.5 488.895 1064.5 490.822C1064.5 491.902 1063.91 492.771 1062.93 493.324V496.551H1065.61ZM1056.72 490.822C1056.72 492.135 1058.06 492.989 1059.98 492.996C1061.88 492.989 1063.24 492.135 1063.24 490.822C1063.24 489.503 1061.88 488.662 1059.98 488.662C1058.06 488.662 1056.72 489.503 1056.72 490.822ZM1058.36 496.551H1061.62V493.83C1061.12 493.946 1060.56 494.008 1059.98 494.008C1059.4 494.008 1058.86 493.946 1058.36 493.83V496.551ZM1067.89 498.096C1067.36 498.089 1066.92 497.658 1066.92 497.125C1066.92 496.592 1067.36 496.154 1067.89 496.154C1068.42 496.154 1068.86 496.592 1068.86 497.125C1068.86 497.658 1068.42 498.089 1067.89 498.096Z" fill="#161616"/>
<rect x="838.5" y="520.5" width="357" height="45" rx="3.5" fill="white" stroke="#D2D2D2"/>
<path d="M857.596 536.912V549.189H856.297V536.912H857.596ZM848.135 546.25V537.938H849.434V541.082H852.729V537.938H854.014V546.25H848.135ZM849.434 545.184H852.729V542.107H849.434V545.184ZM866.018 537.568V542.613H860.193V537.568H866.018ZM861.465 541.602H864.732V538.621H861.465V541.602ZM861.656 544.787V543.775H869.695V546.824H862.955V548H870.092V549.039H861.684V545.881H868.424V544.787H861.656ZM868.41 543.188V536.912H869.695V543.188H868.41ZM881.863 536.926V545.977H880.564V541.355H877.885V543.939H872.238V537.732H873.537V539.811H876.6V537.732H877.885V540.303H880.564V536.926H881.863ZM873.537 542.887H876.6V540.809H873.537V542.887ZM873.865 548.902V545.088H875.178V547.85H882.137V548.902H873.865ZM894.359 538.635V539.688H884.283V538.635H888.686V537.09H889.971V538.635H894.359ZM883.75 547.781V546.729H888.686V545.108C886.539 544.972 885.233 544.124 885.24 542.764C885.233 541.287 886.799 540.419 889.328 540.426C891.823 540.419 893.409 541.287 893.402 542.764C893.409 544.124 892.09 544.972 889.971 545.108V546.729H894.961V547.781H883.75ZM886.566 542.764C886.553 543.618 887.578 544.083 889.328 544.09C891.051 544.083 892.083 543.618 892.076 542.764C892.083 541.916 891.051 541.451 889.328 541.451C887.578 541.451 886.553 541.916 886.566 542.764ZM909.426 536.912V543.488H908.127V536.912H909.426ZM899.514 540.316C899.521 538.635 900.901 537.466 902.781 537.473C904.654 537.466 906.035 538.635 906.035 540.316C906.035 541.991 904.654 543.16 902.781 543.146C900.901 543.16 899.521 541.991 899.514 540.316ZM900.785 540.316C900.778 541.376 901.619 542.08 902.781 542.08C903.93 542.08 904.764 541.376 904.764 540.316C904.764 539.271 903.93 538.56 902.781 538.566C901.619 538.56 900.778 539.271 900.785 540.316ZM901.414 549.012V544.076H902.686V545.457H908.141V544.076H909.426V549.012H901.414ZM902.686 547.945H908.141V546.482H902.686V547.945ZM917.205 537.65V541.219H913.158V542.914C915.291 542.914 916.453 542.866 917.834 542.613L917.957 543.666C916.46 543.919 915.202 543.96 912.762 543.967H911.873V540.234H915.906V538.689H911.859V537.65H917.205ZM913.268 546.127V545.074H921.58V549.176H920.281V546.127H913.268ZM917.984 542.299V541.26H920.281V539.742H917.984V538.703H920.281V536.926H921.58V544.459H920.281V542.299H917.984Z" fill="#CACACA"/>
<rect x="1201" y="520" width="90" height="46" rx="4" fill="#151515"/>
<path d="M1245.66 536.281V540.391H1247.56V541.828H1245.66V545.828H1243.92V536.281H1245.66ZM1234.34 544.141C1235.41 544.141 1236.63 544.133 1237.91 544.102V543.234C1236.34 543.039 1235.34 542.281 1235.34 541.172C1235.34 539.867 1236.7 539.07 1238.75 539.078C1240.8 539.07 1242.16 539.867 1242.16 541.172C1242.16 542.273 1241.19 543.023 1239.64 543.227V544.039C1240.84 543.977 1242.05 543.883 1243.19 543.734L1243.33 544.938C1240.32 545.469 1237.02 545.5 1234.53 545.5L1234.34 544.141ZM1234.7 538.672V537.391H1237.91V536.156H1239.64V537.391H1242.81V538.672H1234.7ZM1236.12 547.797V546.438H1245.66V550.391H1243.92V547.797H1236.12ZM1237.02 541.172C1237 541.758 1237.66 542.125 1238.75 542.109C1239.84 542.125 1240.5 541.758 1240.5 541.172C1240.5 540.555 1239.84 540.242 1238.75 540.25C1237.66 540.242 1237 540.555 1237.02 541.172ZM1260.06 536.281V546.484H1258.31V536.281H1260.06ZM1248.55 540.734C1248.55 538.68 1250.21 537.211 1252.36 537.203C1254.51 537.211 1256.16 538.68 1256.16 540.734C1256.16 542.82 1254.51 544.281 1252.36 544.281C1250.21 544.281 1248.55 542.82 1248.55 540.734ZM1250.25 540.734C1250.24 541.984 1251.15 542.766 1252.36 542.766C1253.54 542.766 1254.45 541.984 1254.45 540.734C1254.45 539.516 1253.54 538.719 1252.36 538.719C1251.15 538.719 1250.24 539.516 1250.25 540.734ZM1250.72 550.109V545.453H1252.47V548.703H1260.45V550.109H1250.72Z" fill="white"/>
<rect width="1920" height="200" fill="#F6F6F6"/>
<rect x="278" y="35" width="1364" height="130" fill="white"/>
<path d="M310.829 102.07C310.829 98.0312 312.032 94.6582 314.052 91.7793H316.63C315.147 93.917 313.665 98.2246 313.665 102.07C313.665 105.916 315.147 110.234 316.63 112.383H314.052C312.032 109.482 310.829 106.12 310.829 102.07ZM323.118 91.9082C326.04 91.9082 328.146 94.5723 328.167 98.7617C328.146 102.983 326.04 105.637 323.118 105.637C320.164 105.637 318.059 102.983 318.069 98.7617C318.059 94.5723 320.164 91.9082 323.118 91.9082ZM320.368 98.7617C320.357 101.748 321.485 103.478 323.118 103.488C324.762 103.478 325.857 101.748 325.868 98.7617C325.857 95.7969 324.762 94.0566 323.118 94.0566C321.485 94.0566 320.357 95.7969 320.368 98.7617ZM330.724 109.912V90.4902H333.108V97.9453H336.095V99.9648H333.108V109.912H330.724ZM353.067 90.4902V109.934H350.661V90.4902H353.067ZM337.534 98.7617C337.523 94.5723 339.661 91.9082 342.604 91.9082C345.516 91.9082 347.664 94.5723 347.675 98.7617C347.664 102.983 345.516 105.637 342.604 105.637C339.661 105.637 337.523 102.983 337.534 98.7617ZM339.833 98.7617C339.833 101.748 340.961 103.478 342.604 103.488C344.237 103.478 345.354 101.748 345.354 98.7617C345.354 95.7969 344.237 94.0566 342.604 94.0566C340.961 94.0566 339.833 95.7969 339.833 98.7617ZM372.081 90.4902V109.934H369.675V90.4902H372.081ZM357.128 105.25V92.252H366.495V94.207H359.534V103.23C363.101 103.209 365.346 103.112 367.935 102.65L368.171 104.627C365.389 105.143 362.886 105.25 358.782 105.25H357.128ZM380.718 102.07C380.718 106.12 379.515 109.482 377.495 112.383H374.917C376.399 110.234 377.882 105.916 377.882 102.07C377.882 98.2246 376.399 93.917 374.917 91.7793H377.495C379.515 94.6582 380.718 98.0312 380.718 102.07ZM399.173 90.5762V101.447H397.153V90.5762H399.173ZM384.413 100.158V91.6934H386.454V98.4395C389.559 98.418 392.276 98.2031 395.177 97.5801L395.456 99.2773C392.276 99.9219 389.376 100.147 386.003 100.158H384.413ZM386.562 109.568V102.328H399.173V109.568H386.562ZM388.56 107.936H397.175V103.939H388.56V107.936ZM422.741 90.5977V96.2695H425.534V97.9883H422.741V104.734H420.7V90.5977H422.741ZM408.368 101.555V91.9727H410.366V95.0449H415.415V91.9727H417.435V101.555H408.368ZM410.366 99.9219H415.415V96.6562H410.366V99.9219ZM410.538 109.418V103.338H412.579V107.764H423.558V109.418H410.538ZM441.755 90.5762V95.0234H444.548V96.6992H441.755V100.996H439.692V90.5762H441.755ZM426.63 99.5781C431.303 98.5039 433.902 96.2051 434.225 93.3477H427.532V91.7148H436.47C436.48 96.6133 433.129 99.8682 427.382 101.232L426.63 99.5781ZM429.38 109.59V101.834H431.421V104.09H439.714V101.834H441.755V109.59H429.38ZM431.421 107.914H439.714V105.701H431.421V107.914ZM449.833 102.113V104.154H458.878V102.113H460.919V109.59H447.813V102.113H449.833ZM445.644 100.91V99.2129H463.196V100.91H445.644ZM446.589 96.4199C450.316 95.9365 453.367 93.8848 453.378 91.6074V90.791H455.462V91.6074C455.473 93.8203 458.545 95.9688 462.229 96.4199L461.499 98.0312C458.384 97.6016 455.666 96.1191 454.431 94.0674C453.185 96.1299 450.456 97.6016 447.362 98.0312L446.589 96.4199ZM449.833 107.957H458.878V105.744H449.833V107.957ZM480.642 90.5762V109.826H478.601V90.5762H480.642ZM465.839 104.928V92.4453H467.858V103.166C470.673 103.155 473.627 102.908 476.71 102.285L476.989 104.004C473.584 104.702 470.49 104.938 467.45 104.928H465.839ZM498.667 90.5762V98.0312H501.761V99.707H498.667V109.869H496.626V90.5762H498.667ZM484.487 105.078V92.4238H493.489V94.0781H486.528V103.381C489.762 103.37 492.179 103.23 494.929 102.736L495.187 104.455C492.168 104.992 489.611 105.089 486.034 105.078H484.487Z" fill="black"/>
<path d="M1102 150H1282V50H1102V150Z" fill="white"/>
<path d="M1176.97 83.748V84.9785H1172.06V89.2031H1170.56V84.9785H1165.7V83.748H1176.97ZM1166.29 81.7246C1168.72 81.417 1170.34 80.1113 1170.45 78.7578H1166.74V77.5547H1175.93V78.7578H1172.22C1172.32 80.1113 1173.93 81.417 1176.38 81.7246L1175.83 82.9141C1173.73 82.6133 1172.09 81.6494 1171.33 80.3164C1170.58 81.6494 1168.95 82.6133 1166.86 82.9141L1166.29 81.7246ZM1189.08 83.0371V84.2539H1184.31V86.5234H1182.81V84.2539H1177.79V83.0371H1189.08ZM1179.16 88.9707V85.3887H1180.67V87.7402H1187.84V88.9707H1179.16ZM1179.22 81.8887V77.418H1187.63V81.8887H1179.22ZM1180.7 80.6992H1186.13V78.6074H1180.7V80.6992ZM1194.36 77.6367L1191.17 89.4902H1189.64L1192.84 77.6367H1194.36ZM1196.74 77.9922V80.8496H1198.75V77.9922H1200.16V86.2227H1195.3V77.9922H1196.74ZM1196.74 84.9922H1198.75V82.0527H1196.74V84.9922ZM1201.37 88.6152V77.0762H1202.81V81.6289H1204.12V76.8574H1205.58V89.2168H1204.12V82.8867H1202.81V88.6152H1201.37ZM1213.39 81.2188V82.832H1218.28V84.0488H1207.02V82.832H1211.89V81.2188H1213.39ZM1207.63 80.7266C1210.18 80.4053 1211.86 79.0039 1211.86 77.5273V77.0625H1213.4V77.5273C1213.4 79.0381 1215.06 80.4053 1217.64 80.7266L1217.05 81.916C1215.03 81.6084 1213.41 80.6924 1212.62 79.3936C1211.83 80.6855 1210.22 81.6084 1208.18 81.916L1207.63 80.7266ZM1208.33 87.0293C1208.33 85.6416 1209.94 84.8486 1212.64 84.8555C1215.32 84.8486 1216.91 85.6416 1216.92 87.0293C1216.91 88.4307 1215.32 89.2031 1212.64 89.2031C1209.94 89.2031 1208.33 88.4307 1208.33 87.0293ZM1209.88 87.0293C1209.87 87.7061 1210.82 88.0547 1212.64 88.0547C1214.42 88.0547 1215.39 87.7061 1215.4 87.0293C1215.39 86.3525 1214.42 86.0176 1212.64 86.0176C1210.82 86.0176 1209.87 86.3525 1209.88 87.0293Z" fill="black"/>
<path d="M1184.42 104.031V121H1181.35V107.008H1181.25L1177.29 109.539V106.75L1181.49 104.031H1184.42ZM1205.58 101.922V117.461H1202.98V110.336H1198.9V108.18H1202.98V101.922H1205.58ZM1188.12 113.148C1192.68 111.707 1195.69 109 1196.2 105.648H1189.22V103.516H1199.04C1199.04 109.105 1195.35 113.277 1189.22 115.234L1188.12 113.148ZM1191.78 122.664V115.891H1194.43V120.555H1206.12V122.664H1191.78Z" fill="black"/>
<path d="M1282 150H1462V50H1282V150Z" fill="white"/>
<path d="M1371.11 76.8574V89.2305H1369.6V76.8574H1371.11ZM1361.48 79.168V77.9375H1367.3V82.5723H1363.05V85.0605C1365 85.0469 1366.68 84.9443 1368.6 84.623L1368.74 85.8672C1366.64 86.2295 1364.8 86.3115 1362.57 86.3047H1361.49V81.3691H1365.76V79.168H1361.48ZM1384.19 83.9258V85.1562H1381.54V89.2168H1380.02V85.1562H1377.09V89.2168H1375.54V85.1562H1372.9V83.9258H1384.19ZM1374.26 82.668V77.3359H1375.77V78.8125H1381.29V77.3359H1382.82V82.668H1374.26ZM1375.77 81.4512H1381.29V80.002H1375.77V81.4512Z" fill="black"/>
<path d="M1364.42 104.031V121H1361.35V107.008H1361.25L1357.29 109.539V106.75L1361.49 104.031H1364.42ZM1385.58 101.922V117.461H1382.98V110.336H1378.9V108.18H1382.98V101.922H1385.58ZM1368.12 113.148C1372.68 111.707 1375.69 109 1376.2 105.648H1369.22V103.516H1379.04C1379.04 109.105 1375.35 113.277 1369.22 115.234L1368.12 113.148ZM1371.78 122.664V115.891H1374.43V120.555H1386.12V122.664H1371.78Z" fill="black"/>
<path d="M1462 150H1642V50H1462V150Z" fill="white"/>
<path d="M1535.25 78.1016V88H1533.46V79.8379H1533.4L1531.09 81.3145V79.6875L1533.54 78.1016H1535.25ZM1538.75 88.1094C1538.16 88.1094 1537.67 87.6309 1537.68 87.043C1537.67 86.4688 1538.16 85.9971 1538.75 85.9902C1539.31 85.9971 1539.8 86.4688 1539.8 87.043C1539.8 87.6309 1539.31 88.1094 1538.75 88.1094ZM1537.68 81.7383C1537.67 81.1641 1538.16 80.6924 1538.75 80.6855C1539.31 80.6924 1539.8 81.1641 1539.8 81.7383C1539.8 82.3262 1539.31 82.8047 1538.75 82.8047C1538.16 82.8047 1537.67 82.3262 1537.68 81.7383ZM1545.49 78.1016V88H1543.7V79.8379H1543.64L1541.33 81.3145V79.6875L1543.78 78.1016H1545.49ZM1562.08 83.0371V84.2539H1557.31V86.5234H1555.81V84.2539H1550.79V83.0371H1562.08ZM1552.16 88.9707V85.3887H1553.68V87.7402H1560.84V88.9707H1552.16ZM1552.23 81.8887V77.418H1560.63V81.8887H1552.23ZM1553.7 80.6992H1559.13V78.6074H1553.7V80.6992ZM1566.91 77.7188C1568.87 77.7119 1570.3 78.9492 1570.31 80.6992C1570.3 82.4561 1568.87 83.6865 1566.91 83.6934C1564.97 83.6865 1563.51 82.4561 1563.52 80.6992C1563.51 78.9492 1564.97 77.7119 1566.91 77.7188ZM1562.96 85.4023C1565.19 85.4023 1568.27 85.375 1570.94 84.9922L1571.07 86.0996C1568.3 86.626 1565.33 86.6465 1563.15 86.6465L1562.96 85.4023ZM1565.02 80.6992C1565.02 81.7314 1565.83 82.3672 1566.91 82.3672C1568 82.3672 1568.82 81.7314 1568.82 80.6992C1568.82 79.6738 1568.01 79.0312 1566.91 79.0312C1565.83 79.0312 1565.02 79.6738 1565.02 80.6992ZM1571.68 89.2305V76.8574H1573.2V89.2305H1571.68Z" fill="black"/>
<path d="M1544.42 104.031V121H1541.35V107.008H1541.25L1537.29 109.539V106.75L1541.49 104.031H1544.42ZM1565.58 101.922V117.461H1562.98V110.336H1558.9V108.18H1562.98V101.922H1565.58ZM1548.12 113.148C1552.68 111.707 1555.69 109 1556.2 105.648H1549.22V103.516H1559.04C1559.04 109.105 1555.35 113.277 1549.22 115.234L1548.12 113.148ZM1551.78 122.664V115.891H1554.43V120.555H1566.12V122.664H1551.78Z" fill="black"/>
</svg>
