<svg width="1920" height="800" viewBox="0 0 1920 800" fill="none" xmlns="http://www.w3.org/2000/svg">
<rect width="1920" height="800" fill="white"/>
<mask id="path-1-inside-1_14020_212" fill="white">
<path d="M486 315H606V355H486V315Z"/>
</mask>
<path d="M486 315H606V355H486V315Z" fill="white"/>
<path d="M606 354H486V356H606V354Z" fill="#E1E1E1" mask="url(#path-1-inside-1_14020_212)"/>
<mask id="path-3-inside-2_14020_212" fill="white">
<path d="M1522 315H1642V355H1522V315Z"/>
</mask>
<path d="M1522 315H1642V355H1522V315Z" fill="white"/>
<path d="M1642 354H1522V356H1642V354Z" fill="#E1E1E1" mask="url(#path-3-inside-2_14020_212)"/>
<mask id="path-5-inside-3_14020_212" fill="white">
<path d="M606 315H1522V355H606V315Z"/>
</mask>
<path d="M606 315H1522V355H606V315Z" fill="white"/>
<path d="M1522 354H606V356H1522V354Z" fill="#E1E1E1" mask="url(#path-5-inside-3_14020_212)"/>
<rect x="486" y="275" width="1156" height="40" fill="#F9FAFC"/>
<path d="M1043.1 63.5938V65.9844H1034.8V73.1562H1031.85V65.9844H1023.65V63.5938H1043.1ZM1024.61 60.0078C1028.92 59.4805 1031.31 57.3945 1031.63 55.2969H1025.41V52.9531H1041.37V55.2969H1035.14C1035.45 57.3945 1037.8 59.4805 1042.19 60.0078L1041.11 62.3516C1037.36 61.8477 1034.68 60.2539 1033.39 58.0625C1032.09 60.2539 1029.43 61.8477 1025.71 62.3516L1024.61 60.0078ZM1063.89 62.375V64.7422H1055.85V68.4219H1052.9V64.7422H1044.37V62.375H1063.89ZM1046.66 72.7812V66.5703H1049.64V70.3906H1061.73V72.7812H1046.66ZM1046.8 60.6172V52.7656H1061.38V60.6172H1046.8ZM1049.73 58.2969H1058.45V55.0859H1049.73V58.2969ZM1084.66 68.2578V70.6719H1065.13V68.2578H1073.38V63.5H1076.38V68.2578H1084.66ZM1065.93 62.0703C1070.36 61.3555 1073.01 58.6836 1073.27 55.8594H1066.75V53.4453H1082.95V55.8594H1076.45C1076.69 58.6719 1079.36 61.2852 1083.93 61.9531L1082.76 64.3203C1079.02 63.6641 1076.25 61.8477 1074.87 59.3164C1073.52 61.8828 1070.78 63.7695 1067.1 64.4375L1065.93 62.0703ZM1103.8 51.8281V73.1562H1100.83V51.8281H1103.8ZM1085.97 67.1328C1087.6 67.1211 1089.46 67.1211 1091.41 67.0742V65.2695C1089.07 64.8477 1087.55 63.3945 1087.56 61.3906C1087.55 59.0117 1089.72 57.3828 1092.86 57.3828C1096.02 57.3828 1098.23 59.0117 1098.23 61.3906C1098.23 63.3828 1096.7 64.8359 1094.36 65.2695V66.9688C1096.15 66.8867 1097.95 66.7461 1099.66 66.5234L1099.87 68.7266C1095.19 69.5352 1090.16 69.582 1086.37 69.5703L1085.97 67.1328ZM1086.39 56.5391V54.1953H1091.41V51.9219H1094.38V54.1953H1099.35V56.5391H1086.39ZM1090.4 61.3906C1090.39 62.5156 1091.41 63.125 1092.86 63.125C1094.36 63.125 1095.37 62.5156 1095.37 61.3906C1095.37 60.2891 1094.36 59.668 1092.86 59.6562C1091.41 59.668 1090.39 60.2891 1090.4 61.3906Z" fill="black"/>
<path d="M292.703 370.328V371.719H287.25V374.312H285.531V371.719H279.797V370.328H292.703ZM281.359 377.109V373.016H283.094V375.703H291.281V377.109H281.359ZM281.438 369.016V363.906H291.047V369.016H281.438ZM283.125 367.656H289.328V365.266H283.125V367.656ZM298.219 364.25C300.461 364.242 302.094 365.656 302.109 367.656C302.094 369.664 300.461 371.07 298.219 371.078C296 371.07 294.336 369.664 294.344 367.656C294.336 365.656 296 364.242 298.219 364.25ZM293.703 373.031C296.25 373.031 299.773 373 302.828 372.562L302.969 373.828C299.805 374.43 296.414 374.453 293.922 374.453L293.703 373.031ZM296.062 367.656C296.055 368.836 296.984 369.562 298.219 369.562C299.469 369.562 300.398 368.836 300.406 367.656C300.398 366.484 299.477 365.75 298.219 365.75C296.984 365.75 296.055 366.484 296.062 367.656ZM303.672 377.406V363.266H305.406V377.406H303.672ZM319.594 363.266V377.391H317.922V370.25H316.359V376.672H314.734V363.531H316.359V368.828H317.922V363.266H319.594ZM308.078 373.875V364.891H309.828V372.344C311.047 372.32 312.375 372.211 313.859 371.922L314.031 373.438C312.125 373.773 310.508 373.875 309.016 373.875H308.078ZM333.125 372.281V377.391H331.391V373.656H323.5V372.281H333.125ZM321.484 367.469C321.484 365.469 323.086 364.031 325.219 364.047C326.383 364.039 327.398 364.477 328.062 365.219H331.391V363.266H333.125V371.609H331.391V369.734H328.078C327.406 370.484 326.391 370.938 325.219 370.938C323.086 370.938 321.484 369.5 321.484 367.469ZM323.141 367.469C323.141 368.695 324.008 369.461 325.219 369.469C326.375 369.461 327.258 368.695 327.266 367.469C327.258 366.289 326.375 365.508 325.219 365.516C324.008 365.508 323.141 366.289 323.141 367.469ZM328.812 368.328H331.391V366.641H328.82C328.883 366.906 328.922 367.18 328.922 367.469C328.922 367.766 328.883 368.055 328.812 368.328Z" fill="black"/>
<path d="M282.43 390.102V400H281.186V391.387H281.131L278.725 392.986V391.742L281.186 390.102H282.43ZM285.916 400.082C285.438 400.075 285.027 399.679 285.041 399.193C285.027 398.715 285.438 398.318 285.916 398.318C286.401 398.318 286.798 398.715 286.791 399.193C286.798 399.679 286.401 400.075 285.916 400.082ZM285.041 393.697C285.027 393.219 285.438 392.822 285.916 392.822C286.401 392.822 286.798 393.219 286.791 393.697C286.798 394.183 286.401 394.579 285.916 394.586C285.438 394.579 285.027 394.183 285.041 393.697ZM292.123 390.102V400H290.879V391.387H290.824L288.418 392.986V391.742L290.879 390.102H292.123ZM305.439 395.174V396.062H300.49V398.551H299.424V396.062H294.311V395.174H305.439ZM295.732 400.848V397.348H296.812V399.945H304.195V400.848H295.732ZM295.76 393.779V389.555H303.99V393.779H295.76ZM296.812 392.918H302.924V390.402H296.812V392.918ZM310.402 389.842C312.31 389.849 313.663 391.011 313.67 392.699C313.663 394.395 312.31 395.55 310.402 395.557C308.481 395.55 307.114 394.395 307.121 392.699C307.114 391.011 308.481 389.849 310.402 389.842ZM306.492 397.539C308.734 397.546 311.831 397.525 314.518 397.129L314.6 397.922C311.817 398.441 308.83 398.455 306.643 398.455L306.492 397.539ZM308.174 392.699C308.167 393.834 309.104 394.613 310.402 394.613C311.688 394.613 312.624 393.834 312.617 392.699C312.624 391.571 311.688 390.785 310.402 390.785C309.104 390.785 308.167 391.571 308.174 392.699ZM315.324 401.135V388.953H316.391V401.135H315.324Z" fill="black"/>
<path d="M291.578 463.266V477.391H289.844V463.266H291.578ZM279.875 473.469C281 473.461 282.273 473.461 283.609 473.422V472.125C282.023 471.875 280.984 470.906 280.984 469.562C280.984 467.969 282.398 466.914 284.453 466.906C286.531 466.914 287.969 467.969 287.969 469.562C287.969 470.898 286.93 471.859 285.344 472.117V473.359C286.586 473.305 287.836 473.203 289.016 473.047L289.141 474.344C286.039 474.867 282.664 474.906 280.125 474.906L279.875 473.469ZM280.172 466.266V464.891H283.609V463.312H285.344V464.891H288.766V466.266H280.172ZM282.641 469.562C282.625 470.375 283.383 470.852 284.453 470.844C285.555 470.852 286.305 470.375 286.297 469.562C286.305 468.742 285.555 468.242 284.453 468.234C283.383 468.242 282.625 468.742 282.641 469.562ZM305.484 463.281V473.969H303.734V472.734H300.969V471.516H303.734V463.281H305.484ZM293.578 469.625C296.18 469.609 299.688 469.586 302.688 469.203L302.781 470.453C301.617 470.648 300.414 470.773 299.219 470.859V473.578H297.484V470.953C296.164 471.008 294.906 471.016 293.797 471.016L293.578 469.625ZM294.656 466.297C294.656 464.805 296.094 463.789 298.188 463.797C300.242 463.789 301.688 464.805 301.703 466.297C301.688 467.812 300.242 468.773 298.188 468.781C296.094 468.773 294.656 467.812 294.656 466.297ZM295.453 477.109V472.938H297.188V475.703H305.812V477.109H295.453ZM296.297 466.297C296.297 467.062 297.055 467.508 298.188 467.516C299.266 467.508 300.039 467.062 300.047 466.297C300.039 465.531 299.266 465.07 298.188 465.078C297.055 465.07 296.297 465.531 296.297 466.297ZM319.297 463.266V471.656H317.562V468.203H315.156V466.781H317.562V463.266H319.297ZM307.422 470.25C309.695 469.469 310.891 467.57 310.891 465.703V465.594H307.953V464.188H315.578V465.594H312.656V465.688C312.656 467.406 313.797 469.141 315.984 469.875L315.109 471.25C313.539 470.719 312.43 469.641 311.805 468.312C311.188 469.812 310.008 471.031 308.328 471.625L307.422 470.25ZM309.719 474.703C309.703 473.008 311.539 472.016 314.516 472.016C317.508 472.016 319.336 473.008 319.344 474.703C319.336 476.398 317.508 477.383 314.516 477.391C311.539 477.383 309.703 476.398 309.719 474.703ZM311.438 474.703C311.43 475.578 312.555 476.055 314.516 476.047C316.492 476.055 317.609 475.578 317.609 474.703C317.609 473.82 316.492 473.344 314.516 473.344C312.555 473.344 311.43 473.82 311.438 474.703ZM334.203 474.266V475.688H321.297V474.266H326.859V471.516H322.719V464.203H324.453V466.516H331V464.203H332.734V471.516H328.578V474.266H334.203ZM324.453 470.109H331V467.906H324.453V470.109Z" fill="black"/>
<path d="M288.459 488.953V501.107H287.393V488.953H288.459ZM278.561 497.867C279.6 497.86 280.789 497.854 282.02 497.812V496.486C280.557 496.336 279.613 495.502 279.627 494.285C279.613 492.911 280.782 492.022 282.539 492.029C284.296 492.022 285.485 492.911 285.479 494.285C285.485 495.488 284.542 496.322 283.1 496.486V497.771C284.275 497.717 285.465 497.635 286.586 497.484L286.668 498.305C283.954 498.742 280.98 498.783 278.725 498.783L278.561 497.867ZM278.82 491.332V490.457H282.02V488.967H283.1V490.457H286.271V491.332H278.82ZM280.625 494.285C280.618 495.126 281.411 495.68 282.539 495.666C283.674 495.68 284.46 495.126 284.453 494.285C284.46 493.438 283.674 492.863 282.539 492.863C281.411 492.863 280.618 493.438 280.625 494.285ZM300.613 488.967V498.195H299.533V496.938H297.018V496.158H299.533V488.967H300.613ZM290.523 494.6C292.786 494.586 295.835 494.565 298.439 494.244L298.508 495.023C297.428 495.194 296.286 495.304 295.172 495.372V497.771H294.092V495.427C292.861 495.475 291.692 495.475 290.674 495.475L290.523 494.6ZM291.508 491.578C291.501 490.3 292.718 489.459 294.516 489.459C296.3 489.459 297.517 490.3 297.523 491.578C297.517 492.877 296.3 493.684 294.516 493.684C292.718 493.684 291.501 492.877 291.508 491.578ZM292.273 500.848V497.293H293.354V499.945H300.914V500.848H292.273ZM292.533 491.578C292.52 492.371 293.326 492.884 294.516 492.891C295.671 492.884 296.491 492.371 296.498 491.578C296.491 490.799 295.671 490.266 294.516 490.279C293.326 490.266 292.52 490.799 292.533 491.578ZM312.768 488.953V496.199H311.688V493.014H309.24V492.125H311.688V488.953H312.768ZM302.746 495.229C304.551 494.579 305.836 492.932 305.836 491.195V490.744H303.088V489.842H309.637V490.744H306.916V491.182C306.916 492.768 308.133 494.278 309.91 494.887L309.35 495.748C307.989 495.256 306.93 494.23 306.403 492.979C305.884 494.401 304.756 495.536 303.307 496.09L302.746 495.229ZM304.66 498.838C304.653 497.409 306.205 496.575 308.734 496.582C311.257 496.575 312.809 497.409 312.809 498.838C312.809 500.273 311.257 501.094 308.734 501.107C306.205 501.094 304.653 500.273 304.66 498.838ZM305.727 498.838C305.72 499.72 306.868 500.253 308.734 500.246C310.594 500.253 311.742 499.72 311.742 498.838C311.742 497.949 310.594 497.416 308.734 497.416C306.868 497.416 305.72 497.949 305.727 498.838ZM325.92 498.66V499.549H314.791V498.66H319.795V496.035H316.104V489.814H317.184V492.016H323.5V489.814H324.553V496.035H320.848V498.66H325.92ZM317.184 495.16H323.5V492.891H317.184V495.16ZM332.988 490.088C332.995 491.804 335.224 493.28 337.418 493.588L336.98 494.463C335.094 494.148 333.221 493.103 332.441 491.612C331.662 493.116 329.796 494.148 327.902 494.463L327.465 493.588C329.659 493.28 331.881 491.831 331.881 490.088V489.391H332.988V490.088ZM326.891 496.705V495.803H337.965V496.705H332.934V501.107H331.881V496.705H326.891ZM349.066 488.953V496.199H347.986V493.014H345.539V492.125H347.986V488.953H349.066ZM339.045 495.229C340.85 494.579 342.135 492.932 342.135 491.195V490.744H339.387V489.842H345.936V490.744H343.215V491.182C343.215 492.768 344.432 494.278 346.209 494.887L345.648 495.748C344.288 495.256 343.229 494.23 342.702 492.979C342.183 494.401 341.055 495.536 339.605 496.09L339.045 495.229ZM340.959 498.838C340.952 497.409 342.504 496.575 345.033 496.582C347.556 496.575 349.107 497.409 349.107 498.838C349.107 500.273 347.556 501.094 345.033 501.107C342.504 501.094 340.952 500.273 340.959 498.838ZM342.025 498.838C342.019 499.72 343.167 500.253 345.033 500.246C346.893 500.253 348.041 499.72 348.041 498.838C348.041 497.949 346.893 497.416 345.033 497.416C343.167 497.416 342.019 497.949 342.025 498.838ZM279.969 512.115V515.082H282.607V512.115H283.605V520.072H278.943V512.115H279.969ZM279.969 519.184H282.607V515.957H279.969V519.184ZM285.15 522.492V511.213H286.176V515.779H287.871V510.953H288.91V523.107H287.871V516.668H286.176V522.492H285.15ZM296.648 515.205V516.996H301.666V517.871H290.592V516.996H295.596V515.205H296.648ZM291.262 514.986C293.408 514.692 295.582 513.339 295.582 511.719V511.145H296.662V511.719C296.662 513.339 298.85 514.692 300.996 514.986L300.559 515.848C298.72 515.526 296.888 514.549 296.129 513.147C295.363 514.562 293.538 515.526 291.672 515.848L291.262 514.986ZM291.932 520.988C291.925 519.642 293.49 518.89 296.129 518.883C298.74 518.89 300.299 519.642 300.312 520.988C300.299 522.342 298.74 523.08 296.129 523.08C293.49 523.08 291.925 522.342 291.932 520.988ZM293.025 520.988C293.012 521.788 294.16 522.253 296.129 522.246C298.077 522.253 299.226 521.788 299.232 520.988C299.226 520.182 298.077 519.73 296.129 519.73C294.16 519.73 293.012 520.182 293.025 520.988ZM307.039 514.686C307.046 516.75 308.543 518.849 310.334 519.621L309.732 520.469C308.311 519.826 307.087 518.425 306.52 516.743C305.952 518.527 304.722 520.072 303.334 520.77L302.691 519.922C304.435 519.088 305.952 516.791 305.959 514.686V513.1H303.088V512.211H309.938V513.1H307.039V514.686ZM311.633 523.107V510.953H312.713V523.107H311.633ZM325.045 511.896V512.539C325.038 513.339 325.038 514.549 324.73 516.135L323.65 516.053C323.944 514.604 323.972 513.571 323.985 512.799H318.988V511.896H325.045ZM318.236 517.27C319.022 517.27 319.911 517.263 320.848 517.235V514.59H321.914V517.201C323.261 517.146 324.655 517.051 325.92 516.873L325.988 517.666C323.438 518.104 320.513 518.151 318.346 518.158L318.236 517.27ZM320.109 522.848V519.279H321.189V521.945H328.23V522.848H320.109ZM326.74 520.1V510.953H327.834V514.918H329.611V515.834H327.834V520.1H326.74ZM340.439 510.953V523.135H339.373V510.953H340.439ZM331.088 512.977V512.088H336.748V516.408H332.209V519.279C334.226 519.286 336.023 519.19 338.197 518.842L338.307 519.744C336.071 520.093 334.226 520.182 332.127 520.182H331.115V515.533H335.668V512.977H331.088ZM288.459 532.953V545.107H287.393V532.953H288.459ZM278.561 541.867C279.6 541.86 280.789 541.854 282.02 541.812V540.486C280.557 540.336 279.613 539.502 279.627 538.285C279.613 536.911 280.782 536.022 282.539 536.029C284.296 536.022 285.485 536.911 285.479 538.285C285.485 539.488 284.542 540.322 283.1 540.486V541.771C284.275 541.717 285.465 541.635 286.586 541.484L286.668 542.305C283.954 542.742 280.98 542.783 278.725 542.783L278.561 541.867ZM278.82 535.332V534.457H282.02V532.967H283.1V534.457H286.271V535.332H278.82ZM280.625 538.285C280.618 539.126 281.411 539.68 282.539 539.666C283.674 539.68 284.46 539.126 284.453 538.285C284.46 537.438 283.674 536.863 282.539 536.863C281.411 536.863 280.618 537.438 280.625 538.285ZM300.613 532.967V542.195H299.533V540.938H297.018V540.158H299.533V532.967H300.613ZM290.523 538.6C292.786 538.586 295.835 538.565 298.439 538.244L298.508 539.023C297.428 539.194 296.286 539.304 295.172 539.372V541.771H294.092V539.427C292.861 539.475 291.692 539.475 290.674 539.475L290.523 538.6ZM291.508 535.578C291.501 534.3 292.718 533.459 294.516 533.459C296.3 533.459 297.517 534.3 297.523 535.578C297.517 536.877 296.3 537.684 294.516 537.684C292.718 537.684 291.501 536.877 291.508 535.578ZM292.273 544.848V541.293H293.354V543.945H300.914V544.848H292.273ZM292.533 535.578C292.52 536.371 293.326 536.884 294.516 536.891C295.671 536.884 296.491 536.371 296.498 535.578C296.491 534.799 295.671 534.266 294.516 534.279C293.326 534.266 292.52 534.799 292.533 535.578ZM308.857 533.568V534.443H304.332V535.756H308.625V536.59H304.332V537.998C306.752 537.998 308.071 537.95 309.691 537.684L309.801 538.545C308.105 538.825 306.725 538.873 304.182 538.873H303.266V533.568H308.857ZM304.441 540.76V539.898H312.193V542.756H305.521V544.109H312.645V544.971H304.469V541.936H311.127V540.76H304.441ZM311.127 539.311V532.953H312.193V535.619H314.025V536.508H312.193V539.311H311.127ZM322.16 538.818V539.693H319.412V541.662C320.581 541.607 321.771 541.512 322.885 541.348L322.967 542.141C320.185 542.646 317.197 542.646 315.01 542.66L314.859 541.758C315.878 541.751 317.081 541.744 318.346 541.703V539.693H315.789V534.061H322.105V534.936H316.869V536.426H321.846V537.273H316.869V538.818H322.16ZM323.691 545.135V532.953H324.758V545.135H323.691Z" fill="black"/>
<path d="M288.5 607.992V609.182C288.486 610.72 288.486 612.436 288.008 615.02L286.477 614.855C286.962 612.449 286.962 610.692 286.969 609.209H279.586V607.992H288.5ZM278.41 617.617V616.373H282.566V612.08H284.07V616.373H289.676V617.617H278.41ZM301.078 606.871V614.117H299.629V611.041H298.33V614.062H296.895V607.104H298.33V609.797H299.629V606.871H301.078ZM290.441 613.092C292.854 612.169 294.105 610.768 294.352 608.963H291.002V607.732H295.896C295.903 610.795 294.358 612.928 291.166 614.227L290.441 613.092ZM292.561 615.854V614.623H301.078V619.217H299.561V615.854H292.561ZM313.178 606.857V616.113H311.729V606.857H313.178ZM302.527 613.297C304.175 612.497 304.947 610.856 304.947 609.387V607.705H306.424V609.387C306.424 610.829 307.135 612.265 308.707 612.969L307.859 614.145C306.82 613.659 306.109 612.825 305.699 611.82C305.262 612.955 304.489 613.919 303.361 614.445L302.527 613.297ZM304.906 618.971V615.006H306.424V617.74H313.52V618.971H304.906ZM307.6 611.041V609.797H309.254V607.076H310.703V615.744H309.254V611.041H307.6ZM325.072 606.857V619.23H323.568V612.559H321.244V611.328H323.568V606.857H325.072ZM315.27 616.387V607.924H321.053V609.168H316.801V611.383H320.561V612.586H316.801V615.129C318.681 615.122 320.089 615.054 321.682 614.801L321.832 616.031C320.034 616.305 318.448 616.373 316.24 616.387H315.27ZM283.748 640.176C280.681 640.176 278.853 637.803 278.861 633.637C278.853 629.488 280.698 627.098 283.748 627.098C286.798 627.098 288.635 629.488 288.635 633.637C288.635 637.812 286.807 640.176 283.748 640.176ZM281.164 633.637C281.164 636.695 282.148 638.251 283.748 638.26C285.339 638.251 286.332 636.695 286.332 633.637C286.323 630.604 285.339 629.005 283.748 628.996C282.157 629.005 281.173 630.604 281.164 633.637ZM295.068 640.176C292.528 640.176 290.656 638.655 290.586 636.555H292.818C292.889 637.583 293.864 638.321 295.068 638.33C296.492 638.321 297.521 637.293 297.512 635.887C297.521 634.428 296.466 633.399 294.998 633.391C294.005 633.382 293.284 633.733 292.889 634.48H290.762L291.535 627.273H299.059V629.189H293.416L293.029 632.564H293.152C293.645 632.011 294.567 631.606 295.613 631.598C297.978 631.606 299.735 633.364 299.727 635.816C299.735 638.356 297.819 640.176 295.068 640.176ZM306.828 627.273V640H304.525V629.506H304.455L301.484 631.404V629.312L304.631 627.273H306.828ZM315.723 632.723V634.568H309.992V632.723H315.723ZM322.596 640.176C319.528 640.176 317.7 637.803 317.709 633.637C317.7 629.488 319.546 627.098 322.596 627.098C325.646 627.098 327.482 629.488 327.482 633.637C327.482 637.812 325.654 640.176 322.596 640.176ZM320.012 633.637C320.012 636.695 320.996 638.251 322.596 638.26C324.187 638.251 325.18 636.695 325.18 633.637C325.171 630.604 324.187 629.005 322.596 628.996C321.005 629.005 320.021 630.604 320.012 633.637ZM334.092 640.176C331.024 640.176 329.196 637.803 329.205 633.637C329.196 629.488 331.042 627.098 334.092 627.098C337.142 627.098 338.979 629.488 338.979 633.637C338.979 637.812 337.15 640.176 334.092 640.176ZM331.508 633.637C331.508 636.695 332.492 638.251 334.092 638.26C335.683 638.251 336.676 636.695 336.676 633.637C336.667 630.604 335.683 629.005 334.092 628.996C332.501 629.005 331.517 630.604 331.508 633.637ZM345.588 640.176C342.521 640.176 340.692 637.803 340.701 633.637C340.692 629.488 342.538 627.098 345.588 627.098C348.638 627.098 350.475 629.488 350.475 633.637C350.475 637.812 348.646 640.176 345.588 640.176ZM343.004 633.637C343.004 636.695 343.988 638.251 345.588 638.26C347.179 638.251 348.172 636.695 348.172 633.637C348.163 630.604 347.179 629.005 345.588 628.996C343.997 629.005 343.013 630.604 343.004 633.637ZM358.191 632.723V634.568H352.461V632.723H358.191ZM365.064 640.176C361.997 640.176 360.169 637.803 360.178 633.637C360.169 629.488 362.015 627.098 365.064 627.098C368.114 627.098 369.951 629.488 369.951 633.637C369.951 637.812 368.123 640.176 365.064 640.176ZM362.48 633.637C362.48 636.695 363.465 638.251 365.064 638.26C366.655 638.251 367.648 636.695 367.648 633.637C367.64 630.604 366.655 629.005 365.064 628.996C363.474 629.005 362.489 630.604 362.48 633.637ZM376.561 640.176C373.493 640.176 371.665 637.803 371.674 633.637C371.665 629.488 373.511 627.098 376.561 627.098C379.61 627.098 381.447 629.488 381.447 633.637C381.447 637.812 379.619 640.176 376.561 640.176ZM373.977 633.637C373.977 636.695 374.961 638.251 376.561 638.26C378.151 638.251 379.145 636.695 379.145 633.637C379.136 630.604 378.151 629.005 376.561 628.996C374.97 629.005 373.985 630.604 373.977 633.637ZM388.057 640.176C384.989 640.176 383.161 637.803 383.17 633.637C383.161 629.488 385.007 627.098 388.057 627.098C391.106 627.098 392.943 629.488 392.943 633.637C392.943 637.812 391.115 640.176 388.057 640.176ZM385.473 633.637C385.473 636.695 386.457 638.251 388.057 638.26C389.647 638.251 390.641 636.695 390.641 633.637C390.632 630.604 389.647 629.005 388.057 628.996C386.466 629.005 385.481 630.604 385.473 633.637ZM399.553 640.176C396.485 640.176 394.657 637.803 394.666 633.637C394.657 629.488 396.503 627.098 399.553 627.098C402.603 627.098 404.439 629.488 404.439 633.637C404.439 637.812 402.611 640.176 399.553 640.176ZM396.969 633.637C396.969 636.695 397.953 638.251 399.553 638.26C401.144 638.251 402.137 636.695 402.137 633.637C402.128 630.604 401.144 629.005 399.553 628.996C397.962 629.005 396.978 630.604 396.969 633.637Z" fill="black"/>
<path d="M285.314 654.883V655.771H284.07V659.661C284.631 659.62 285.185 659.572 285.711 659.504L285.766 660.324C283.394 660.687 280.632 660.728 278.656 660.721L278.52 659.818C279.005 659.818 279.531 659.818 280.092 659.812V655.771H278.861V654.883H285.314ZM280.461 663.893C280.454 662.505 281.992 661.712 284.535 661.719C287.078 661.712 288.609 662.505 288.609 663.893C288.609 665.28 287.078 666.08 284.535 666.08C281.992 666.08 280.454 665.28 280.461 663.893ZM281.131 659.791C281.753 659.777 282.396 659.757 283.031 659.723V655.771H281.131V659.791ZM281.527 663.893C281.521 664.74 282.662 665.232 284.535 665.232C286.401 665.232 287.543 664.74 287.543 663.893C287.543 663.059 286.401 662.553 284.535 662.553C282.662 662.553 281.521 663.059 281.527 663.893ZM285.438 659.203V658.314H287.488V657.029H285.438V656.141H287.488V653.953H288.568V661.459H287.488V659.203H285.438ZM294.037 654.404C295.855 654.411 297.175 655.519 297.182 657.098C297.175 658.684 295.855 659.777 294.037 659.777C292.198 659.777 290.872 658.684 290.879 657.098C290.872 655.519 292.198 654.411 294.037 654.404ZM291.932 657.098C291.918 658.164 292.813 658.902 294.037 658.902C295.24 658.902 296.143 658.164 296.143 657.098C296.143 656.045 295.24 655.3 294.037 655.307C292.813 655.3 291.918 656.045 291.932 657.098ZM292.725 661.65V660.789H300.627V663.715H293.805V665.082H301.064V665.943H292.752V662.908H299.561V661.65H292.725ZM299.561 660.201V653.953H300.627V660.201H299.561ZM309.883 665.137C307.688 665.137 306.417 663.291 306.424 660.051C306.417 656.838 307.702 654.965 309.883 654.965C312.057 654.965 313.342 656.838 313.342 660.051C313.342 663.291 312.077 665.137 309.883 665.137ZM307.613 660.051C307.62 662.614 308.447 664.043 309.883 664.043C311.312 664.043 312.146 662.614 312.139 660.051C312.146 657.487 311.305 656.038 309.883 656.031C308.461 656.038 307.62 657.487 307.613 660.051ZM318.277 654.965C319.979 654.985 321.873 656.011 321.873 659.654C321.873 663.175 320.431 665.137 318.113 665.137C316.37 665.137 315.146 664.07 314.9 662.498H316.117C316.336 663.387 317.013 664.043 318.113 664.043C319.727 664.043 320.711 662.648 320.725 660.242H320.588C320.021 661.062 319.111 661.555 318.059 661.555C316.288 661.555 314.818 660.194 314.818 658.287C314.818 656.441 316.172 654.944 318.277 654.965ZM316.021 658.273C316.015 659.497 316.944 660.475 318.236 660.475C319.528 660.475 320.533 659.408 320.533 658.246C320.533 657.111 319.583 656.045 318.277 656.045C316.985 656.045 316.008 657.05 316.021 658.273ZM324.416 665.082C323.938 665.075 323.527 664.679 323.541 664.193C323.527 663.715 323.938 663.318 324.416 663.318C324.901 663.318 325.298 663.715 325.291 664.193C325.298 664.679 324.901 665.075 324.416 665.082ZM323.541 658.697C323.527 658.219 323.938 657.822 324.416 657.822C324.901 657.822 325.298 658.219 325.291 658.697C325.298 659.183 324.901 659.579 324.416 659.586C323.938 659.579 323.527 659.183 323.541 658.697ZM330.363 665.137C328.169 665.137 326.897 663.291 326.904 660.051C326.897 656.838 328.183 654.965 330.363 654.965C332.537 654.965 333.822 656.838 333.822 660.051C333.822 663.291 332.558 665.137 330.363 665.137ZM328.094 660.051C328.101 662.614 328.928 664.043 330.363 664.043C331.792 664.043 332.626 662.614 332.619 660.051C332.626 657.487 331.785 656.038 330.363 656.031C328.941 656.038 328.101 657.487 328.094 660.051ZM338.703 665.137C336.509 665.137 335.237 663.291 335.244 660.051C335.237 656.838 336.522 654.965 338.703 654.965C340.877 654.965 342.162 656.838 342.162 660.051C342.162 663.291 340.897 665.137 338.703 665.137ZM336.434 660.051C336.44 662.614 337.268 664.043 338.703 664.043C340.132 664.043 340.966 662.614 340.959 660.051C340.966 657.487 340.125 656.038 338.703 656.031C337.281 656.038 336.44 657.487 336.434 660.051ZM347.713 660.939C348.157 660.427 348.697 660.167 349.299 660.16C350.338 660.167 351.281 660.946 352.279 660.953C352.895 660.946 353.428 660.659 353.838 660.092V661.227C353.387 661.739 352.854 662.006 352.252 662.006C351.213 662.006 350.263 661.22 349.258 661.213C348.656 661.22 348.13 661.507 347.713 662.074V660.939ZM363.107 655.102V665H361.863V656.387H361.809L359.402 657.986V656.742L361.863 655.102H363.107ZM369.055 665.137C366.97 665.137 365.534 663.981 365.541 662.375C365.534 661.097 366.423 660.037 367.551 659.859V659.805C366.566 659.579 365.917 658.67 365.924 657.59C365.917 656.079 367.243 654.965 369.055 654.965C370.859 654.965 372.186 656.079 372.199 657.59C372.186 658.67 371.529 659.579 370.559 659.805V659.859C371.68 660.037 372.568 661.097 372.582 662.375C372.568 663.981 371.119 665.137 369.055 665.137ZM366.771 662.307C366.751 663.346 367.633 664.05 369.055 664.057C370.47 664.05 371.352 663.346 371.352 662.307C371.352 661.213 370.388 660.406 369.055 660.406C367.729 660.406 366.751 661.213 366.771 662.307ZM367.113 657.686C367.12 658.684 367.92 659.36 369.055 659.367C370.183 659.36 370.996 658.684 370.996 657.686C370.996 656.694 370.21 656.024 369.055 656.031C367.879 656.024 367.12 656.694 367.113 657.686ZM375.084 665.082C374.605 665.075 374.195 664.679 374.209 664.193C374.195 663.715 374.605 663.318 375.084 663.318C375.569 663.318 375.966 663.715 375.959 664.193C375.966 664.679 375.569 665.075 375.084 665.082ZM374.209 658.697C374.195 658.219 374.605 657.822 375.084 657.822C375.569 657.822 375.966 658.219 375.959 658.697C375.966 659.183 375.569 659.579 375.084 659.586C374.605 659.579 374.195 659.183 374.209 658.697ZM381.031 665.137C378.837 665.137 377.565 663.291 377.572 660.051C377.565 656.838 378.851 654.965 381.031 654.965C383.205 654.965 384.49 656.838 384.49 660.051C384.49 663.291 383.226 665.137 381.031 665.137ZM378.762 660.051C378.769 662.614 379.596 664.043 381.031 664.043C382.46 664.043 383.294 662.614 383.287 660.051C383.294 657.487 382.453 656.038 381.031 656.031C379.609 656.038 378.769 657.487 378.762 660.051ZM389.371 665.137C387.177 665.137 385.905 663.291 385.912 660.051C385.905 656.838 387.19 654.965 389.371 654.965C391.545 654.965 392.83 656.838 392.83 660.051C392.83 663.291 391.565 665.137 389.371 665.137ZM387.102 660.051C387.108 662.614 387.936 664.043 389.371 664.043C390.8 664.043 391.634 662.614 391.627 660.051C391.634 657.487 390.793 656.038 389.371 656.031C387.949 656.038 387.108 657.487 387.102 660.051ZM288.568 671.953V679.076H287.488V675.904H285.027V675.002H287.488V671.953H288.568ZM278.547 678.105C280.338 677.47 281.637 675.843 281.637 674.113V673.635H278.889V672.746H285.438V673.635H282.717V674.113C282.717 675.679 283.934 677.196 285.711 677.832L285.15 678.68C283.783 678.181 282.724 677.162 282.197 675.904C281.671 677.312 280.55 678.427 279.107 678.953L278.547 678.105ZM280.625 683.943V679.678H288.568V683.943H280.625ZM281.691 683.068H287.516V680.539H281.691V683.068ZM300.627 671.967V678.871H299.561V671.967H300.627ZM290.688 677.709C292.526 677.066 293.805 675.419 293.805 673.635V672.445H294.898V673.635C294.885 675.351 296.197 676.868 297.988 677.504L297.441 678.324C296.033 677.839 294.905 676.813 294.358 675.487C293.818 676.896 292.684 678.017 291.234 678.557L290.688 677.709ZM292.725 683.943V679.568H300.627V683.943H292.725ZM293.777 683.068H299.574V680.443H293.777V683.068ZM307.012 675.221C307.005 677.442 308.516 679.671 310.307 680.484L309.65 681.332C308.263 680.662 307.066 679.22 306.485 677.49C305.925 679.322 304.729 680.86 303.307 681.578L302.623 680.676C304.435 679.849 305.932 677.524 305.945 675.221V673.006H307.012V675.221ZM311.633 684.135V671.953H312.713V684.135H311.633ZM324.293 671.953V675.658H326.125V676.561H324.293V680.854H323.213V671.953H324.293ZM314.805 678.584C317.724 677.675 319.617 675.945 319.843 673.799H315.311V672.896H321.012C321.012 676.027 318.776 678.352 315.27 679.445L314.805 678.584ZM316.678 683.848V679.951H317.744V682.945H324.854V683.848H316.678ZM334.342 673.102V683H333.098V674.387H333.043L330.637 675.986V674.742L333.098 673.102H334.342ZM336.98 683L336.967 682.098L340.344 678.543C341.513 677.299 342.073 676.629 342.08 675.713C342.073 674.694 341.226 674.038 340.111 674.031C338.929 674.038 338.19 674.783 338.184 675.891H337.021C337.008 674.141 338.361 672.965 340.152 672.965C341.95 672.965 343.222 674.175 343.229 675.713C343.222 676.82 342.709 677.682 340.959 679.486L338.689 681.824V681.906H343.406V683H336.98ZM346.045 683.082C345.566 683.075 345.156 682.679 345.17 682.193C345.156 681.715 345.566 681.318 346.045 681.318C346.53 681.318 346.927 681.715 346.92 682.193C346.927 682.679 346.53 683.075 346.045 683.082ZM345.17 676.697C345.156 676.219 345.566 675.822 346.045 675.822C346.53 675.822 346.927 676.219 346.92 676.697C346.927 677.183 346.53 677.579 346.045 677.586C345.566 677.579 345.156 677.183 345.17 676.697ZM351.992 683.137C349.798 683.137 348.526 681.291 348.533 678.051C348.526 674.838 349.812 672.965 351.992 672.965C354.166 672.965 355.451 674.838 355.451 678.051C355.451 681.291 354.187 683.137 351.992 683.137ZM349.723 678.051C349.729 680.614 350.557 682.043 351.992 682.043C353.421 682.043 354.255 680.614 354.248 678.051C354.255 675.487 353.414 674.038 351.992 674.031C350.57 674.038 349.729 675.487 349.723 678.051ZM360.332 683.137C358.138 683.137 356.866 681.291 356.873 678.051C356.866 674.838 358.151 672.965 360.332 672.965C362.506 672.965 363.791 674.838 363.791 678.051C363.791 681.291 362.526 683.137 360.332 683.137ZM358.062 678.051C358.069 680.614 358.896 682.043 360.332 682.043C361.761 682.043 362.595 680.614 362.588 678.051C362.595 675.487 361.754 674.038 360.332 674.031C358.91 674.038 358.069 675.487 358.062 678.051ZM369.342 678.939C369.786 678.427 370.326 678.167 370.928 678.16C371.967 678.167 372.91 678.946 373.908 678.953C374.523 678.946 375.057 678.659 375.467 678.092V679.227C375.016 679.739 374.482 680.006 373.881 680.006C372.842 680.006 371.892 679.22 370.887 679.213C370.285 679.22 369.759 679.507 369.342 680.074V678.939ZM384.736 673.102V683H383.492V674.387H383.438L381.031 675.986V674.742L383.492 673.102H384.736ZM390.793 683.137C388.824 683.137 387.409 682.084 387.348 680.512H388.592C388.66 681.455 389.597 682.043 390.779 682.043C392.085 682.043 393.028 681.339 393.035 680.307C393.028 679.227 392.167 678.468 390.629 678.461H389.822V677.381H390.629C391.832 677.381 392.673 676.704 392.666 675.686C392.673 674.694 391.948 674.038 390.82 674.031C389.761 674.038 388.797 674.619 388.742 675.59H387.553C387.614 674.018 389.077 672.965 390.834 672.965C392.721 672.965 393.869 674.202 393.855 675.617C393.869 676.745 393.213 677.565 392.174 677.859V677.928C393.466 678.126 394.245 679.049 394.238 680.307C394.245 681.934 392.769 683.137 390.793 683.137ZM396.863 683.082C396.385 683.075 395.975 682.679 395.988 682.193C395.975 681.715 396.385 681.318 396.863 681.318C397.349 681.318 397.745 681.715 397.738 682.193C397.745 682.679 397.349 683.075 396.863 683.082ZM395.988 676.697C395.975 676.219 396.385 675.822 396.863 675.822C397.349 675.822 397.745 676.219 397.738 676.697C397.745 677.183 397.349 677.579 396.863 677.586C396.385 677.579 395.975 677.183 395.988 676.697ZM402.811 683.137C400.616 683.137 399.345 681.291 399.352 678.051C399.345 674.838 400.63 672.965 402.811 672.965C404.984 672.965 406.27 674.838 406.27 678.051C406.27 681.291 405.005 683.137 402.811 683.137ZM400.541 678.051C400.548 680.614 401.375 682.043 402.811 682.043C404.239 682.043 405.073 680.614 405.066 678.051C405.073 675.487 404.232 674.038 402.811 674.031C401.389 674.038 400.548 675.487 400.541 678.051ZM411.15 683.137C408.956 683.137 407.685 681.291 407.691 678.051C407.685 674.838 408.97 672.965 411.15 672.965C413.324 672.965 414.609 674.838 414.609 678.051C414.609 681.291 413.345 683.137 411.15 683.137ZM408.881 678.051C408.888 680.614 409.715 682.043 411.15 682.043C412.579 682.043 413.413 680.614 413.406 678.051C413.413 675.487 412.572 674.038 411.15 674.031C409.729 674.038 408.888 675.487 408.881 678.051Z" fill="black"/>
<path d="M284.631 691.676C284.624 693.303 286.791 694.684 288.91 694.998L288.514 695.846C286.62 695.524 284.768 694.513 284.029 693.05C283.291 694.513 281.438 695.524 279.572 695.846L279.148 694.998C281.261 694.684 283.421 693.303 283.428 691.676V691.594H279.531V690.719H288.514V691.594H284.631V691.676ZM278.492 697.773V696.885H289.566V697.773H284.535V702.107H283.482V697.773H278.492ZM300.094 689.953V692.592H301.926V693.494H300.094V696.146H299.027V689.953H300.094ZM291.111 695.504V690.65H296.73V695.504H291.111ZM292.164 694.643H295.691V691.525H292.164V694.643ZM292.342 697.582V696.721H300.094V699.688H293.422V701.082H300.545V701.943H292.369V698.867H299.027V697.582H292.342ZM304.688 700.084L303.621 703.803H302.609L303.361 700.084H304.688ZM315.283 697.637C317.888 697.637 319.542 698.457 319.549 699.865C319.542 701.26 317.888 702.08 315.283 702.08C312.679 702.08 311.024 701.26 311.031 699.865C311.024 698.457 312.679 697.637 315.283 697.637ZM309.801 696.502V695.627H314.381V693.275H315.434V695.627H320.861V696.502H309.801ZM311.113 691.457V690.582H319.453V691.607C319.446 692.592 319.446 693.576 319.111 694.834L318.059 694.711C318.387 693.46 318.387 692.558 318.387 691.607V691.457H311.113ZM312.098 699.865C312.091 700.713 313.349 701.232 315.283 701.232C317.225 701.232 318.469 700.713 318.482 699.865C318.469 698.997 317.225 698.464 315.283 698.457C313.349 698.464 312.091 698.997 312.098 699.865ZM332.318 691.307V692.182H322.461V691.307H326.891V689.885H327.943V691.307H332.318ZM321.887 698.607V697.719H333.016V698.607H330.076V702.135H329.01V698.607H325.865V702.135H324.785V698.607H321.887ZM323.459 694.889C323.445 693.597 324.936 692.879 327.424 692.879C329.892 692.879 331.382 693.597 331.389 694.889C331.382 696.174 329.892 696.898 327.424 696.898C324.936 696.898 323.445 696.174 323.459 694.889ZM324.566 694.889C324.553 695.634 325.612 696.071 327.424 696.064C329.215 696.071 330.268 695.634 330.281 694.889C330.268 694.137 329.215 693.713 327.424 693.699C325.612 693.713 324.553 694.137 324.566 694.889ZM337.432 690.404C339.25 690.411 340.569 691.519 340.576 693.098C340.569 694.684 339.25 695.777 337.432 695.777C335.593 695.777 334.267 694.684 334.273 693.098C334.267 691.519 335.593 690.411 337.432 690.404ZM335.326 693.098C335.312 694.164 336.208 694.902 337.432 694.902C338.635 694.902 339.537 694.164 339.537 693.098C339.537 692.045 338.635 691.3 337.432 691.307C336.208 691.3 335.312 692.045 335.326 693.098ZM336.119 697.65V696.789H344.021V699.715H337.199V701.082H344.459V701.943H336.146V698.908H342.955V697.65H336.119ZM342.955 696.201V689.953H344.021V696.201H342.955ZM360.031 691.307V692.182H350.174V691.307H354.604V689.885H355.656V691.307H360.031ZM349.6 698.607V697.719H360.729V698.607H357.789V702.135H356.723V698.607H353.578V702.135H352.498V698.607H349.6ZM351.172 694.889C351.158 693.597 352.648 692.879 355.137 692.879C357.604 692.879 359.095 693.597 359.102 694.889C359.095 696.174 357.604 696.898 355.137 696.898C352.648 696.898 351.158 696.174 351.172 694.889ZM352.279 694.889C352.266 695.634 353.325 696.071 355.137 696.064C356.928 696.071 357.98 695.634 357.994 694.889C357.98 694.137 356.928 693.713 355.137 693.699C353.325 693.713 352.266 694.137 352.279 694.889ZM372.814 697.021V697.91H367.742V702.107H366.689V697.91H361.686V697.021H372.814ZM363.121 695.367V690.637H371.365V695.367H363.121ZM364.174 694.52H370.299V691.512H364.174V694.52Z" fill="#E80303"/>
<path d="M292.688 249.141V250.547H287.078V255.375H285.359V250.547H279.812V249.141H292.688ZM280.484 246.828C283.258 246.477 285.117 244.984 285.242 243.438H281V242.062H291.5V243.438H287.258C287.375 244.984 289.219 246.477 292.016 246.828L291.391 248.188C288.984 247.844 287.109 246.742 286.25 245.219C285.383 246.742 283.523 247.844 281.141 248.188L280.484 246.828ZM306.531 248.328V249.719H301.078V252.312H299.359V249.719H293.625V248.328H306.531ZM295.188 255.109V251.016H296.922V253.703H305.109V255.109H295.188ZM295.266 247.016V241.906H304.875V247.016H295.266ZM296.953 245.656H303.156V243.266H296.953V245.656ZM319.594 241.266V255.391H317.922V248.25H316.359V254.672H314.734V241.531H316.359V246.828H317.922V241.266H319.594ZM308.078 251.875V242.891H309.828V250.344C311.047 250.32 312.375 250.211 313.859 249.922L314.031 251.438C312.125 251.773 310.508 251.875 309.016 251.875H308.078ZM333.125 250.281V255.391H331.391V251.656H323.5V250.281H333.125ZM321.484 245.469C321.484 243.469 323.086 242.031 325.219 242.047C326.383 242.039 327.398 242.477 328.062 243.219H331.391V241.266H333.125V249.609H331.391V247.734H328.078C327.406 248.484 326.391 248.938 325.219 248.938C323.086 248.938 321.484 247.5 321.484 245.469ZM323.141 245.469C323.141 246.695 324.008 247.461 325.219 247.469C326.375 247.461 327.258 246.695 327.266 245.469C327.258 244.289 326.375 243.508 325.219 243.516C324.008 243.508 323.141 244.289 323.141 245.469ZM328.812 246.328H331.391V244.641H328.82C328.883 244.906 328.922 245.18 328.922 245.469C328.922 245.766 328.883 246.055 328.812 246.328Z" fill="black"/>
<path d="M284.631 268.676C284.624 270.303 286.791 271.684 288.91 271.998L288.514 272.846C286.62 272.524 284.768 271.513 284.029 270.05C283.291 271.513 281.438 272.524 279.572 272.846L279.148 271.998C281.261 271.684 283.421 270.303 283.428 268.676V268.594H279.531V267.719H288.514V268.594H284.631V268.676ZM278.492 274.773V273.885H289.566V274.773H284.535V279.107H283.482V274.773H278.492ZM301.707 273.174V274.062H296.758V276.551H295.691V274.062H290.578V273.174H301.707ZM292 278.848V275.348H293.08V277.945H300.463V278.848H292ZM292.027 271.779V267.555H300.258V271.779H292.027ZM293.08 270.918H299.191V268.402H293.08V270.918ZM313.82 276.646V277.549H302.691V276.646H307.709V273.693H308.789V276.646H313.82ZM303.238 273.256C305.296 272.907 307.682 271.205 307.682 269.264V268.963H303.607V268.061H312.863V268.963H308.789V269.264C308.796 271.205 311.188 272.873 313.287 273.215L312.85 274.062C310.99 273.693 309.028 272.511 308.249 270.829C307.47 272.531 305.515 273.741 303.689 274.117L303.238 273.256ZM324.758 266.953V279.107H323.691V266.953H324.758ZM314.859 275.867C315.898 275.86 317.088 275.854 318.318 275.812V274.486C316.855 274.336 315.912 273.502 315.926 272.285C315.912 270.911 317.081 270.022 318.838 270.029C320.595 270.022 321.784 270.911 321.777 272.285C321.784 273.488 320.841 274.322 319.398 274.486V275.771C320.574 275.717 321.764 275.635 322.885 275.484L322.967 276.305C320.253 276.742 317.279 276.783 315.023 276.783L314.859 275.867ZM315.119 269.332V268.457H318.318V266.967H319.398V268.457H322.57V269.332H315.119ZM316.924 272.285C316.917 273.126 317.71 273.68 318.838 273.666C319.973 273.68 320.759 273.126 320.752 272.285C320.759 271.438 319.973 270.863 318.838 270.863C317.71 270.863 316.917 271.438 316.924 272.285ZM283.072 291.25C283.079 292.48 284.282 293.52 286.012 293.902L285.574 294.764C284.173 294.415 283.093 293.677 282.56 292.692C282.04 293.759 280.946 294.572 279.504 294.928L279.039 294.066C280.796 293.677 282.006 292.549 282.006 291.25V291.195H279.299V290.348H282.006V288.994H283.072V290.348H285.779V291.195H283.072V291.25ZM278.465 295.789C280.796 295.782 283.879 295.769 286.572 295.42L286.641 296.199C285.479 296.391 284.275 296.507 283.1 296.582V300.752H282.033V296.637C280.803 296.685 279.634 296.691 278.615 296.691L278.465 295.789ZM287.461 301.121V288.967H288.514V301.121H287.461ZM301.721 298.633V299.521H290.592V298.633H295.568V295.652H296.621V298.633H301.721ZM291.029 294.9C293.155 294.538 295.521 292.761 295.527 290.717V289.787H296.648V290.717C296.655 292.747 299.055 294.538 301.174 294.9L300.695 295.789C298.843 295.406 296.888 294.155 296.102 292.405C295.302 294.148 293.367 295.406 291.508 295.789L291.029 294.9ZM306.67 289.637L303.471 301.49H302.404L305.59 289.637H306.67ZM317.129 290.184V291.537C317.122 293.096 317.122 294.661 316.691 296.924L315.639 296.801C316.069 294.654 316.069 293.055 316.076 291.537V291.072H308.529V290.184H317.129ZM307.367 299.385V298.496H310.115V294.49H311.182V298.496H313.15V294.49H314.203V298.496H318.441V299.385H307.367ZM328.955 288.953V293.219H330.773V294.121H328.955V298.469H327.875V288.953H328.955ZM319.412 296.186C320.376 296.186 321.518 296.172 322.707 296.131V295.201C321.292 295.071 320.376 294.395 320.383 293.369C320.376 292.2 321.518 291.489 323.227 291.496C324.949 291.489 326.07 292.2 326.084 293.369C326.07 294.388 325.182 295.064 323.773 295.201V296.083C324.908 296.015 326.063 295.912 327.123 295.748L327.219 296.514C324.614 297.006 321.661 297.04 319.535 297.061L319.412 296.186ZM319.713 290.963V290.156H322.707V288.926H323.773V290.156H326.754V290.963H319.713ZM321.23 300.848V297.826H322.311V299.945H329.393V300.848H321.23ZM321.408 293.369C321.401 294.032 322.105 294.463 323.227 294.463C324.348 294.463 325.059 294.032 325.059 293.369C325.059 292.679 324.348 292.255 323.227 292.262C322.105 292.255 321.401 292.679 321.408 293.369ZM335.545 289.637L332.346 301.49H331.279L334.465 289.637H335.545ZM345.744 288.967V292.645H347.576V293.547H345.744V297.895H344.678V288.967H345.744ZM336.762 295.844V289.842H337.814V291.893H341.355V289.842H342.422V295.844H336.762ZM337.814 294.969H341.355V292.74H337.814V294.969ZM338.143 300.848V297.02H339.195V299.945H346.305V300.848H338.143ZM359.416 294.832V295.721H354.398V297.156H358.062V300.943H349.695V297.156H353.346V295.721H348.342V294.832H359.416ZM349.381 290.238V289.35H358.363V290.238H356.49V292.795H358.322V293.684H349.422V292.795H351.254V290.238H349.381ZM350.762 300.068H357.01V298.004H350.762V300.068ZM352.32 292.795H355.424V290.238H352.32V292.795ZM374.332 288.953V301.107H373.279V294.818H371.529V300.479H370.518V289.227H371.529V293.902H373.279V288.953H374.332ZM364.57 297.963V290.443H365.637V297.006C366.84 296.999 368.139 296.91 369.615 296.609L369.752 297.566C368.057 297.874 366.662 297.963 365.322 297.963H364.57ZM386.131 296.787V301.107H385.051V297.648H377.955V296.787H386.131ZM376.246 292.549C376.239 290.854 377.586 289.644 379.404 289.65C380.457 289.644 381.353 290.061 381.913 290.744H385.051V288.953H386.131V296.117H385.051V294.367H381.92C381.359 295.058 380.464 295.468 379.404 295.461C377.586 295.475 376.239 294.278 376.246 292.549ZM377.271 292.549C377.271 293.731 378.16 294.559 379.404 294.559C380.601 294.559 381.51 293.731 381.51 292.549C381.51 291.407 380.601 290.566 379.404 290.566C378.16 290.566 377.271 291.407 377.271 292.549ZM382.405 293.479H385.051V291.633H382.398C382.494 291.92 382.549 292.221 382.549 292.549C382.549 292.877 382.494 293.191 382.405 293.479Z" fill="black"/>
<line x1="278" y1="575.5" x2="426" y2="575.5" stroke="black"/>
<line x1="278" y1="431.5" x2="426" y2="431.5" stroke="#E0E0E0"/>
<line x1="278" y1="331.5" x2="426" y2="331.5" stroke="#E0E0E0"/>
<rect width="1920" height="200" fill="#F6F6F6"/>
<rect x="278" y="35" width="1364" height="130" fill="white"/>
<path d="M310.829 102.07C310.829 98.0312 312.032 94.6582 314.052 91.7793H316.63C315.147 93.917 313.665 98.2246 313.665 102.07C313.665 105.916 315.147 110.234 316.63 112.383H314.052C312.032 109.482 310.829 106.12 310.829 102.07ZM323.118 91.9082C326.04 91.9082 328.146 94.5723 328.167 98.7617C328.146 102.983 326.04 105.637 323.118 105.637C320.164 105.637 318.059 102.983 318.069 98.7617C318.059 94.5723 320.164 91.9082 323.118 91.9082ZM320.368 98.7617C320.357 101.748 321.485 103.478 323.118 103.488C324.762 103.478 325.857 101.748 325.868 98.7617C325.857 95.7969 324.762 94.0566 323.118 94.0566C321.485 94.0566 320.357 95.7969 320.368 98.7617ZM330.724 109.912V90.4902H333.108V97.9453H336.095V99.9648H333.108V109.912H330.724ZM353.067 90.4902V109.934H350.661V90.4902H353.067ZM337.534 98.7617C337.523 94.5723 339.661 91.9082 342.604 91.9082C345.516 91.9082 347.664 94.5723 347.675 98.7617C347.664 102.983 345.516 105.637 342.604 105.637C339.661 105.637 337.523 102.983 337.534 98.7617ZM339.833 98.7617C339.833 101.748 340.961 103.478 342.604 103.488C344.237 103.478 345.354 101.748 345.354 98.7617C345.354 95.7969 344.237 94.0566 342.604 94.0566C340.961 94.0566 339.833 95.7969 339.833 98.7617ZM372.081 90.4902V109.934H369.675V90.4902H372.081ZM357.128 105.25V92.252H366.495V94.207H359.534V103.23C363.101 103.209 365.346 103.112 367.935 102.65L368.171 104.627C365.389 105.143 362.886 105.25 358.782 105.25H357.128ZM380.718 102.07C380.718 106.12 379.515 109.482 377.495 112.383H374.917C376.399 110.234 377.882 105.916 377.882 102.07C377.882 98.2246 376.399 93.917 374.917 91.7793H377.495C379.515 94.6582 380.718 98.0312 380.718 102.07ZM399.173 90.5762V101.447H397.153V90.5762H399.173ZM384.413 100.158V91.6934H386.454V98.4395C389.559 98.418 392.276 98.2031 395.177 97.5801L395.456 99.2773C392.276 99.9219 389.376 100.147 386.003 100.158H384.413ZM386.562 109.568V102.328H399.173V109.568H386.562ZM388.56 107.936H397.175V103.939H388.56V107.936ZM422.741 90.5977V96.2695H425.534V97.9883H422.741V104.734H420.7V90.5977H422.741ZM408.368 101.555V91.9727H410.366V95.0449H415.415V91.9727H417.435V101.555H408.368ZM410.366 99.9219H415.415V96.6562H410.366V99.9219ZM410.538 109.418V103.338H412.579V107.764H423.558V109.418H410.538ZM441.755 90.5762V95.0234H444.548V96.6992H441.755V100.996H439.692V90.5762H441.755ZM426.63 99.5781C431.303 98.5039 433.902 96.2051 434.225 93.3477H427.532V91.7148H436.47C436.48 96.6133 433.129 99.8682 427.382 101.232L426.63 99.5781ZM429.38 109.59V101.834H431.421V104.09H439.714V101.834H441.755V109.59H429.38ZM431.421 107.914H439.714V105.701H431.421V107.914ZM449.833 102.113V104.154H458.878V102.113H460.919V109.59H447.813V102.113H449.833ZM445.644 100.91V99.2129H463.196V100.91H445.644ZM446.589 96.4199C450.316 95.9365 453.367 93.8848 453.378 91.6074V90.791H455.462V91.6074C455.473 93.8203 458.545 95.9688 462.229 96.4199L461.499 98.0312C458.384 97.6016 455.666 96.1191 454.431 94.0674C453.185 96.1299 450.456 97.6016 447.362 98.0312L446.589 96.4199ZM449.833 107.957H458.878V105.744H449.833V107.957ZM480.642 90.5762V109.826H478.601V90.5762H480.642ZM465.839 104.928V92.4453H467.858V103.166C470.673 103.155 473.627 102.908 476.71 102.285L476.989 104.004C473.584 104.702 470.49 104.938 467.45 104.928H465.839ZM498.667 90.5762V98.0312H501.761V99.707H498.667V109.869H496.626V90.5762H498.667ZM484.487 105.078V92.4238H493.489V94.0781H486.528V103.381C489.762 103.37 492.179 103.23 494.929 102.736L495.187 104.455C492.168 104.992 489.611 105.089 486.034 105.078H484.487Z" fill="black"/>
<mask id="path-23-inside-4_14020_212" fill="white">
<path d="M1102 150H1282V50H1102V150Z"/>
</mask>
<path d="M1102 150H1282V50H1102V150Z" fill="white"/>
<path d="M1103 50V150H1101V50H1103Z" fill="#C2C2C2" mask="url(#path-23-inside-4_14020_212)"/>
<path d="M1176.97 83.748V84.9785H1172.06V89.2031H1170.56V84.9785H1165.7V83.748H1176.97ZM1166.29 81.7246C1168.72 81.417 1170.34 80.1113 1170.45 78.7578H1166.74V77.5547H1175.93V78.7578H1172.22C1172.32 80.1113 1173.93 81.417 1176.38 81.7246L1175.83 82.9141C1173.73 82.6133 1172.09 81.6494 1171.33 80.3164C1170.58 81.6494 1168.95 82.6133 1166.86 82.9141L1166.29 81.7246ZM1189.08 83.0371V84.2539H1184.31V86.5234H1182.81V84.2539H1177.79V83.0371H1189.08ZM1179.16 88.9707V85.3887H1180.67V87.7402H1187.84V88.9707H1179.16ZM1179.22 81.8887V77.418H1187.63V81.8887H1179.22ZM1180.7 80.6992H1186.13V78.6074H1180.7V80.6992ZM1194.36 77.6367L1191.17 89.4902H1189.64L1192.84 77.6367H1194.36ZM1196.74 77.9922V80.8496H1198.75V77.9922H1200.16V86.2227H1195.3V77.9922H1196.74ZM1196.74 84.9922H1198.75V82.0527H1196.74V84.9922ZM1201.37 88.6152V77.0762H1202.81V81.6289H1204.12V76.8574H1205.58V89.2168H1204.12V82.8867H1202.81V88.6152H1201.37ZM1213.39 81.2188V82.832H1218.28V84.0488H1207.02V82.832H1211.89V81.2188H1213.39ZM1207.63 80.7266C1210.18 80.4053 1211.86 79.0039 1211.86 77.5273V77.0625H1213.4V77.5273C1213.4 79.0381 1215.06 80.4053 1217.64 80.7266L1217.05 81.916C1215.03 81.6084 1213.41 80.6924 1212.62 79.3936C1211.83 80.6855 1210.22 81.6084 1208.18 81.916L1207.63 80.7266ZM1208.33 87.0293C1208.33 85.6416 1209.94 84.8486 1212.64 84.8555C1215.32 84.8486 1216.91 85.6416 1216.92 87.0293C1216.91 88.4307 1215.32 89.2031 1212.64 89.2031C1209.94 89.2031 1208.33 88.4307 1208.33 87.0293ZM1209.88 87.0293C1209.87 87.7061 1210.82 88.0547 1212.64 88.0547C1214.42 88.0547 1215.39 87.7061 1215.4 87.0293C1215.39 86.3525 1214.42 86.0176 1212.64 86.0176C1210.82 86.0176 1209.87 86.3525 1209.88 87.0293Z" fill="black"/>
<path d="M1184.42 104.031V121H1181.35V107.008H1181.25L1177.29 109.539V106.75L1181.49 104.031H1184.42ZM1205.58 101.922V117.461H1202.98V110.336H1198.9V108.18H1202.98V101.922H1205.58ZM1188.12 113.148C1192.68 111.707 1195.69 109 1196.2 105.648H1189.22V103.516H1199.04C1199.04 109.105 1195.35 113.277 1189.22 115.234L1188.12 113.148ZM1191.78 122.664V115.891H1194.43V120.555H1206.12V122.664H1191.78Z" fill="black"/>
<mask id="path-27-inside-5_14020_212" fill="white">
<path d="M1282 150H1462V50H1282V150Z"/>
</mask>
<path d="M1282 150H1462V50H1282V150Z" fill="white"/>
<path d="M1283 50V150H1281V50H1283Z" fill="#C2C2C2" mask="url(#path-27-inside-5_14020_212)"/>
<path d="M1371.11 76.8574V89.2305H1369.6V76.8574H1371.11ZM1361.48 79.168V77.9375H1367.3V82.5723H1363.05V85.0605C1365 85.0469 1366.68 84.9443 1368.6 84.623L1368.74 85.8672C1366.64 86.2295 1364.8 86.3115 1362.57 86.3047H1361.49V81.3691H1365.76V79.168H1361.48ZM1384.19 83.9258V85.1562H1381.54V89.2168H1380.02V85.1562H1377.09V89.2168H1375.54V85.1562H1372.9V83.9258H1384.19ZM1374.26 82.668V77.3359H1375.77V78.8125H1381.29V77.3359H1382.82V82.668H1374.26ZM1375.77 81.4512H1381.29V80.002H1375.77V81.4512Z" fill="black"/>
<path d="M1364.42 104.031V121H1361.35V107.008H1361.25L1357.29 109.539V106.75L1361.49 104.031H1364.42ZM1385.58 101.922V117.461H1382.98V110.336H1378.9V108.18H1382.98V101.922H1385.58ZM1368.12 113.148C1372.68 111.707 1375.69 109 1376.2 105.648H1369.22V103.516H1379.04C1379.04 109.105 1375.35 113.277 1369.22 115.234L1368.12 113.148ZM1371.78 122.664V115.891H1374.43V120.555H1386.12V122.664H1371.78Z" fill="black"/>
<mask id="path-31-inside-6_14020_212" fill="white">
<path d="M1462 150H1642V50H1462V150Z"/>
</mask>
<path d="M1462 150H1642V50H1462V150Z" fill="white"/>
<path d="M1463 50V150H1461V50H1463Z" fill="#C2C2C2" mask="url(#path-31-inside-6_14020_212)"/>
<path d="M1535.25 78.1016V88H1533.46V79.8379H1533.4L1531.09 81.3145V79.6875L1533.54 78.1016H1535.25ZM1538.75 88.1094C1538.16 88.1094 1537.67 87.6309 1537.68 87.043C1537.67 86.4688 1538.16 85.9971 1538.75 85.9902C1539.31 85.9971 1539.8 86.4688 1539.8 87.043C1539.8 87.6309 1539.31 88.1094 1538.75 88.1094ZM1537.68 81.7383C1537.67 81.1641 1538.16 80.6924 1538.75 80.6855C1539.31 80.6924 1539.8 81.1641 1539.8 81.7383C1539.8 82.3262 1539.31 82.8047 1538.75 82.8047C1538.16 82.8047 1537.67 82.3262 1537.68 81.7383ZM1545.49 78.1016V88H1543.7V79.8379H1543.64L1541.33 81.3145V79.6875L1543.78 78.1016H1545.49ZM1562.08 83.0371V84.2539H1557.31V86.5234H1555.81V84.2539H1550.79V83.0371H1562.08ZM1552.16 88.9707V85.3887H1553.68V87.7402H1560.84V88.9707H1552.16ZM1552.23 81.8887V77.418H1560.63V81.8887H1552.23ZM1553.7 80.6992H1559.13V78.6074H1553.7V80.6992ZM1566.91 77.7188C1568.87 77.7119 1570.3 78.9492 1570.31 80.6992C1570.3 82.4561 1568.87 83.6865 1566.91 83.6934C1564.97 83.6865 1563.51 82.4561 1563.52 80.6992C1563.51 78.9492 1564.97 77.7119 1566.91 77.7188ZM1562.96 85.4023C1565.19 85.4023 1568.27 85.375 1570.94 84.9922L1571.07 86.0996C1568.3 86.626 1565.33 86.6465 1563.15 86.6465L1562.96 85.4023ZM1565.02 80.6992C1565.02 81.7314 1565.83 82.3672 1566.91 82.3672C1568 82.3672 1568.82 81.7314 1568.82 80.6992C1568.82 79.6738 1568.01 79.0312 1566.91 79.0312C1565.83 79.0312 1565.02 79.6738 1565.02 80.6992ZM1571.68 89.2305V76.8574H1573.2V89.2305H1571.68Z" fill="black"/>
<path d="M1530.13 106.211C1530.13 108.848 1531.93 111.426 1535.31 112.469L1533.97 114.508C1531.57 113.734 1529.82 112.141 1528.85 110.125C1527.9 112.316 1526.1 114.062 1523.59 114.93L1522.25 112.867C1525.66 111.742 1527.48 109 1527.5 106.211V105.602H1522.93V103.516H1534.58V105.602H1530.13V106.211ZM1525.72 122.664V115.891H1528.35V120.555H1540.32V122.664H1525.72ZM1537.11 117.297V101.922H1539.74V117.297H1537.11ZM1560.95 101.898V115.211H1558.46V109.445H1556.4V114.508H1553.96V102.32H1556.4V107.336H1558.46V101.898H1560.95ZM1542.71 106.234V104.195H1546.72V102.086H1549.3V104.195H1553.26V106.234H1542.71ZM1543.46 110.758C1543.44 108.555 1545.36 107.09 1548.01 107.102C1550.71 107.09 1552.61 108.555 1552.63 110.758C1552.61 112.961 1550.71 114.414 1548.01 114.414C1545.36 114.414 1543.44 112.961 1543.46 110.758ZM1545.79 110.758C1545.79 111.848 1546.69 112.539 1548.01 112.539C1549.35 112.539 1550.26 111.848 1550.26 110.758C1550.26 109.668 1549.35 108.977 1548.01 108.977C1546.69 108.977 1545.79 109.668 1545.79 110.758ZM1546.54 119.289C1546.52 116.852 1549.27 115.48 1553.8 115.469C1558.32 115.48 1561.05 116.852 1561.07 119.289C1561.05 121.68 1558.32 123.062 1553.8 123.062C1549.27 123.062 1546.52 121.68 1546.54 119.289ZM1549.14 119.289C1549.12 120.449 1550.78 121.082 1553.8 121.07C1556.81 121.082 1558.43 120.449 1558.44 119.289C1558.43 118.059 1556.81 117.438 1553.8 117.461C1550.78 117.438 1549.12 118.059 1549.14 119.289ZM1582.89 111.625V113.734H1574.5V115.516C1578.28 115.762 1580.53 117.074 1580.54 119.266C1580.53 121.703 1577.77 123.062 1573.21 123.062C1568.58 123.062 1565.82 121.703 1565.82 119.266C1565.82 117.074 1568.07 115.75 1571.92 115.504V113.734H1563.57V111.625H1582.89ZM1564.51 108.602C1568.4 108.238 1570.95 106.656 1571.38 104.922H1565.33V102.836H1581.15V104.922H1575.05C1575.47 106.668 1577.99 108.238 1581.97 108.602L1581.06 110.664C1577.2 110.266 1574.36 108.73 1573.21 106.586C1572.06 108.73 1569.25 110.266 1565.4 110.664L1564.51 108.602ZM1568.47 119.266C1568.46 120.438 1570.12 121.082 1573.21 121.07C1576.24 121.082 1577.92 120.438 1577.94 119.266C1577.92 118.094 1576.24 117.473 1573.21 117.461C1570.12 117.473 1568.46 118.094 1568.47 119.266Z" fill="#A0A0A0"/>
<rect width="1920" height="200" fill="#F6F6F6"/>
<rect x="278" y="35" width="1364" height="130" fill="white"/>
<path d="M310.829 102.07C310.829 98.0312 312.032 94.6582 314.052 91.7793H316.63C315.147 93.917 313.665 98.2246 313.665 102.07C313.665 105.916 315.147 110.234 316.63 112.383H314.052C312.032 109.482 310.829 106.12 310.829 102.07ZM323.118 91.9082C326.04 91.9082 328.146 94.5723 328.167 98.7617C328.146 102.983 326.04 105.637 323.118 105.637C320.164 105.637 318.059 102.983 318.069 98.7617C318.059 94.5723 320.164 91.9082 323.118 91.9082ZM320.368 98.7617C320.357 101.748 321.485 103.478 323.118 103.488C324.762 103.478 325.857 101.748 325.868 98.7617C325.857 95.7969 324.762 94.0566 323.118 94.0566C321.485 94.0566 320.357 95.7969 320.368 98.7617ZM330.724 109.912V90.4902H333.108V97.9453H336.095V99.9648H333.108V109.912H330.724ZM353.067 90.4902V109.934H350.661V90.4902H353.067ZM337.534 98.7617C337.523 94.5723 339.661 91.9082 342.604 91.9082C345.516 91.9082 347.664 94.5723 347.675 98.7617C347.664 102.983 345.516 105.637 342.604 105.637C339.661 105.637 337.523 102.983 337.534 98.7617ZM339.833 98.7617C339.833 101.748 340.961 103.478 342.604 103.488C344.237 103.478 345.354 101.748 345.354 98.7617C345.354 95.7969 344.237 94.0566 342.604 94.0566C340.961 94.0566 339.833 95.7969 339.833 98.7617ZM372.081 90.4902V109.934H369.675V90.4902H372.081ZM357.128 105.25V92.252H366.495V94.207H359.534V103.23C363.101 103.209 365.346 103.112 367.935 102.65L368.171 104.627C365.389 105.143 362.886 105.25 358.782 105.25H357.128ZM380.718 102.07C380.718 106.12 379.515 109.482 377.495 112.383H374.917C376.399 110.234 377.882 105.916 377.882 102.07C377.882 98.2246 376.399 93.917 374.917 91.7793H377.495C379.515 94.6582 380.718 98.0312 380.718 102.07ZM399.173 90.5762V101.447H397.153V90.5762H399.173ZM384.413 100.158V91.6934H386.454V98.4395C389.559 98.418 392.276 98.2031 395.177 97.5801L395.456 99.2773C392.276 99.9219 389.376 100.147 386.003 100.158H384.413ZM386.562 109.568V102.328H399.173V109.568H386.562ZM388.56 107.936H397.175V103.939H388.56V107.936ZM422.741 90.5977V96.2695H425.534V97.9883H422.741V104.734H420.7V90.5977H422.741ZM408.368 101.555V91.9727H410.366V95.0449H415.415V91.9727H417.435V101.555H408.368ZM410.366 99.9219H415.415V96.6562H410.366V99.9219ZM410.538 109.418V103.338H412.579V107.764H423.558V109.418H410.538ZM441.755 90.5762V95.0234H444.548V96.6992H441.755V100.996H439.692V90.5762H441.755ZM426.63 99.5781C431.303 98.5039 433.902 96.2051 434.225 93.3477H427.532V91.7148H436.47C436.48 96.6133 433.129 99.8682 427.382 101.232L426.63 99.5781ZM429.38 109.59V101.834H431.421V104.09H439.714V101.834H441.755V109.59H429.38ZM431.421 107.914H439.714V105.701H431.421V107.914ZM449.833 102.113V104.154H458.878V102.113H460.919V109.59H447.813V102.113H449.833ZM445.644 100.91V99.2129H463.196V100.91H445.644ZM446.589 96.4199C450.316 95.9365 453.367 93.8848 453.378 91.6074V90.791H455.462V91.6074C455.473 93.8203 458.545 95.9688 462.229 96.4199L461.499 98.0312C458.384 97.6016 455.666 96.1191 454.431 94.0674C453.185 96.1299 450.456 97.6016 447.362 98.0312L446.589 96.4199ZM449.833 107.957H458.878V105.744H449.833V107.957ZM480.642 90.5762V109.826H478.601V90.5762H480.642ZM465.839 104.928V92.4453H467.858V103.166C470.673 103.155 473.627 102.908 476.71 102.285L476.989 104.004C473.584 104.702 470.49 104.938 467.45 104.928H465.839ZM498.667 90.5762V98.0312H501.761V99.707H498.667V109.869H496.626V90.5762H498.667ZM484.487 105.078V92.4238H493.489V94.0781H486.528V103.381C489.762 103.37 492.179 103.23 494.929 102.736L495.187 104.455C492.168 104.992 489.611 105.089 486.034 105.078H484.487Z" fill="black"/>
<path d="M1102 150H1282V50H1102V150Z" fill="white"/>
<path d="M1176.97 83.748V84.9785H1172.06V89.2031H1170.56V84.9785H1165.7V83.748H1176.97ZM1166.29 81.7246C1168.72 81.417 1170.34 80.1113 1170.45 78.7578H1166.74V77.5547H1175.93V78.7578H1172.22C1172.32 80.1113 1173.93 81.417 1176.38 81.7246L1175.83 82.9141C1173.73 82.6133 1172.09 81.6494 1171.33 80.3164C1170.58 81.6494 1168.95 82.6133 1166.86 82.9141L1166.29 81.7246ZM1189.08 83.0371V84.2539H1184.31V86.5234H1182.81V84.2539H1177.79V83.0371H1189.08ZM1179.16 88.9707V85.3887H1180.67V87.7402H1187.84V88.9707H1179.16ZM1179.22 81.8887V77.418H1187.63V81.8887H1179.22ZM1180.7 80.6992H1186.13V78.6074H1180.7V80.6992ZM1194.36 77.6367L1191.17 89.4902H1189.64L1192.84 77.6367H1194.36ZM1196.74 77.9922V80.8496H1198.75V77.9922H1200.16V86.2227H1195.3V77.9922H1196.74ZM1196.74 84.9922H1198.75V82.0527H1196.74V84.9922ZM1201.37 88.6152V77.0762H1202.81V81.6289H1204.12V76.8574H1205.58V89.2168H1204.12V82.8867H1202.81V88.6152H1201.37ZM1213.39 81.2188V82.832H1218.28V84.0488H1207.02V82.832H1211.89V81.2188H1213.39ZM1207.63 80.7266C1210.18 80.4053 1211.86 79.0039 1211.86 77.5273V77.0625H1213.4V77.5273C1213.4 79.0381 1215.06 80.4053 1217.64 80.7266L1217.05 81.916C1215.03 81.6084 1213.41 80.6924 1212.62 79.3936C1211.83 80.6855 1210.22 81.6084 1208.18 81.916L1207.63 80.7266ZM1208.33 87.0293C1208.33 85.6416 1209.94 84.8486 1212.64 84.8555C1215.32 84.8486 1216.91 85.6416 1216.92 87.0293C1216.91 88.4307 1215.32 89.2031 1212.64 89.2031C1209.94 89.2031 1208.33 88.4307 1208.33 87.0293ZM1209.88 87.0293C1209.87 87.7061 1210.82 88.0547 1212.64 88.0547C1214.42 88.0547 1215.39 87.7061 1215.4 87.0293C1215.39 86.3525 1214.42 86.0176 1212.64 86.0176C1210.82 86.0176 1209.87 86.3525 1209.88 87.0293Z" fill="black"/>
<path d="M1184.42 104.031V121H1181.35V107.008H1181.25L1177.29 109.539V106.75L1181.49 104.031H1184.42ZM1205.58 101.922V117.461H1202.98V110.336H1198.9V108.18H1202.98V101.922H1205.58ZM1188.12 113.148C1192.68 111.707 1195.69 109 1196.2 105.648H1189.22V103.516H1199.04C1199.04 109.105 1195.35 113.277 1189.22 115.234L1188.12 113.148ZM1191.78 122.664V115.891H1194.43V120.555H1206.12V122.664H1191.78Z" fill="black"/>
<path d="M1282 150H1462V50H1282V150Z" fill="white"/>
<path d="M1371.11 76.8574V89.2305H1369.6V76.8574H1371.11ZM1361.48 79.168V77.9375H1367.3V82.5723H1363.05V85.0605C1365 85.0469 1366.68 84.9443 1368.6 84.623L1368.74 85.8672C1366.64 86.2295 1364.8 86.3115 1362.57 86.3047H1361.49V81.3691H1365.76V79.168H1361.48ZM1384.19 83.9258V85.1562H1381.54V89.2168H1380.02V85.1562H1377.09V89.2168H1375.54V85.1562H1372.9V83.9258H1384.19ZM1374.26 82.668V77.3359H1375.77V78.8125H1381.29V77.3359H1382.82V82.668H1374.26ZM1375.77 81.4512H1381.29V80.002H1375.77V81.4512Z" fill="black"/>
<path d="M1364.42 104.031V121H1361.35V107.008H1361.25L1357.29 109.539V106.75L1361.49 104.031H1364.42ZM1385.58 101.922V117.461H1382.98V110.336H1378.9V108.18H1382.98V101.922H1385.58ZM1368.12 113.148C1372.68 111.707 1375.69 109 1376.2 105.648H1369.22V103.516H1379.04C1379.04 109.105 1375.35 113.277 1369.22 115.234L1368.12 113.148ZM1371.78 122.664V115.891H1374.43V120.555H1386.12V122.664H1371.78Z" fill="black"/>
<path d="M1462 150H1642V50H1462V150Z" fill="white"/>
<path d="M1535.25 78.1016V88H1533.46V79.8379H1533.4L1531.09 81.3145V79.6875L1533.54 78.1016H1535.25ZM1538.75 88.1094C1538.16 88.1094 1537.67 87.6309 1537.68 87.043C1537.67 86.4688 1538.16 85.9971 1538.75 85.9902C1539.31 85.9971 1539.8 86.4688 1539.8 87.043C1539.8 87.6309 1539.31 88.1094 1538.75 88.1094ZM1537.68 81.7383C1537.67 81.1641 1538.16 80.6924 1538.75 80.6855C1539.31 80.6924 1539.8 81.1641 1539.8 81.7383C1539.8 82.3262 1539.31 82.8047 1538.75 82.8047C1538.16 82.8047 1537.67 82.3262 1537.68 81.7383ZM1545.49 78.1016V88H1543.7V79.8379H1543.64L1541.33 81.3145V79.6875L1543.78 78.1016H1545.49ZM1562.08 83.0371V84.2539H1557.31V86.5234H1555.81V84.2539H1550.79V83.0371H1562.08ZM1552.16 88.9707V85.3887H1553.68V87.7402H1560.84V88.9707H1552.16ZM1552.23 81.8887V77.418H1560.63V81.8887H1552.23ZM1553.7 80.6992H1559.13V78.6074H1553.7V80.6992ZM1566.91 77.7188C1568.87 77.7119 1570.3 78.9492 1570.31 80.6992C1570.3 82.4561 1568.87 83.6865 1566.91 83.6934C1564.97 83.6865 1563.51 82.4561 1563.52 80.6992C1563.51 78.9492 1564.97 77.7119 1566.91 77.7188ZM1562.96 85.4023C1565.19 85.4023 1568.27 85.375 1570.94 84.9922L1571.07 86.0996C1568.3 86.626 1565.33 86.6465 1563.15 86.6465L1562.96 85.4023ZM1565.02 80.6992C1565.02 81.7314 1565.83 82.3672 1566.91 82.3672C1568 82.3672 1568.82 81.7314 1568.82 80.6992C1568.82 79.6738 1568.01 79.0312 1566.91 79.0312C1565.83 79.0312 1565.02 79.6738 1565.02 80.6992ZM1571.68 89.2305V76.8574H1573.2V89.2305H1571.68Z" fill="black"/>
<path d="M1544.42 104.031V121H1541.35V107.008H1541.25L1537.29 109.539V106.75L1541.49 104.031H1544.42ZM1565.58 101.922V117.461H1562.98V110.336H1558.9V108.18H1562.98V101.922H1565.58ZM1548.12 113.148C1552.68 111.707 1555.69 109 1556.2 105.648H1549.22V103.516H1559.04C1559.04 109.105 1555.35 113.277 1549.22 115.234L1548.12 113.148ZM1551.78 122.664V115.891H1554.43V120.555H1566.12V122.664H1551.78Z" fill="black"/>
<path d="M493.225 242.859V257H490.666V245.34H490.588L487.287 247.449V245.125L490.783 242.859H493.225ZM498.225 257.156C497.385 257.156 496.691 256.473 496.701 255.633C496.691 254.812 497.385 254.139 498.225 254.129C499.035 254.139 499.729 254.812 499.729 255.633C499.729 256.473 499.035 257.156 498.225 257.156ZM496.701 248.055C496.691 247.234 497.385 246.561 498.225 246.551C499.035 246.561 499.729 247.234 499.729 248.055C499.729 248.895 499.035 249.578 498.225 249.578C497.385 249.578 496.691 248.895 496.701 248.055ZM507.854 242.859V257H505.295V245.34H505.217L501.916 247.449V245.125L505.412 242.859H507.854ZM526.818 249.91V251.648H520.002V254.891H517.854V251.648H510.686V249.91H526.818ZM512.639 258.387V253.27H514.807V256.629H525.041V258.387H512.639ZM512.736 248.27V241.883H524.748V248.27H512.736ZM514.846 246.57H522.6V243.582H514.846V246.57ZM533.713 242.312C536.516 242.303 538.557 244.07 538.576 246.57C538.557 249.08 536.516 250.838 533.713 250.848C530.939 250.838 528.859 249.08 528.869 246.57C528.859 244.07 530.939 242.303 533.713 242.312ZM528.068 253.289C531.252 253.289 535.656 253.25 539.475 252.703L539.65 254.285C535.695 255.037 531.457 255.066 528.342 255.066L528.068 253.289ZM531.018 246.57C531.008 248.045 532.17 248.953 533.713 248.953C535.275 248.953 536.438 248.045 536.447 246.57C536.438 245.105 535.285 244.188 533.713 244.188C532.17 244.188 531.008 245.105 531.018 246.57ZM540.529 258.758V241.082H542.697V258.758H540.529Z" fill="black"/>
<line x1="486" y1="274.5" x2="1642" y2="274.5" stroke="black"/>
<path d="M530.77 288.912V301.189H529.471V294.818H526.941V293.766H529.471V288.912H530.77ZM520.543 297.812C522.396 296.958 523.612 294.866 523.605 292.85V292.043H520.885V291.004H523.619V289.158H524.918V291.004H527.57V292.043H524.891V292.85C524.891 294.784 526.142 296.773 528.021 297.607L527.297 298.605C525.896 297.99 524.815 296.705 524.269 295.167C523.735 296.794 522.662 298.161 521.254 298.811L520.543 297.812ZM542.814 288.912V301.189H541.516V288.912H542.814ZM533.326 291.072V290.02H539.068V294.49H534.666V297.17C536.655 297.163 538.385 297.067 540.436 296.732L540.559 297.799C538.392 298.161 536.546 298.243 534.379 298.25H533.34V293.451H537.742V291.072H533.326ZM552.385 290.867C552.378 292.474 553.513 293.971 555.338 294.572L554.641 295.598C553.301 295.126 552.296 294.169 551.763 292.959C551.229 294.333 550.19 295.413 548.762 295.939L548.064 294.9C549.979 294.224 551.086 292.59 551.1 290.758V289.555H552.385V290.867ZM549.719 298.865C549.719 297.43 551.284 296.589 553.834 296.596C556.35 296.589 557.895 297.43 557.895 298.865C557.895 300.314 556.35 301.142 553.834 301.135C551.284 301.142 549.719 300.314 549.719 298.865ZM551.018 298.865C551.011 299.672 552.063 300.109 553.834 300.123C555.591 300.109 556.63 299.672 556.623 298.865C556.63 298.086 555.591 297.621 553.834 297.621C552.063 297.621 551.011 298.086 551.018 298.865ZM556.486 296.309V288.912H557.785V291.988H559.562V293.082H557.785V296.309H556.486ZM565.633 290.279V291.318H561.969V293.506H565.428V294.531H561.969V297.115C563.63 297.102 564.724 297.047 566.016 296.828L566.125 297.895C564.689 298.154 563.5 298.209 561.545 298.209H560.725V290.279H565.633ZM566.836 300.561V289.145H568.08V293.779H569.557V288.912H570.801V301.162H569.557V294.832H568.08V300.561H566.836Z" fill="black"/>
<path d="M1063.37 288.912V301.162H1062.12V288.912H1063.37ZM1052.67 297.785C1054.41 296.739 1055.29 294.511 1055.3 292.33V291.346H1053.04V290.293H1058.65V291.346H1056.54V292.33C1056.54 294.422 1057.39 296.521 1059.11 297.512L1058.33 298.469C1057.17 297.771 1056.37 296.521 1055.93 295.044C1055.5 296.644 1054.66 298.011 1053.47 298.756L1052.67 297.785ZM1057.75 294.312V293.246H1059.65V289.172H1060.88V300.547H1059.65V294.312H1057.75ZM1074.7 289.418V293.615H1071.17V295.037H1076.12V296.09H1064.95V295.037H1069.89V293.615H1066.37V289.418H1074.7ZM1066.2 298.277V297.252H1074.75V301.162H1073.44V298.277H1066.2ZM1067.64 292.576H1073.41V290.443H1067.64V292.576Z" fill="black"/>
<path d="M1575 295.105V296.158H1570.13V298.537H1568.85V296.158H1563.79V295.105H1575ZM1565.18 300.902V297.375H1566.48V299.85H1573.75V300.902H1565.18ZM1565.22 293.834V289.486H1573.55V293.834H1565.22ZM1566.5 292.809H1572.26V290.512H1566.5V292.809ZM1579.89 289.787C1581.83 289.78 1583.22 290.977 1583.23 292.699C1583.22 294.422 1581.83 295.618 1579.89 295.625C1577.97 295.618 1576.55 294.422 1576.56 292.699C1576.55 290.977 1577.97 289.78 1579.89 289.787ZM1575.97 297.471C1578.2 297.471 1581.29 297.45 1583.97 297.061L1584.06 298.004C1581.29 298.537 1578.32 298.551 1576.13 298.551L1575.97 297.471ZM1577.84 292.699C1577.83 293.786 1578.7 294.49 1579.89 294.49C1581.08 294.49 1581.96 293.786 1581.96 292.699C1581.96 291.626 1581.08 290.908 1579.89 290.908C1578.7 290.908 1577.83 291.626 1577.84 292.699ZM1584.73 301.189V288.912H1586.03V301.189H1584.73ZM1591.47 289.322C1593.32 289.336 1594.68 290.464 1594.69 292.07C1594.68 293.684 1593.32 294.805 1591.47 294.805C1589.61 294.805 1588.25 293.684 1588.25 292.07C1588.25 290.464 1589.61 289.336 1591.47 289.322ZM1589.52 292.07C1589.51 293.082 1590.35 293.752 1591.47 293.752C1592.59 293.752 1593.43 293.082 1593.43 292.07C1593.43 291.072 1592.59 290.402 1591.47 290.416C1590.35 290.402 1589.51 291.072 1589.52 292.07ZM1590.11 296.746V295.707H1598.16V298.797H1591.41V299.973H1598.57V301.012H1590.15V297.826H1596.87V296.746H1590.11ZM1596.86 295.146V288.912H1598.16V295.146H1596.86Z" fill="black"/>
<path d="M967.196 530.707V532.061H960.938V535.119H959.286V532.061H952.782V530.707H967.196ZM954.575 538.16V533.625H956.245V536.807H965.597V538.16H954.575ZM954.628 529.072V523.482H965.333V529.072H954.628ZM956.263 527.754H963.681V524.801H956.263V527.754ZM973.489 523.869C975.977 523.86 977.77 525.398 977.778 527.613C977.77 529.828 975.977 531.366 973.489 531.375C971.011 531.366 969.191 529.828 969.2 527.613C969.191 525.398 971.011 523.86 973.489 523.869ZM968.444 533.748C971.31 533.748 975.282 533.722 978.728 533.221L978.851 534.434C975.291 535.119 971.468 535.137 968.655 535.137L968.444 533.748ZM970.853 527.613C970.835 529.011 971.96 529.916 973.489 529.916C975.019 529.916 976.144 529.011 976.144 527.613C976.144 526.233 975.019 525.311 973.489 525.311C971.96 525.311 970.835 526.233 970.853 527.613ZM979.712 538.529V522.744H981.382V538.529H979.712ZM1001.79 522.744V538.494H1000.19V530.426H998.169V537.686H996.604V523.061H998.169V529.055H1000.19V522.744H1001.79ZM989.046 534.486V524.607H990.716V533.019C992.166 533.001 993.757 532.887 995.55 532.535L995.726 533.994C993.563 534.381 991.762 534.495 990.065 534.486H989.046ZM1018.23 530.426V531.779H1003.86V530.426H1007.31V528.308C1006.09 527.815 1005.4 527.024 1005.41 525.979C1005.4 524.106 1007.57 523.017 1011.04 523.025C1014.49 523.017 1016.65 524.106 1016.66 525.979C1016.65 527.024 1015.97 527.815 1014.75 528.316V530.426H1018.23ZM1005.57 535.646C1005.57 533.845 1007.61 532.852 1011.04 532.852C1014.42 532.852 1016.46 533.845 1016.47 535.646C1016.46 537.466 1014.42 538.459 1011.04 538.459C1007.61 538.459 1005.57 537.466 1005.57 535.646ZM1007.13 525.979C1007.12 527.033 1008.58 527.622 1011.04 527.631C1013.47 527.622 1014.95 527.033 1014.94 525.979C1014.95 524.924 1013.47 524.317 1011.04 524.309C1008.58 524.317 1007.12 524.924 1007.13 525.979ZM1007.26 535.646C1007.25 536.631 1008.63 537.193 1011.04 537.176C1013.41 537.193 1014.8 536.631 1014.8 535.646C1014.8 534.68 1013.41 534.135 1011.04 534.135C1008.63 534.135 1007.25 534.68 1007.26 535.646ZM1009 530.426H1013.09V528.747C1012.48 528.844 1011.78 528.896 1011.04 528.896C1010.3 528.896 1009.61 528.844 1009 528.756V530.426ZM1032.46 522.744V538.529H1030.79V522.744H1032.46ZM1019.97 529.441C1019.97 526.075 1021.66 523.931 1024.04 523.922C1026.38 523.931 1028.1 526.075 1028.1 529.441C1028.1 532.843 1026.38 534.987 1024.04 534.979C1021.66 534.987 1019.97 532.843 1019.97 529.441ZM1021.58 529.441C1021.57 531.946 1022.58 533.484 1024.04 533.484C1025.49 533.484 1026.49 531.946 1026.49 529.441C1026.49 526.972 1025.49 525.425 1024.04 525.416C1022.58 525.425 1021.57 526.972 1021.58 529.441ZM1052.45 523.482V524.836H1047.65C1047.74 526.567 1050.02 528.097 1052.94 528.439L1052.31 529.793C1049.61 529.415 1047.4 528.149 1046.55 526.374C1045.69 528.149 1043.49 529.415 1040.8 529.793L1040.16 528.439C1043.11 528.097 1045.36 526.567 1045.44 524.836H1040.69V523.482H1052.45ZM1039.37 532.5V531.146H1045.72V528.65H1047.37V531.146H1053.77V532.5H1039.37ZM1041.18 538.16V533.678H1042.87V536.807H1052.12V538.16H1041.18ZM1068.53 522.744V538.494H1066.93V530.408H1065.05V537.721H1063.47V523.043H1065.05V529.002H1066.93V522.744H1068.53ZM1054.72 534.047C1057.02 532.755 1058.09 530.039 1058.09 526.91V525.891H1055.14V524.537H1062.45V525.891H1059.71V526.91C1059.71 529.74 1060.77 532.307 1063.07 533.484L1062.08 534.768C1060.54 533.924 1059.5 532.456 1058.94 530.646C1058.4 532.711 1057.36 534.363 1055.75 535.312L1054.72 534.047ZM1087.15 522.744V529.125H1089.68V530.514H1087.15V538.494H1085.5V522.744H1087.15ZM1074.79 526.576V525.205H1078.68V522.955H1080.35V525.205H1084.13V526.576H1074.79ZM1075.6 531.393C1075.6 529.248 1077.25 527.736 1079.52 527.736C1081.78 527.736 1083.43 529.248 1083.44 531.393C1083.43 533.555 1081.78 535.058 1079.52 535.066C1077.25 535.058 1075.6 533.555 1075.6 531.393ZM1077.2 531.393C1077.19 532.764 1078.18 533.678 1079.52 533.66C1080.86 533.678 1081.83 532.764 1081.84 531.393C1081.83 530.048 1080.86 529.116 1079.52 529.107C1078.18 529.116 1077.19 530.048 1077.2 531.393ZM1096.24 527.385C1096.23 530.021 1097.96 532.746 1100.39 533.783L1099.47 535.084C1097.62 534.267 1096.14 532.526 1095.41 530.426C1094.68 532.676 1093.21 534.592 1091.37 535.488L1090.4 534.17C1092.77 533.054 1094.53 530.101 1094.55 527.385V525.715H1090.95V524.326H1099.82V525.715H1096.24V527.385ZM1101.81 538.494V522.744H1103.48V538.494H1101.81ZM1114.76 523.588C1117.15 523.597 1118.9 525.108 1118.9 527.244C1118.9 529.389 1117.15 530.892 1114.76 530.9C1112.39 530.892 1110.62 529.389 1110.63 527.244C1110.62 525.108 1112.39 523.597 1114.76 523.588ZM1111.97 538.072V532.219H1113.6V536.701C1114.53 536.657 1115.59 536.525 1116.59 536.191L1116.84 537.51C1115.37 538.011 1113.96 538.072 1112.78 538.072H1111.97ZM1112.25 527.244C1112.24 528.589 1113.34 529.529 1114.76 529.529C1116.2 529.529 1117.28 528.589 1117.28 527.244C1117.28 525.908 1116.2 524.977 1114.76 524.977C1113.34 524.977 1112.24 525.908 1112.25 527.244ZM1116.29 533.555V532.271H1119.48V530.988H1121.11V532.271H1124.24V533.555H1116.29ZM1117.3 536.262C1117.28 534.891 1118.49 534.021 1120.27 534.012C1122.01 534.021 1123.24 534.891 1123.24 536.262C1123.24 537.615 1122.01 538.468 1120.27 538.459C1118.49 538.468 1117.28 537.615 1117.3 536.262ZM1118.77 536.262C1118.77 536.903 1119.4 537.299 1120.27 537.299C1121.12 537.299 1121.73 536.903 1121.74 536.262C1121.73 535.62 1121.12 535.207 1120.27 535.207C1119.4 535.207 1118.77 535.62 1118.77 536.262ZM1121.09 530.584V522.744H1122.76V526.189H1125.05V527.578H1122.76V530.584H1121.09ZM1129.37 532.184V533.854H1136.77V532.184H1138.44V538.301H1127.72V532.184H1129.37ZM1125.94 531.199V529.811H1140.31V531.199H1125.94ZM1126.72 527.525C1129.77 527.13 1132.26 525.451 1132.27 523.588V522.92H1133.98V523.588C1133.99 525.398 1136.5 527.156 1139.51 527.525L1138.92 528.844C1136.37 528.492 1134.14 527.279 1133.13 525.601C1132.11 527.288 1129.88 528.492 1127.35 528.844L1126.72 527.525ZM1129.37 536.965H1136.77V535.154H1129.37V536.965ZM1154.58 522.744V538.494H1152.91V522.744H1154.58ZM1142.47 534.486V524.273H1144.12V533.045C1146.42 533.036 1148.84 532.834 1151.36 532.324L1151.59 533.73C1148.8 534.302 1146.27 534.495 1143.79 534.486H1142.47ZM1169.33 522.744V528.844H1171.86V530.215H1169.33V538.529H1167.66V522.744H1169.33ZM1157.73 534.609V524.256H1165.09V525.609H1159.4V533.221C1162.04 533.212 1164.02 533.098 1166.27 532.693L1166.48 534.1C1164.01 534.539 1161.92 534.618 1158.99 534.609H1157.73ZM1174.41 537.123C1173.72 537.114 1173.15 536.561 1173.16 535.875C1173.15 535.189 1173.72 534.627 1174.41 534.627C1175.08 534.627 1175.65 535.189 1175.66 535.875C1175.65 536.561 1175.08 537.114 1174.41 537.123Z" fill="#737373"/>
<path d="M544.955 328.953V335.557H543.889V332.809H541.428V331.906H543.889V328.953H544.955ZM534.947 334.914C536.738 334.265 538.037 332.658 538.037 330.936V330.58H535.289V329.691H541.838V330.58H539.117V330.936C539.117 332.494 540.334 334.025 542.111 334.641L541.551 335.475C540.184 334.976 539.124 333.957 538.598 332.713C538.078 334.107 536.95 335.235 535.508 335.762L534.947 334.914ZM537.135 340.943V336.145H538.215V337.662H543.889V336.145H544.955V340.943H537.135ZM538.215 340.068H543.889V338.523H538.215V340.068ZM553.09 330.088C553.097 331.804 555.325 333.28 557.52 333.588L557.082 334.463C555.195 334.148 553.322 333.103 552.543 331.612C551.764 333.116 549.897 334.148 548.004 334.463L547.566 333.588C549.761 333.28 551.982 331.831 551.982 330.088V329.391H553.09V330.088ZM546.992 336.705V335.803H558.066V336.705H553.035V341.107H551.982V336.705H546.992Z" fill="#2F2F2F"/>
<path d="M646.66 328.953V341.135H645.58V328.953H646.66ZM637.09 334.135C637.097 331.551 638.382 329.903 640.193 329.896C641.998 329.903 643.304 331.551 643.297 334.135C643.304 336.726 641.998 338.366 640.193 338.359C638.382 338.366 637.097 336.726 637.09 334.135ZM638.129 334.135C638.129 336.11 638.977 337.409 640.193 337.402C641.417 337.409 642.258 336.11 642.258 334.135C642.258 332.159 641.417 330.86 640.193 330.854C638.977 330.86 638.129 332.159 638.129 334.135ZM654.645 329.814V333.369H650.324V335.324C652.621 335.331 654.016 335.263 655.656 334.982L655.752 335.885C654.029 336.158 652.587 336.22 650.174 336.213H649.244V332.494H653.578V330.689H649.217V329.814H654.645ZM650.926 340.848V337.211H651.992V339.945H659.184V340.848H650.926ZM655.424 333.068V332.139H657.734V328.967H658.814V337.895H657.734V333.068H655.424ZM670.914 328.953V341.135H669.834V334.271H667.168V333.383H669.834V328.953H670.914ZM660.729 337.867C662.492 337.013 663.962 334.723 663.969 332.562V331.1H661.193V330.211H667.838V331.1H665.049V332.562C665.056 334.586 666.505 336.787 668.275 337.594L667.633 338.455C666.245 337.771 665.076 336.302 664.522 334.606C663.976 336.411 662.772 337.977 661.385 338.701L660.729 337.867ZM678.844 329.814V333.369H674.523V335.324C676.82 335.331 678.215 335.263 679.855 334.982L679.951 335.885C678.229 336.158 676.786 336.22 674.373 336.213H673.443V332.494H677.777V330.689H673.416V329.814H678.844ZM675.125 340.848V337.211H676.191V339.945H683.383V340.848H675.125ZM679.623 333.068V332.139H681.934V328.967H683.014V337.895H681.934V333.068H679.623ZM698.941 328.953V341.107H697.916V328.953H698.941ZM688.4 337.867C690.096 336.855 691.087 334.634 691.08 332.426V331.277H688.742V330.389H694.348V331.277H692.119V332.426C692.119 334.524 693.069 336.623 694.744 337.594L694.088 338.387C692.892 337.669 692.044 336.356 691.62 334.812C691.183 336.486 690.301 337.915 689.084 338.674L688.4 337.867ZM693.418 334.217V333.342H695.469V329.254H696.48V340.479H695.469V334.217H693.418ZM710.316 329.473V333.574H706.721V335.133H711.725V336.008H700.65V335.133H705.654V333.574H702.086V329.473H710.316ZM701.881 338.141V337.279H710.357V341.107H709.277V338.141H701.881ZM703.139 332.713H709.25V330.334H703.139V332.713ZM714.719 330.102L714.623 337.211H713.475L713.379 330.102H714.719ZM713.174 339.193C713.16 338.715 713.57 338.318 714.049 338.318C714.534 338.318 714.931 338.715 714.924 339.193C714.931 339.679 714.534 340.075 714.049 340.082C713.57 340.075 713.16 339.679 713.174 339.193Z" fill="#2F2F2F"/>
<path d="M1548.4 340L1548.39 339.098L1551.77 335.543C1552.93 334.299 1553.5 333.629 1553.5 332.713C1553.5 331.694 1552.65 331.038 1551.53 331.031C1550.35 331.038 1549.61 331.783 1549.61 332.891H1548.44C1548.43 331.141 1549.78 329.965 1551.57 329.965C1553.37 329.965 1554.64 331.175 1554.65 332.713C1554.64 333.82 1554.13 334.682 1552.38 336.486L1550.11 338.824V338.906H1554.83V340H1548.4ZM1559.86 340.137C1557.67 340.137 1556.39 338.291 1556.4 335.051C1556.39 331.838 1557.68 329.965 1559.86 329.965C1562.03 329.965 1563.32 331.838 1563.32 335.051C1563.32 338.291 1562.05 340.137 1559.86 340.137ZM1557.59 335.051C1557.6 337.614 1558.42 339.043 1559.86 339.043C1561.29 339.043 1562.12 337.614 1562.12 335.051C1562.12 332.487 1561.28 331.038 1559.86 331.031C1558.44 331.038 1557.6 332.487 1557.59 335.051ZM1564.96 340L1564.95 339.098L1568.32 335.543C1569.49 334.299 1570.05 333.629 1570.06 332.713C1570.05 331.694 1569.2 331.038 1568.09 331.031C1566.91 331.038 1566.17 331.783 1566.16 332.891H1565C1564.99 331.141 1566.34 329.965 1568.13 329.965C1569.93 329.965 1571.2 331.175 1571.21 332.713C1571.2 333.82 1570.69 334.682 1568.94 336.486L1566.67 338.824V338.906H1571.38V340H1564.96ZM1572.71 337.977V336.965L1577.17 330.102H1578.69V336.896H1580.07V337.977H1578.69V340H1577.51V337.977H1572.71ZM1574.04 336.896H1577.51V331.66H1577.39L1574.04 336.814V336.896ZM1582.09 340.082C1581.61 340.075 1581.2 339.679 1581.21 339.193C1581.2 338.715 1581.61 338.318 1582.09 338.318C1582.58 338.318 1582.97 338.715 1582.96 339.193C1582.97 339.679 1582.58 340.075 1582.09 340.082ZM1587.68 340.137C1585.49 340.137 1584.22 338.291 1584.22 335.051C1584.22 331.838 1585.5 329.965 1587.68 329.965C1589.86 329.965 1591.14 331.838 1591.14 335.051C1591.14 338.291 1589.88 340.137 1587.68 340.137ZM1585.41 335.051C1585.42 337.614 1586.25 339.043 1587.68 339.043C1589.11 339.043 1589.94 337.614 1589.94 335.051C1589.94 332.487 1589.1 331.038 1587.68 331.031C1586.26 331.038 1585.42 332.487 1585.41 335.051ZM1596.28 330.102V340H1595.04V331.387H1594.98L1592.58 332.986V331.742L1595.04 330.102H1596.28ZM1599.18 340.082C1598.7 340.075 1598.29 339.679 1598.3 339.193C1598.29 338.715 1598.7 338.318 1599.18 338.318C1599.67 338.318 1600.06 338.715 1600.05 339.193C1600.06 339.679 1599.67 340.075 1599.18 340.082ZM1604.77 340.137C1602.58 340.137 1601.31 338.291 1601.31 335.051C1601.31 331.838 1602.59 329.965 1604.77 329.965C1606.95 329.965 1608.23 331.838 1608.23 335.051C1608.23 338.291 1606.97 340.137 1604.77 340.137ZM1602.5 335.051C1602.51 337.614 1603.34 339.043 1604.77 339.043C1606.2 339.043 1607.03 337.614 1607.03 335.051C1607.03 332.487 1606.19 331.038 1604.77 331.031C1603.35 331.038 1602.51 332.487 1602.5 335.051ZM1613.17 329.965C1614.87 329.985 1616.76 331.011 1616.76 334.654C1616.76 338.175 1615.32 340.137 1613 340.137C1611.26 340.137 1610.04 339.07 1609.79 337.498H1611.01C1611.22 338.387 1611.9 339.043 1613 339.043C1614.62 339.043 1615.6 337.648 1615.61 335.242H1615.48C1614.91 336.062 1614 336.555 1612.95 336.555C1611.18 336.555 1609.71 335.194 1609.71 333.287C1609.71 331.441 1611.06 329.944 1613.17 329.965ZM1610.91 333.273C1610.9 334.497 1611.83 335.475 1613.12 335.475C1614.42 335.475 1615.42 334.408 1615.42 333.246C1615.42 332.111 1614.47 331.045 1613.17 331.045C1611.87 331.045 1610.9 332.05 1610.91 333.273Z" fill="#2F2F2F"/>
<rect x="1486" y="655" width="156" height="48" fill="#111111"/>
<path d="M1517.02 676.125C1517.02 678.445 1517.98 680.789 1519.88 681.812L1519.01 682.984C1517.69 682.242 1516.79 680.906 1516.3 679.312C1515.78 681.055 1514.82 682.539 1513.46 683.344L1512.52 682.266C1514.52 681.102 1515.59 678.602 1515.59 676.219V673.609H1517.02V676.125ZM1520.23 685.641V672.594H1521.65V677.906H1523.34V672.328H1524.76V686.328H1523.34V679.109H1521.65V685.641H1520.23ZM1543.24 679.406V680.609H1537.68V683.328H1536.21V680.609H1530.43V679.406H1543.24ZM1532.02 686.031V682H1533.51V684.828H1541.82V686.031H1532.02ZM1532.07 677.953V672.984H1541.59V677.953H1532.07ZM1533.52 676.781H1540.12V674.156H1533.52V676.781ZM1548.84 673.328C1551.05 673.32 1552.64 674.688 1552.65 676.656C1552.64 678.625 1551.05 679.992 1548.84 680C1546.63 679.992 1545.02 678.625 1545.02 676.656C1545.02 674.688 1546.63 673.32 1548.84 673.328ZM1544.35 682.109C1546.9 682.109 1550.43 682.086 1553.49 681.641L1553.6 682.719C1550.44 683.328 1547.04 683.344 1544.54 683.344L1544.35 682.109ZM1546.49 676.656C1546.48 677.898 1547.48 678.703 1548.84 678.703C1550.2 678.703 1551.2 677.898 1551.2 676.656C1551.2 675.43 1550.2 674.609 1548.84 674.609C1547.48 674.609 1546.48 675.43 1546.49 676.656ZM1554.37 686.359V672.328H1555.85V686.359H1554.37ZM1574.79 678.906V680.125H1562.01V678.906H1574.79ZM1563.52 683.766C1563.52 682.141 1565.34 681.219 1568.38 681.219C1571.4 681.219 1573.2 682.141 1573.21 683.766C1573.2 685.391 1571.4 686.305 1568.38 686.297C1565.34 686.305 1563.52 685.391 1563.52 683.766ZM1563.6 677.688V672.828H1573.21V674.047H1565.07V676.484H1573.3V677.688H1563.6ZM1565.02 683.766C1565.02 684.664 1566.24 685.148 1568.38 685.156C1570.49 685.148 1571.73 684.664 1571.73 683.766C1571.73 682.875 1570.49 682.375 1568.38 682.359C1566.24 682.375 1565.02 682.875 1565.02 683.766ZM1588.63 679.969V681.172H1575.82V679.969H1581.49V678.641H1577.46V675.078H1585.54V673.828H1577.43V672.656H1587.02V676.172H1578.93V677.484H1587.3V678.641H1582.96V679.969H1588.63ZM1577.26 683.344V682.156H1587.1V686.219H1585.6V683.344H1577.26ZM1600.57 672.328V678H1602.82V679.234H1600.57V686.328H1599.1V672.328H1600.57ZM1589.59 675.734V674.516H1593.04V672.516H1594.52V674.516H1597.88V675.734H1589.59ZM1590.3 680.016C1590.3 678.109 1591.77 676.766 1593.79 676.766C1595.8 676.766 1597.27 678.109 1597.27 680.016C1597.27 681.938 1595.8 683.273 1593.79 683.281C1591.77 683.273 1590.3 681.938 1590.3 680.016ZM1591.73 680.016C1591.72 681.234 1592.59 682.047 1593.79 682.031C1594.98 682.047 1595.84 681.234 1595.85 680.016C1595.84 678.82 1594.98 677.992 1593.79 677.984C1592.59 677.992 1591.72 678.82 1591.73 680.016ZM1615.13 672.328V686.328H1613.63V672.328H1615.13ZM1603.63 682.578C1607.35 680.805 1609.17 678.281 1609.46 675.016H1604.3V673.828H1610.96C1610.96 677.93 1609.22 681.477 1604.41 683.781L1603.63 682.578Z" fill="white"/>
</svg>
