<svg width="84" height="86" viewBox="0 0 84 86" fill="none" xmlns="http://www.w3.org/2000/svg">
<path d="M55.0967 85.8585C70.6713 85.8585 83.297 73.2328 83.297 57.6583C83.297 42.0837 70.6713 29.458 55.0967 29.458C39.5222 29.458 26.8965 42.0837 26.8965 57.6583C26.8965 73.2328 39.5222 85.8585 55.0967 85.8585Z" fill="#EBEBEB"/>
<path d="M5.21875 21.0471C8.60311 13.858 14.455 8.12223 21.7105 4.88271C28.966 1.6432 37.143 1.11508 44.7549 3.3944C52.3668 5.67372 58.9081 10.6091 63.1891 17.3031C67.47 23.9971 69.2066 32.0052 68.0828 39.8712L55.0552 30.9226L64.8136 22.9304" stroke="black" stroke-width="2.6531" stroke-linecap="round" stroke-linejoin="round"/>
<path d="M64.8349 50.2827C61.4819 56.9662 55.9697 62.3212 49.192 65.4793C42.4143 68.6374 34.7685 69.4134 27.4944 67.6816C20.2203 65.9498 13.7444 61.8116 9.11693 55.9382C4.48943 50.0647 1.98164 42.8003 2.0001 35.323C1.99879 33.851 2.09664 32.3807 2.2929 30.9219L15.4669 39.8704L6.17676 47.7553" stroke="black" stroke-width="2.6531" stroke-linecap="round" stroke-linejoin="round"/>
<path d="M34.3223 48.9641C28.8391 48.6726 25.3726 45.9261 25.2285 40.9189H30.3155C30.4776 43.1002 32.0444 44.3542 34.3223 44.628V38.146L32.7557 37.7751C28.506 36.7507 25.8948 34.6666 25.8948 31.037C25.8948 26.8599 29.3793 23.9721 34.3223 23.5924V20.793H36.3482V23.5924C41.4353 23.9015 44.7035 26.8423 44.7755 30.9752H39.7604C39.5893 29.262 38.347 28.1669 36.3482 27.9108V34.0307L37.5635 34.3222C41.8853 35.2936 45.1088 37.4484 45.1268 41.5636C45.1268 45.8555 41.9035 48.6285 36.3482 48.9641V51.7458H34.3223V48.9641ZM34.3223 33.5362V27.9285C32.3595 28.2199 31.279 29.2973 31.261 30.7014C31.2429 32.1056 32.5846 32.9975 34.3223 33.5362ZM39.8325 41.5636C39.8325 40.0624 38.5721 39.2587 36.3482 38.6406V44.6104C38.4911 44.3366 39.8325 43.1709 39.8325 41.5636Z" fill="#B51717"/>
<path d="M2.82367 31.9041L14.5906 39.8969L5.51633 48.5901C4.01632 45.0137 3.33721 40.7668 3.04027 37.307C2.88233 35.4668 2.83345 33.8615 2.82407 32.7171C2.82157 32.4117 2.82188 32.1393 2.82367 31.9041Z" fill="black" stroke="black" stroke-width="1.10546"/>
<path d="M67.6529 39.0918L55.9661 30.8931L65.336 23.3527L67.6529 39.0918Z" fill="black" stroke="black" stroke-width="1.10546"/>
</svg>
