<svg width="84" height="87" viewBox="0 0 84 87" fill="none" xmlns="http://www.w3.org/2000/svg">
<path d="M55.6006 86.3517C71.1752 86.3517 83.8009 73.726 83.8009 58.1514C83.8009 42.5769 71.1752 29.9512 55.6006 29.9512C40.0261 29.9512 27.4004 42.5769 27.4004 58.1514C27.4004 73.726 40.0261 86.3517 55.6006 86.3517Z" fill="#EBEBEB"/>
<path d="M8.9737 40.0048L30.3838 18.5948L48.3623 36.5733L26.9523 57.9834C24.5723 60.3634 21.3443 61.7005 17.9785 61.7005C14.6128 61.7005 11.385 60.3634 9.00499 57.9834C7.81981 56.8065 6.87857 55.4071 6.23534 53.8657C5.59212 52.3242 5.25953 50.671 5.25663 49.0007C5.25372 47.3304 5.58051 45.676 6.21836 44.1323C6.85621 42.5886 7.79262 41.1859 8.9737 40.0048Z" stroke="black" stroke-width="2.6531" stroke-miterlimit="10"/>
<path d="M29.2359 55.6418L11.2832 37.7002" stroke="black" stroke-width="2.6531" stroke-miterlimit="10"/>
<path d="M48.3282 36.5398C49.2755 35.5934 50.5601 35.0618 51.8991 35.0618C53.2382 35.0618 54.5224 35.5934 55.4697 36.5398L55.7572 36.8273C55.8662 36.9379 55.996 37.0258 56.1393 37.0858C56.2826 37.1458 56.4363 37.1766 56.5917 37.1766C56.747 37.1766 56.9007 37.1458 57.044 37.0858C57.1873 37.0258 57.3174 36.9379 57.4264 36.8273C57.6445 36.6042 57.7665 36.3046 57.7665 35.9926C57.7665 35.6807 57.6445 35.3811 57.4264 35.158L31.7685 9.50035C31.5454 9.28226 31.246 9.16016 30.934 9.16016C30.622 9.16016 30.3223 9.28226 30.0992 9.50035C29.9886 9.60937 29.9009 9.73936 29.841 9.88264C29.781 10.0259 29.75 10.1797 29.75 10.335C29.75 10.4903 29.781 10.6442 29.841 10.7874C29.9009 10.9307 29.9886 11.0606 30.0992 11.1696L30.3867 11.457C31.3331 12.4043 31.8648 13.6886 31.8648 15.0276C31.8648 16.3667 31.3331 17.651 30.3867 18.5983L48.3282 36.5398Z" stroke="black" stroke-width="2.6531" stroke-miterlimit="10"/>
<path d="M31.7168 53.1602L38.0404 46.8365L47.8974 56.6934C48.6085 57.4045 49.008 58.369 49.008 59.3746C49.008 60.3803 48.6086 61.3447 47.8975 62.0557L46.9439 63.0094C46.2328 63.7205 45.2682 64.1201 44.2626 64.1201C43.2569 64.1201 42.2926 63.7204 41.5816 63.0093L31.7246 53.1523L31.7168 53.1602Z" stroke="black" stroke-width="2.6531" stroke-miterlimit="10"/>
<path d="M49.334 17.5922L56.6411 10.2852" stroke="#B51717" stroke-width="4.42184" stroke-linecap="round" stroke-linejoin="round"/>
<path d="M44.6914 12.4959L49.3564 3" stroke="#B51717" stroke-width="4.42184" stroke-linecap="round" stroke-linejoin="round"/>
<path d="M54.4414 22.2454L63.9262 17.5693" stroke="#B51717" stroke-width="4.42184" stroke-linecap="round" stroke-linejoin="round"/>
</svg>
