<svg width="82" height="58" viewBox="0 0 82 58" fill="none" xmlns="http://www.w3.org/2000/svg">
<path d="M42.549 0.619058L55.1866 13.2454C55.6047 13.6689 55.8391 14.24 55.8391 14.835C55.8391 15.4301 55.6047 16.0012 55.1866 16.4246L47.6629 23.9484C47.2394 24.3664 46.6683 24.6008 46.0733 24.6008C45.4782 24.6008 44.9072 24.3664 44.4837 23.9484L43.6917 23.1564C43.2737 22.733 43.0393 22.1619 43.0393 21.5668C43.0393 20.9718 43.2737 20.4007 43.6917 19.9772L48.0362 15.6326C48.247 15.4207 48.3652 15.1339 48.3652 14.835C48.3652 14.5361 48.247 14.2494 48.0362 14.0374L41.757 7.75815C41.5455 7.55085 41.2612 7.43474 40.965 7.43474C40.6689 7.43474 40.3846 7.55085 40.1731 7.75815L31.054 16.8772C30.8433 17.0892 30.725 17.3759 30.725 17.6748C30.725 17.9737 30.8433 18.2605 31.054 18.4725L45.2756 32.6941C45.4871 32.9014 45.7715 33.0175 46.0676 33.0175C46.3638 33.0175 46.6481 32.9014 46.8596 32.6941L59.1579 20.4185C59.5813 20.0004 60.1524 19.7661 60.7475 19.7661C61.3425 19.7661 61.9136 20.0004 62.3371 20.4185L80.5978 38.6339C81.0158 39.0574 81.2502 39.6285 81.2502 40.2235C81.2502 40.8186 81.0158 41.3897 80.5978 41.8131L65.1656 57.2453C64.7421 57.6633 64.171 57.8977 63.5759 57.8977C62.9809 57.8977 62.4098 57.6633 61.9863 57.2453L51.6567 46.9157C51.2387 46.4923 51.0043 45.9212 51.0043 45.3261C51.0043 44.7311 51.2387 44.16 51.6567 43.7365L52.4147 42.9785C52.8382 42.5605 53.4093 42.3261 54.0043 42.3261C54.5994 42.3261 55.1705 42.5605 55.594 42.9785L62.7444 50.1289C62.9559 50.3362 63.2402 50.4523 63.5363 50.4523C63.8325 50.4523 64.1168 50.3362 64.3283 50.1289L73.4473 41.0099C73.6547 40.7984 73.7708 40.514 73.7708 40.2179C73.7708 39.9217 73.6547 39.6374 73.4473 39.4259L61.5677 27.5576C61.3562 27.3503 61.0719 27.2341 60.7757 27.2341C60.4796 27.2341 60.1953 27.3503 59.9838 27.5576L47.7308 39.8106C47.3073 40.2286 46.7362 40.463 46.1412 40.463C45.5461 40.463 44.975 40.2286 44.5516 39.8106L23.9376 19.2871C23.5195 18.8636 23.2852 18.2925 23.2852 17.6975C23.2852 17.1024 23.5195 16.5313 23.9376 16.1079L39.3811 0.675614C39.7966 0.253372 40.3612 0.0109382 40.9535 0.000361119C41.5458 -0.010216 42.1186 0.211921 42.549 0.619058Z" fill="#B51717"/>
<path d="M50.9668 54.1115L34.6521 37.7968C34.2286 37.3787 33.6576 37.1444 33.0625 37.1444C32.4675 37.1444 31.8964 37.3787 31.4729 37.7968L19.2199 50.0611C19.0079 50.2718 18.7212 50.3901 18.4223 50.3901C18.1234 50.3901 17.8366 50.2718 17.6246 50.0611L8.57348 41.0099C8.36275 40.798 8.24448 40.5112 8.24448 40.2123C8.24448 39.9134 8.36275 39.6267 8.57348 39.4147L17.6812 30.3069C17.8932 30.0962 18.1799 29.978 18.4788 29.978C18.7777 29.978 19.0645 30.0962 19.2765 30.3069L23.5871 34.6175C24.0106 35.0356 24.5817 35.2699 25.1767 35.2699C25.7717 35.2699 26.3428 35.0356 26.7663 34.6175L27.5243 33.8595C27.9423 33.436 28.1767 32.865 28.1767 32.2699C28.1767 31.6749 27.9423 31.1038 27.5243 30.6803L20.0345 23.1905C19.611 22.7725 19.0399 22.5381 18.4449 22.5381C17.8499 22.5381 17.2788 22.7725 16.8553 23.1905L1.40044 38.5887C0.982428 39.0122 0.748047 39.5833 0.748047 40.1784C0.748047 40.7734 0.982428 41.3445 1.40044 41.768L16.844 57.2115C17.2675 57.6295 17.8385 57.8639 18.4336 57.8639C19.0286 57.8639 19.5997 57.6295 20.0232 57.2115L32.3101 44.9132C32.5221 44.7025 32.8089 44.5843 33.1078 44.5843C33.4067 44.5843 33.6934 44.7025 33.9054 44.9132L46.2829 57.2907C46.4884 57.5028 46.7346 57.6713 47.0068 57.7859C47.2789 57.9007 47.5715 57.9592 47.8668 57.9582H49.3829C49.8258 57.952 50.2571 57.8159 50.6234 57.5669C50.9896 57.3178 51.2748 56.9668 51.4434 56.5572C51.6121 56.1477 51.6568 55.6976 51.5721 55.2628C51.4874 54.8281 51.2769 54.4277 50.9668 54.1115Z" fill="#B51717"/>
</svg>
