<svg width="130" height="30" viewBox="0 0 130 30" fill="none" xmlns="http://www.w3.org/2000/svg">
<path d="M40.6989 19.7192L31.4182 10.4307C31.2022 10.2173 30.9107 10.0977 30.6071 10.0977C30.3035 10.0977 30.0121 10.2173 29.796 10.4307L23.5569 16.6699C23.4496 16.7658 23.3108 16.8188 23.1669 16.8188C23.023 16.8188 22.8842 16.7658 22.777 16.6699L15.5317 9.42465C15.4358 9.31741 15.3828 9.17858 15.3828 9.0347C15.3828 8.89082 15.4358 8.75199 15.5317 8.64475L20.2111 4.00436C20.3158 3.90334 20.4556 3.84688 20.601 3.84688C20.7465 3.84688 20.8863 3.90334 20.991 4.00436L24.1886 7.20194C24.2878 7.30752 24.3431 7.44698 24.3431 7.59189C24.3431 7.7368 24.2878 7.87625 24.1886 7.98184L21.9815 10.1889C21.7681 10.405 21.6484 10.6964 21.6484 11C21.6484 11.3037 21.7681 11.5951 21.9815 11.8111L22.387 12.2167C22.6017 12.4295 22.8918 12.549 23.1942 12.549C23.4966 12.549 23.7867 12.4295 24.0014 12.2167L27.8307 8.38737C28.044 8.17134 28.1637 7.87994 28.1637 7.5763C28.1637 7.27266 28.044 6.98124 27.8307 6.7652L21.3965 0.338848C21.2913 0.231555 21.1657 0.146339 21.0271 0.0881571C20.8885 0.0299756 20.7397 0 20.5893 0C20.439 0 20.2902 0.0299756 20.1516 0.0881571C20.013 0.146339 19.8874 0.231555 19.7822 0.338848L11.8662 8.247C11.6528 8.46303 11.5332 8.75445 11.5332 9.05809C11.5332 9.36174 11.6528 9.65313 11.8662 9.86917L22.348 20.3432C22.454 20.4507 22.5802 20.5361 22.7195 20.5944C22.8587 20.6527 23.0082 20.6827 23.1591 20.6827C23.31 20.6827 23.4595 20.6527 23.5987 20.5944C23.738 20.5361 23.8643 20.4507 23.9702 20.3432L30.2094 14.104C30.3166 14.0081 30.4554 13.9551 30.5993 13.9551C30.7432 13.9551 30.882 14.0081 30.9893 14.104L37.0334 20.1482C37.1294 20.2554 37.1824 20.3943 37.1824 20.5382C37.1824 20.682 37.1294 20.8209 37.0334 20.9281L32.3541 25.5685C32.2494 25.6695 32.1096 25.726 31.9641 25.726C31.8186 25.726 31.6789 25.6695 31.5742 25.5685L27.9321 21.9341C27.8261 21.8266 27.6999 21.7412 27.5606 21.683C27.4214 21.6247 27.2719 21.5947 27.121 21.5947C26.97 21.5947 26.8206 21.6247 26.6813 21.683C26.5421 21.7412 26.4158 21.8266 26.3099 21.9341L25.9277 22.3163C25.7148 22.531 25.5954 22.8211 25.5954 23.1235C25.5954 23.4259 25.7148 23.716 25.9277 23.9307L31.1842 29.195C31.4003 29.4083 31.6917 29.528 31.9953 29.528C32.299 29.528 32.5904 29.4083 32.8064 29.195L40.66 21.3336C40.7698 21.231 40.8581 21.1074 40.9197 20.9703C40.9812 20.8331 41.0148 20.685 41.0184 20.5346C41.0221 20.3843 40.9957 20.2348 40.9408 20.0948C40.886 19.9548 40.8037 19.8271 40.6989 19.7192Z" fill="#B92525"/>
<path d="M8.25607 29.1783C8.47078 29.3912 8.7609 29.5106 9.06326 29.5106C9.36562 29.5106 9.65574 29.3912 9.87046 29.1783L16.1096 22.9391C16.2143 22.8381 16.3541 22.7816 16.4996 22.7816C16.645 22.7816 16.7848 22.8381 16.8895 22.9391L23.1989 29.2407C23.3004 29.3451 23.4216 29.4285 23.5554 29.486C23.6892 29.5436 23.8331 29.5742 23.9788 29.576H24.7587C24.9813 29.5688 25.197 29.4968 25.3793 29.3689C25.5617 29.241 25.7029 29.0628 25.7856 28.856C25.8684 28.6492 25.8891 28.4227 25.8452 28.2043C25.8013 27.986 25.6947 27.7851 25.5386 27.6263L17.2249 19.3126C17.0102 19.0997 16.72 18.9803 16.4177 18.9803C16.1153 18.9803 15.8252 19.0997 15.6105 19.3126L9.37132 25.5518C9.26574 25.651 9.12628 25.7063 8.98138 25.7063C8.83647 25.7063 8.69701 25.651 8.59143 25.5518L3.96664 20.9348C3.86739 20.8292 3.81213 20.6897 3.81213 20.5448C3.81213 20.3999 3.86739 20.2605 3.96664 20.1549L8.64601 15.5145C8.7516 15.4153 8.89105 15.36 9.03596 15.36C9.18087 15.36 9.32033 15.4153 9.42591 15.5145L11.6252 17.706C11.7305 17.8133 11.8561 17.8985 11.9947 17.9567C12.1333 18.0149 12.2821 18.0449 12.4324 18.0449C12.5827 18.0449 12.7315 18.0149 12.8701 17.9567C13.0087 17.8985 13.1343 17.8133 13.2396 17.706L13.6295 17.3239C13.8429 17.1078 13.9626 16.8164 13.9626 16.5128C13.9626 16.2091 13.8429 15.9177 13.6295 15.7017L9.80806 11.888C9.59335 11.6751 9.30323 11.5557 9.00087 11.5557C8.69851 11.5557 8.40839 11.6751 8.19367 11.888L0.332327 19.7493C0.11944 19.9641 0 20.2542 0 20.5565C0 20.8589 0.11944 21.149 0.332327 21.3637L8.25607 29.1783Z" fill="#B92525"/>
<path d="M62.3051 22.6052C62.0637 22.1638 61.7648 21.7563 61.4164 21.3933C61.0124 20.9409 60.7215 20.7309 60.5546 20.7578C59.8275 20.8763 59.2781 20.9463 58.9388 20.9732C58.0088 21.0774 56.6533 21.1671 54.8723 21.2425L54.91 18.0917C54.91 17.7955 54.5599 17.5531 53.8328 17.343C53.3622 17.2103 52.8811 17.1184 52.3947 17.0683C52.3087 17.0646 52.223 17.0816 52.1449 17.1178C52.0668 17.154 51.9985 17.2084 51.9457 17.2764C51.893 17.3445 51.8573 17.4242 51.8417 17.5089C51.8261 17.5936 51.831 17.6808 51.8561 17.7631L51.9207 17.984C52.0062 18.2662 52.0604 18.557 52.0823 18.8511L52.2169 21.3449C49.5455 21.3916 47.8524 21.4167 47.1379 21.4203C46.3521 21.4228 45.5678 21.3525 44.7949 21.2102C44.7034 21.196 44.6098 21.2057 44.5231 21.2382C44.4364 21.2708 44.3595 21.3252 44.3 21.3961C44.2404 21.4671 44.2001 21.5521 44.1831 21.6432C44.166 21.7342 44.1727 21.8281 44.2025 21.9158C44.3825 22.3714 44.6138 22.8051 44.8919 23.2085C45.0363 23.4811 45.2464 23.7134 45.5031 23.8846C45.7598 24.0557 46.0551 24.1602 46.3623 24.1887C46.4548 24.1847 46.5468 24.1721 46.637 24.151C48.9424 23.6816 51.2864 23.4274 53.6389 23.3916C54.2583 23.3916 55.1039 23.3539 56.1703 23.3539C57.98 23.2898 59.7904 23.46 61.5564 23.8602C61.7126 23.8979 61.8849 23.7848 62.0627 23.5209C62.2253 23.3096 62.321 23.0545 62.3374 22.7883C62.3433 22.7255 62.3321 22.6622 62.3051 22.6052ZM59.7521 15.8726C59.3749 15.4849 58.9386 15.1595 58.4594 14.9085C57.791 14.5146 57.0834 14.1915 56.3481 13.9444C55.6802 13.7188 54.9876 13.5741 54.2852 13.5135C54.2313 13.5097 54.1794 13.4917 54.1348 13.4614C54.0901 13.4311 54.0542 13.3895 54.0307 13.3409C54.0072 13.2923 53.9969 13.2383 54.001 13.1844C54.005 13.1306 54.0231 13.0788 54.0536 13.0342C54.3929 12.5494 54.8507 11.8816 54.8507 11.8816C54.8507 11.8816 54.883 11.72 54.7538 11.6284L53.8974 11.0898C54.2206 11.0898 54.6568 11.0898 55.2008 11.0898C55.87 11.0844 56.5389 11.1167 57.2044 11.1867C57.7505 11.2477 58.2908 11.3522 58.8203 11.4991C58.8957 11.4991 59.0088 11.4453 59.1488 11.2999C59.2938 11.1578 59.4108 10.9897 59.4935 10.8043C59.5704 10.6727 59.5936 10.5164 59.5582 10.3681C59.3821 9.94745 59.1363 9.55959 58.831 9.22083C58.4594 8.77917 58.2063 8.56912 58.0608 8.59605C57.6635 8.69267 57.2606 8.76463 56.8544 8.8115C55.8579 8.95154 54.6245 9.05925 53.1595 9.12389C51.5221 9.19929 50.1972 9.23699 49.1846 9.23699C48.5033 9.24486 47.8225 9.19804 47.1487 9.09696C47.0567 9.08401 46.963 9.09504 46.8765 9.129C46.7901 9.16296 46.7139 9.21869 46.6554 9.29077C46.5969 9.36286 46.558 9.44886 46.5425 9.54042C46.527 9.63197 46.5354 9.72597 46.567 9.8133C46.7075 10.1906 46.8881 10.5517 47.1056 10.8905C47.4934 11.483 47.8973 11.7846 48.312 11.7846C48.3761 11.7963 48.4418 11.7963 48.5059 11.7846C49.6265 11.5249 50.764 11.3449 51.9099 11.246L51.7591 11.693C51.7214 11.8088 51.6689 11.9192 51.6029 12.0216C50.7721 13.2679 49.7611 14.3842 48.6029 15.334C48.0273 15.8169 47.4048 16.241 46.7447 16.5998L46.2384 16.8529C46.1488 16.8976 46.0734 16.9663 46.0207 17.0515C45.968 17.1366 45.9401 17.2348 45.9401 17.3349C45.9401 17.4351 45.968 17.5332 46.0207 17.6184C46.0734 17.7036 46.1488 17.7723 46.2384 17.817C46.5707 17.9415 46.9231 18.0036 47.2779 18.0001C48.2859 17.9475 49.261 17.6237 50.1002 17.0629C51.1357 16.4148 52.0611 15.6058 52.8417 14.6662C52.9097 14.5812 53.0067 14.5243 53.114 14.5064C53.2214 14.4885 53.3316 14.5109 53.4234 14.5692C54.0985 15.0145 54.8166 15.5279 55.5779 16.1096C56.2724 16.6331 56.9393 17.1922 57.5761 17.7847C57.8105 17.9752 58.1102 18.0661 58.4109 18.0378C58.7589 18.0398 59.1036 17.9701 59.4235 17.8332C59.7359 17.6985 59.9083 17.5262 59.9621 17.2946C59.9822 17.1535 59.9948 17.0115 59.9998 16.8691C60.0278 16.5188 59.9408 16.169 59.7521 15.8726Z" fill="#040000"/>
<path d="M72.5876 16.0024C72.5351 15.774 72.4058 15.5706 72.2213 15.4261C71.6105 15.012 70.9546 14.6687 70.2662 14.4027C69.5472 14.1277 68.7991 13.9361 68.0364 13.8318C68.4888 12.9485 68.9197 12.0221 69.3183 11.0472L69.5229 10.5625C69.5822 10.4332 69.6253 10.3201 69.6737 10.2285C69.7394 10.1105 69.7969 9.9881 69.8461 9.86227C69.9484 9.62529 69.803 9.36677 69.399 9.0813C68.8913 8.7488 68.3354 8.49629 67.7509 8.33263C67.3988 8.21976 67.0387 8.13334 66.6737 8.0741C66.5812 8.06662 66.4884 8.08316 66.4042 8.12211C66.32 8.16106 66.2473 8.2211 66.1931 8.29641C66.1389 8.37172 66.1051 8.45975 66.0949 8.55197C66.0848 8.64419 66.0986 8.73747 66.1351 8.82277C66.2919 9.16114 66.3797 9.52732 66.3936 9.89998C66.3975 10.0257 66.3811 10.1511 66.3451 10.2716C66.0986 11.1528 65.7797 12.0121 65.3918 12.8408C64.9727 13.7339 64.4638 14.5821 63.8729 15.3722C63.4107 16.0024 62.8992 16.5949 62.3433 17.1442C62.1656 17.3112 61.9986 17.4566 61.8424 17.5859C61.7713 17.6487 61.718 17.7291 61.6879 17.8191C61.6578 17.9091 61.6521 18.0054 61.6712 18.0984C61.6904 18.1913 61.7337 18.2775 61.7969 18.3483C61.86 18.4191 61.9408 18.472 62.0309 18.5015C62.2238 18.5555 62.4231 18.5826 62.6234 18.5823C63.3471 18.5506 64.0471 18.3153 64.6431 17.9037C65.0966 17.623 65.5144 17.2884 65.8873 16.9073C66.3076 16.4642 66.6946 15.9907 67.0453 15.4907C67.1421 15.3553 67.232 15.2151 67.3146 15.0706C67.3805 14.9538 67.4524 14.8405 67.5301 14.7313C68.6137 15.6566 69.5444 16.7472 70.2877 17.9629C70.3809 18.0782 70.5022 18.1676 70.6399 18.2223C70.7777 18.277 70.9272 18.2953 71.0741 18.2753C71.3944 18.2722 71.711 18.2063 72.0059 18.0814C72.2527 18.0056 72.4609 17.8378 72.5876 17.6128C72.687 17.3725 72.733 17.1133 72.7222 16.8534C72.7218 16.5645 72.6764 16.2774 72.5876 16.0024ZM77.9037 24.0815C77.6571 23.6678 77.3604 23.2861 77.0203 22.945C76.6056 22.5249 76.3201 22.3256 76.1532 22.3526C75.3345 22.4818 74.8013 22.5572 74.5374 22.5842C73.3794 22.7027 72.5176 22.7781 71.9305 22.8158L71.268 22.8589L69.8569 22.9127C69.2429 22.9397 68.7796 22.9558 68.4673 22.9558C68.4403 22.4172 68.4296 22.0132 68.4296 21.6901V20.7367C68.4393 20.3365 68.4861 19.938 68.5696 19.5464C68.5777 19.4674 68.5651 19.3875 68.533 19.3148C68.5009 19.2421 68.4504 19.179 68.3865 19.1317C68.1932 18.9469 67.9614 18.8072 67.7078 18.7224C66.9901 18.4656 66.2178 18.4006 65.4672 18.5338C65.3791 18.5534 65.2974 18.5949 65.2294 18.6543C65.1615 18.7137 65.1096 18.7893 65.0785 18.874C65.0474 18.9587 65.0381 19.0499 65.0514 19.1392C65.0648 19.2284 65.1003 19.3129 65.1548 19.3848L65.2841 19.5518C65.4306 19.7424 65.5418 19.9577 65.6126 20.1874C65.7545 20.9963 65.8194 21.8169 65.8065 22.638C65.8065 23.1282 65.8065 23.5752 65.7473 23.9792C65.7473 24.1084 65.8389 24.2808 66.0705 24.5178C66.3 24.7284 66.5552 24.9094 66.8299 25.0564C67.0056 25.1779 67.2096 25.2521 67.4224 25.2718C68.8708 25.0348 70.3339 24.898 71.8012 24.8625H72.6361C74.1568 24.8213 75.6758 24.9917 77.1496 25.3688C77.3112 25.4065 77.4781 25.288 77.6613 25.0079C77.8169 24.7872 77.91 24.5285 77.9306 24.2592C77.937 24.2004 77.9277 24.1409 77.9037 24.0869V24.0815ZM77.532 9.71686C77.5591 9.32641 77.6095 8.93792 77.6828 8.55346C77.7421 8.268 77.5374 7.98793 77.0957 7.71324C76.5569 7.40784 75.9707 7.19483 75.3614 7.08306C75.0682 7.01885 74.7715 6.9721 74.4727 6.94303C74.3737 6.93532 74.2745 6.95513 74.186 7.00028C74.0975 7.04544 74.0233 7.11419 73.9714 7.19891C73.9196 7.28363 73.8922 7.38104 73.8923 7.48036C73.8923 7.57968 73.9199 7.67706 73.9718 7.76171L74.0903 7.95023C74.2896 8.26133 74.4403 8.60095 74.5374 8.95742C74.6547 9.60065 74.7124 10.2533 74.7097 10.9072V11.5104C73.751 11.6235 73.0293 11.6935 72.5553 11.7043C72.3614 11.7043 72.0921 11.7043 71.742 11.7043C71.4195 11.7015 71.0974 11.6781 70.7779 11.6343C70.687 11.6228 70.5946 11.6347 70.5096 11.6689C70.4246 11.703 70.3497 11.7583 70.292 11.8295C70.2343 11.9007 70.1957 11.9854 70.1799 12.0756C70.1641 12.1659 70.1715 12.2587 70.2016 12.3453C70.2662 12.5176 70.3416 12.69 70.4278 12.8839C70.5725 13.2467 70.7865 13.5778 71.058 13.8587C71.2871 14.079 71.5912 14.2041 71.909 14.2088C72.1414 14.2019 72.3717 14.162 72.593 14.0903L73.918 13.7241L74.7151 13.5087V16.7026C74.7151 17.2843 74.7151 18.0706 74.6397 19.0563L74.6128 19.4818C74.6216 19.7412 74.7318 19.9868 74.9198 20.1658C75.1464 20.4088 75.4145 20.6094 75.7115 20.7583C75.9528 20.8999 76.224 20.9829 76.5033 21.0007C76.6397 20.9939 76.7732 20.9583 76.8948 20.8961C77.0165 20.8339 77.1235 20.7465 77.2088 20.6398C77.4135 20.4372 77.5313 20.1629 77.5374 19.875C77.5374 19.4818 77.5374 18.9001 77.4997 18.1191V16.7026V10.988C77.4728 10.8856 77.4943 10.4655 77.532 9.72225V9.71686Z" fill="#040000"/>
<path d="M97.2878 15.4471C97.1311 15.1987 96.9508 14.966 96.7492 14.7523C96.5287 14.5064 96.2811 14.2859 96.0114 14.0952C95.769 13.9283 95.5966 13.8906 95.4727 13.966C94.9004 14.4551 94.1832 14.7428 93.4314 14.7847V11.1814C93.4314 10.6428 93.4314 10.1634 93.4907 9.72175C93.5151 9.33104 93.5655 8.94239 93.6415 8.55836C93.6953 8.2729 93.4961 7.99283 93.049 7.71814C92.5121 7.41265 91.9276 7.19961 91.3201 7.08796C91.0269 7.02375 90.7301 6.97698 90.4314 6.94792C90.3324 6.9402 90.2331 6.96003 90.1447 7.00518C90.0562 7.05034 89.982 7.11908 89.9301 7.20381C89.8783 7.28853 89.8509 7.38593 89.8509 7.48526C89.851 7.58458 89.8785 7.68195 89.9305 7.76661L90.0436 7.95511C90.2492 8.26277 90.4004 8.60347 90.4906 8.96232C90.62 9.73458 90.6795 10.5169 90.6684 11.2999V18.4633C90.6684 20.1599 90.6145 22.169 90.5122 24.4742C90.5219 24.7566 90.6394 25.0245 90.8407 25.2229C91.0807 25.5055 91.3601 25.7522 91.6702 25.9554C91.8927 26.1258 92.1568 26.2336 92.435 26.2677C92.5835 26.2641 92.7294 26.2279 92.8625 26.1619C92.9955 26.0958 93.1125 26.0014 93.2052 25.8853C93.3126 25.773 93.3965 25.6403 93.452 25.4951C93.5075 25.3499 93.5334 25.1951 93.5284 25.0397C93.4637 22.6806 93.4314 20.4885 93.4314 18.4633V16.4759C94.0353 16.4478 94.6404 16.4676 95.2411 16.5351C95.7264 16.5695 96.2077 16.647 96.6792 16.7667C96.7977 16.7667 96.9324 16.6698 97.0778 16.4005C97.214 16.1754 97.2917 15.9199 97.304 15.6572C97.3152 15.5869 97.3097 15.5149 97.2878 15.4471ZM83.1171 12.6572L84.3074 12.5387C84.8784 12.501 85.4277 12.4794 85.9609 12.4794C86.6808 12.4772 87.4001 12.5168 88.1154 12.5979C88.2339 12.5979 88.3578 12.4848 88.4978 12.2263C88.6217 12.0051 88.6918 11.7578 88.7025 11.5045C88.6978 11.4381 88.6832 11.3728 88.6594 11.3106C88.4548 10.9553 88.2009 10.6307 87.9053 10.3465C87.566 10.018 87.3236 9.87794 87.1836 9.9318C86.5926 10.1165 85.992 10.2693 85.3846 10.3896C84.7111 10.5088 84.0314 10.5897 83.3487 10.632C82.5192 10.6858 81.9537 10.7074 81.6575 10.7074C80.933 10.7166 80.2099 10.6407 79.503 10.4812C79.4384 10.4654 79.3707 10.4666 79.3066 10.4845C79.2425 10.5025 79.1841 10.5367 79.137 10.5837C79.0899 10.6308 79.0558 10.6892 79.0378 10.7533C79.0199 10.8174 79.0187 10.8851 79.0345 10.9498C79.1142 11.2463 79.2168 11.5363 79.3415 11.8169C79.5087 12.2279 79.7456 12.6068 80.0417 12.9372C80.2948 13.2011 80.5156 13.3035 80.7095 13.2389L81.0435 13.1204L83.1171 12.6572ZM79.4761 16.4274C79.5461 16.0504 79.6323 15.571 79.6916 15.2586C79.7061 15.1704 79.7504 15.0897 79.8169 15.03C79.8835 14.9702 79.9685 14.935 80.0578 14.9301L83.3164 14.7039C84.5114 14.5997 85.6999 14.4307 86.8766 14.1976C87.0328 14.1976 87.2698 14.3161 87.5983 14.6285C87.9103 14.9238 88.1674 15.2721 88.3577 15.6572C88.3798 15.7065 88.3925 15.7595 88.3955 15.8134C88.3783 16.0401 88.296 16.2571 88.1585 16.4382C88.0077 16.6698 87.8676 16.7829 87.7545 16.7667C86.975 16.6781 86.1907 16.6385 85.4062 16.6482C84.5983 16.6482 79.8855 16.8691 79.8855 16.8691C79.8294 16.8736 79.773 16.8655 79.7205 16.8454C79.6679 16.8252 79.6206 16.7936 79.5818 16.7528C79.5431 16.712 79.514 16.6631 79.4966 16.6096C79.4793 16.5561 79.4741 16.4993 79.4815 16.4436L79.4761 16.4274ZM82.4654 19.0073C83.6934 18.8942 84.6521 18.7811 85.3362 18.6572C86.1597 18.5527 86.9737 18.3834 87.7707 18.1509C87.9753 18.0863 88.277 18.2641 88.6648 18.6896C89.0171 19.0495 89.3001 19.4712 89.4996 19.9337C89.5339 20.0804 89.5168 20.2344 89.4511 20.37C89.3828 20.5544 89.2805 20.7243 89.1495 20.8709C89.0202 21.0109 88.9017 21.0702 88.7994 21.0433C88.0549 20.8561 87.2885 20.7709 86.5211 20.7901C86.2895 20.7901 85.8855 20.7901 85.3146 20.8278C83.8213 20.9164 82.3383 21.1326 80.8819 21.4741C80.6611 21.5226 80.4079 21.388 80.1225 21.0648C79.78 20.6452 79.5056 20.1745 79.3092 19.6698C79.2925 19.6196 79.2877 19.5663 79.295 19.514C79.3023 19.4616 79.3215 19.4117 79.3512 19.3679C79.3808 19.3242 79.4202 19.2879 79.4661 19.2618C79.5121 19.2357 79.5634 19.2205 79.6162 19.2174L82.4654 19.0073Z" fill="#040000"/>
<path d="M107.407 17.9467C107.365 17.7521 107.259 17.5774 107.105 17.4512C106.507 17.0084 105.864 16.6293 105.188 16.3201C104.532 16.0153 103.843 15.7876 103.135 15.6415C103.367 15.0436 103.582 14.435 103.776 13.8102C103.895 13.4493 104.008 13.1315 104.126 12.8569C104.207 12.7168 104.126 12.5983 103.857 12.5068L102.78 12.1944C102.909 12.1944 103.114 12.1944 103.399 12.1944C104.47 12.1955 105.536 12.333 106.572 12.6037C106.653 12.6037 106.76 12.5499 106.906 12.4044C107.048 12.2609 107.162 12.0931 107.245 11.9089C107.323 11.7776 107.348 11.6217 107.315 11.4726C107.137 11.0348 106.886 10.6305 106.572 10.2769C106.2 9.81374 105.947 9.59828 105.818 9.62521C105.478 9.68985 105.074 9.75987 104.611 9.83528C103.491 10.0076 102.715 10.11 102.274 10.1477C101.455 10.2285 100.658 10.2662 99.9361 10.2662C99.2148 10.2753 98.4941 10.223 97.7817 10.11C97.6935 10.0964 97.6033 10.1049 97.5192 10.1348C97.4352 10.1647 97.3598 10.2151 97.3 10.2813C97.2402 10.3475 97.1978 10.4275 97.1766 10.5142C97.1554 10.6009 97.156 10.6915 97.1785 10.7778C97.3107 11.2132 97.4914 11.6323 97.7171 12.0274C98.051 12.6199 98.4226 12.9107 98.8266 12.9107C98.8838 12.918 98.9417 12.918 98.999 12.9107C99.4029 12.8084 100.076 12.6576 101.046 12.4637C100.853 13.5091 100.55 14.531 100.141 15.5122C99.7415 16.5358 99.2417 17.5172 98.6489 18.4422C98.3346 18.9352 97.9739 19.3969 97.5716 19.8211C97.4585 19.9449 97.3454 20.0527 97.2377 20.155C97.1722 20.2198 97.1245 20.3004 97.0991 20.389C97.0736 20.4775 97.0713 20.5711 97.0924 20.6608C97.1135 20.7505 97.1572 20.8333 97.2194 20.9013C97.2816 20.9693 97.3603 21.0202 97.4478 21.0491C97.6448 21.0997 97.8475 21.125 98.051 21.1245C98.7183 21.1032 99.3661 20.8941 99.92 20.5212C100.814 19.9029 101.543 19.0743 102.042 18.1083C102.247 17.7312 102.489 17.225 102.758 16.5894C103.607 17.6166 104.35 18.7263 104.977 19.9018C105.123 20.1442 105.441 20.2681 105.931 20.2681C106.217 20.2711 106.501 20.2256 106.771 20.1334C106.99 20.0787 107.181 19.9467 107.31 19.7618C107.472 19.4502 107.547 19.1001 107.525 18.7492C107.525 18.4774 107.485 18.207 107.407 17.9467ZM115.669 15.4476C115.514 15.1975 115.334 14.9646 115.13 14.7528C114.909 14.5053 114.66 14.2848 114.387 14.0957C114.15 13.9287 113.978 13.891 113.848 13.9664C113.277 14.4566 112.559 14.7444 111.807 14.7851V11.1818C111.807 10.6432 111.807 10.1638 111.866 9.72217C111.89 9.33112 111.942 8.94231 112.022 8.55878C112.071 8.27332 111.877 7.99325 111.43 7.71856C110.891 7.41315 110.305 7.20014 109.696 7.08838C109.401 7.02662 109.102 6.99057 108.802 6.98065C108.705 6.97813 108.609 7.00175 108.525 7.04901C108.44 7.09627 108.37 7.16543 108.321 7.24922C108.273 7.333 108.248 7.42832 108.249 7.52513C108.25 7.62194 108.277 7.71667 108.328 7.79934C108.36 7.84782 108.387 7.90167 108.419 7.95553C108.627 8.26172 108.779 8.60291 108.866 8.96274C108.996 9.735 109.055 10.5173 109.044 11.3003V18.4638C109.044 20.1604 108.99 22.1694 108.888 24.4746C108.9 24.7564 109.017 25.0234 109.216 25.2233C109.456 25.5059 109.736 25.7526 110.046 25.9558C110.271 26.1253 110.536 26.233 110.816 26.2682C110.964 26.2638 111.11 26.2273 111.243 26.1613C111.376 26.0953 111.493 26.0013 111.586 25.8858C111.693 25.7731 111.776 25.6403 111.831 25.4951C111.885 25.3498 111.91 25.1952 111.904 25.0401C111.839 22.681 111.807 20.4889 111.807 18.4638V16.4763C112.411 16.4482 113.016 16.4681 113.617 16.5355C114.102 16.5694 114.583 16.6469 115.055 16.7671C115.173 16.7671 115.308 16.6702 115.459 16.4009C115.592 16.1747 115.667 15.9196 115.68 15.6576C115.695 15.5879 115.691 15.5153 115.669 15.4476Z" fill="#040000"/>
<path d="M124.766 10.8313C124.388 10.5959 124.063 10.284 123.813 9.91565C123.761 9.84028 123.692 9.77845 123.611 9.73533C123.531 9.69222 123.441 9.66909 123.349 9.66789C123.298 9.66112 123.245 9.66112 123.193 9.66789L122.568 9.81331C122.113 9.91842 121.653 9.99933 121.19 10.0557C120.651 10.1203 119.967 10.1796 119.078 10.2334C118.19 10.2873 117.549 10.3088 117.161 10.3088C116.595 10.3092 116.032 10.246 115.48 10.1203C115.389 10.0999 115.294 10.1036 115.205 10.1309C115.116 10.1582 115.035 10.2083 114.971 10.2762C114.907 10.3441 114.862 10.4275 114.84 10.5182C114.817 10.6089 114.819 10.7038 114.845 10.7936C114.958 11.1874 115.107 11.5697 115.292 11.9354C115.615 12.5656 115.965 12.878 116.342 12.878C116.399 12.8852 116.457 12.8852 116.515 12.878C117.22 12.6841 117.958 12.5171 118.734 12.3825C119.455 12.2505 120.183 12.1624 120.915 12.1185L121.868 12.0593C121.446 13.0252 120.936 13.9501 120.344 14.8223C119.626 15.9283 118.899 16.9498 118.163 17.887C117.736 18.4882 117.25 19.0457 116.714 19.5513C116.518 19.6856 116.301 19.7875 116.073 19.8529C115.981 19.8841 115.9 19.9393 115.837 20.0129C115.774 20.0864 115.732 20.1755 115.716 20.2709C115.699 20.3662 115.708 20.4643 115.743 20.5547C115.777 20.6451 115.836 20.7246 115.911 20.7847L116.164 20.9732C116.559 21.2497 116.993 21.4657 117.452 21.6142C117.682 21.7044 117.927 21.7501 118.173 21.7488C118.373 21.7497 118.569 21.701 118.745 21.6069C118.921 21.5129 119.071 21.3766 119.181 21.2102C120.053 20.0899 121.026 18.6913 122.1 17.0145C123.174 15.3376 124.218 13.5692 125.235 11.7092C125.257 11.6542 125.269 11.596 125.272 11.5369C125.262 11.2622 125.105 11.0413 124.766 10.8313ZM129.775 11.1814C129.775 10.6428 129.775 10.1634 129.834 9.72175C129.858 9.3307 129.91 8.94189 129.99 8.55836C130.044 8.2729 129.845 7.99283 129.398 7.71814C128.86 7.4118 128.273 7.19873 127.664 7.08796C127.372 7.02335 127.077 6.97657 126.78 6.94792C126.681 6.9402 126.582 6.96003 126.494 7.00518C126.405 7.05034 126.331 7.11908 126.279 7.20381C126.227 7.28853 126.2 7.38593 126.2 7.48526C126.2 7.58458 126.228 7.68195 126.279 7.76661L126.393 7.95511C126.596 8.26377 126.747 8.60415 126.84 8.96232C126.964 9.73509 127.022 10.5172 127.012 11.2999V18.4633C127.012 20.1599 126.964 22.169 126.856 24.4742C126.868 24.7571 126.987 25.0248 127.19 25.2229C127.426 25.5066 127.704 25.7535 128.014 25.9554C128.239 26.1249 128.504 26.2326 128.784 26.2677C128.932 26.2641 129.078 26.2279 129.211 26.1619C129.345 26.0958 129.462 26.0014 129.554 25.8853C129.662 25.7734 129.746 25.6407 129.8 25.4953C129.855 25.3499 129.879 25.1949 129.872 25.0397C129.807 22.6806 129.775 20.4885 129.775 18.4633V11.1814Z" fill="#040000"/>
</svg>
