<svg width="18" height="18" viewBox="0 0 18 18" fill="none" xmlns="http://www.w3.org/2000/svg">
<path d="M8.84657 0.00273461C13.6478 -0.084174 17.69 3.82285 17.7866 8.63952C17.887 13.6126 14.0398 17.7166 9.18069 17.8113C4.16896 17.9136 0.0765242 14.0375 0.00120341 9.12041C-0.07798 4.04881 3.75951 0.0954371 8.84657 0.00273461ZM13.5802 9.24788C13.3871 10.6423 13.2036 11.9652 13.0124 13.3345L15.2836 14.1997C16.396 12.7493 17.1376 11.183 17.1512 9.24788H13.5802ZM17.1473 8.54295C17.1589 6.74298 16.481 5.25974 15.4864 3.89045C15.3996 3.81834 15.2968 3.76795 15.1867 3.74343C15.0765 3.71891 14.9621 3.72099 14.8529 3.74947C14.2214 3.95418 13.6111 4.22843 13.0105 4.46791C13.2036 5.84107 13.3871 7.17173 13.5783 8.54295H17.1473ZM0.588315 8.54295H4.1902C4.38333 7.15628 4.57646 5.83913 4.76959 4.45825C4.23382 4.278 3.70836 4.06846 3.19557 3.83058C2.68764 3.56792 2.39409 3.69345 2.09474 4.14345C1.21514 5.45145 0.693131 6.96687 0.580594 8.5391L0.588315 8.54295ZM4.77346 13.3422C4.56874 11.944 4.37174 10.5979 4.17474 9.26334H0.673293C0.599903 10.9803 1.4883 13.1588 2.63936 14.1572L4.77346 13.3422ZM4.7889 9.24982C5.00327 10.4994 5.17516 11.6292 5.40692 12.7493C5.45233 12.8508 5.52243 12.9393 5.61081 13.0068C5.69919 13.0743 5.80304 13.1185 5.91292 13.1356C6.77041 13.0777 7.62405 12.9425 8.52404 12.8401V9.24595L4.7889 9.24982ZM12.3866 13.2051C12.5798 11.8996 12.7613 10.6075 12.9544 9.2556H9.25021V12.8575L12.3866 13.2051ZM9.23862 8.54489H12.9699C12.7768 7.19297 12.5836 5.91059 12.3905 4.61082L9.23862 4.97391V8.54489ZM5.40885 4.60696C5.21572 5.98591 5.02259 7.25091 4.84105 8.54102H8.58198C8.58198 7.72022 8.53369 6.95542 8.59356 6.19835C8.66695 5.29257 8.51632 4.72863 7.40195 4.82713C6.80518 4.87927 6.19682 4.70353 5.40885 4.60696ZM9.2927 0.585992V4.36362L12.0834 3.97736C11.4963 2.46901 10.8281 1.2774 9.28497 0.585992H9.2927ZM8.52017 4.3443V0.755947C7.24745 1.01474 6.0964 2.42266 5.86078 4.02757L8.52017 4.3443ZM9.2927 13.5045V17.1739C10.8667 16.4999 11.5427 15.3006 12.0545 13.7497L9.2927 13.5045ZM8.52017 17.1739V13.5045L5.68502 13.7652C6.29532 15.2755 6.90754 16.5289 8.51439 17.1759L8.52017 17.1739ZM11.2955 16.6428L11.4654 16.9132L14.737 14.9549L14.6385 14.6324L12.7999 13.9429C12.5315 14.4856 12.3364 14.924 12.1027 15.3392C11.8459 15.7873 11.56 16.2102 11.2897 16.6448L11.2955 16.6428ZM3.16661 14.6285L3.07198 14.9761L6.41892 16.9345L6.51548 16.7413L4.95692 13.9583L3.16661 14.6285ZM14.6154 3.13145L14.7235 2.80506L11.4152 0.885341L11.2819 1.1171C11.5929 1.63276 11.9251 2.1349 12.207 2.66214C12.8502 3.87693 12.8405 3.88272 14.1036 3.37479C14.2735 3.31106 14.4396 3.22222 14.6096 3.13338L14.6154 3.13145ZM6.5966 0.92397C5.20607 1.39328 4.05501 2.01709 2.97541 3.13145L4.99362 3.78809L6.5966 0.92397Z" fill="#323232"/>
</svg>
