<svg width="60" height="60" viewBox="0 0 60 60" fill="none" xmlns="http://www.w3.org/2000/svg">
<path d="M59.5321 36.8435L45.9571 23.2571C45.6411 22.945 45.2148 22.77 44.7707 22.77C44.3265 22.77 43.9003 22.945 43.5843 23.2571L34.4582 32.3832C34.3013 32.5235 34.0983 32.6011 33.8878 32.6011C33.6774 32.6011 33.4743 32.5235 33.3174 32.3832L22.7198 21.7855C22.5795 21.6287 22.5019 21.4256 22.5019 21.2151C22.5019 21.0047 22.5795 20.8016 22.7198 20.6448L29.5643 13.8572C29.7174 13.7095 29.9219 13.6269 30.1347 13.6269C30.3475 13.6269 30.552 13.7095 30.7051 13.8572L35.3822 18.5344C35.5274 18.6888 35.6082 18.8928 35.6082 19.1047C35.6082 19.3167 35.5274 19.5207 35.3822 19.6751L32.1539 22.9034C31.8418 23.2194 31.6668 23.6457 31.6668 24.0898C31.6668 24.534 31.8418 24.9603 32.1539 25.2763L32.7471 25.8694C33.0611 26.1808 33.4855 26.3555 33.9277 26.3555C34.37 26.3555 34.7944 26.1808 35.1084 25.8694L40.7096 20.2683C41.0217 19.9523 41.1967 19.5261 41.1967 19.0819C41.1967 18.6378 41.0217 18.2115 40.7096 17.8955L31.2983 8.49564C31.1443 8.3387 30.9606 8.21405 30.7579 8.12895C30.5551 8.04385 30.3375 8 30.1176 8C29.8977 8 29.6801 8.04385 29.4774 8.12895C29.2746 8.21405 29.0909 8.3387 28.9369 8.49564L17.3582 20.063C17.0461 20.379 16.8711 20.8052 16.8711 21.2494C16.8711 21.6935 17.0461 22.1197 17.3582 22.4357L32.69 37.7562C32.845 37.9135 33.0297 38.0383 33.2334 38.1236C33.437 38.2088 33.6556 38.2528 33.8764 38.2528C34.0972 38.2528 34.3158 38.2088 34.5195 38.1236C34.7232 38.0383 34.9078 37.9135 35.0628 37.7562L44.1889 28.6301C44.3458 28.4898 44.5488 28.4122 44.7593 28.4122C44.9697 28.4122 45.1728 28.4898 45.3297 28.6301L54.1705 37.471C54.3108 37.6278 54.3884 37.8309 54.3884 38.0414C54.3884 38.2518 54.3108 38.4549 54.1705 38.6117L47.326 45.3993C47.1729 45.547 46.9684 45.6296 46.7556 45.6296C46.5428 45.6296 46.3383 45.547 46.1852 45.3993L40.8579 40.0833C40.7029 39.926 40.5182 39.8011 40.3145 39.7159C40.1109 39.6306 39.8923 39.5867 39.6715 39.5867C39.4507 39.5867 39.2321 39.6306 39.0284 39.7159C38.8247 39.8011 38.6401 39.926 38.4851 40.0833L37.9261 40.6423C37.6147 40.9564 37.44 41.3807 37.44 41.823C37.44 42.2653 37.6147 42.6896 37.9261 43.0036L45.6148 50.7038C45.9308 51.0159 46.3571 51.1909 46.8012 51.1909C47.2454 51.1909 47.6716 51.0159 47.9876 50.7038L59.4751 39.2049C59.6358 39.0548 59.7649 38.8741 59.855 38.6734C59.945 38.4727 59.9941 38.2561 59.9995 38.0362C60.0048 37.8163 59.9662 37.5976 59.8859 37.3928C59.8057 37.188 59.6854 37.0013 59.5321 36.8435Z" fill="#B92525"/>
<path d="M12.0762 50.6811C12.3903 50.9925 12.8147 51.1672 13.2569 51.1672C13.6992 51.1672 14.1236 50.9925 14.4376 50.6811L23.5637 41.555C23.7168 41.4072 23.9213 41.3246 24.1341 41.3246C24.3469 41.3246 24.5514 41.4072 24.7045 41.555L33.9332 50.7724C34.0818 50.9251 34.259 51.0471 34.4547 51.1312C34.6505 51.2154 34.8609 51.2602 35.074 51.2629H36.2147C36.5404 51.2522 36.8559 51.1469 37.1226 50.9599C37.3894 50.7728 37.5959 50.5121 37.7169 50.2096C37.8379 49.9071 37.8682 49.5759 37.804 49.2565C37.7398 48.9371 37.584 48.6433 37.3555 48.411L25.195 36.2505C24.8809 35.9391 24.4566 35.7644 24.0143 35.7644C23.572 35.7644 23.1477 35.9391 22.8336 36.2505L13.7075 45.3765C13.5531 45.5217 13.3491 45.6025 13.1371 45.6025C12.9252 45.6025 12.7212 45.5217 12.5668 45.3765L5.80205 38.6232C5.65687 38.4688 5.57604 38.2648 5.57604 38.0528C5.57604 37.8409 5.65687 37.6369 5.80205 37.4825L12.6466 30.695C12.801 30.5498 13.005 30.469 13.217 30.469C13.429 30.469 13.6329 30.5498 13.7874 30.695L17.0043 33.9005C17.1583 34.0574 17.342 34.1821 17.5448 34.2672C17.7475 34.3523 17.9652 34.3961 18.185 34.3961C18.4049 34.3961 18.6225 34.3523 18.8253 34.2672C19.028 34.1821 19.2117 34.0574 19.3657 33.9005L19.9361 33.3415C20.2482 33.0255 20.4232 32.5993 20.4232 32.1551C20.4232 31.711 20.2482 31.2847 19.9361 30.9687L14.3464 25.3904C14.0323 25.079 13.6079 24.9043 13.1657 24.9043C12.7234 24.9043 12.299 25.079 11.985 25.3904L0.486097 36.8893C0.174706 37.2033 0 37.6277 0 38.07C0 38.5122 0.174706 38.9366 0.486097 39.2507L12.0762 50.6811Z" fill="#B92525"/>
</svg>
